<?xml version="1.0" encoding="UTF-8"?><svg id="Livello_2" xmlns="http://www.w3.org/2000/svg" viewBox="0 0 341.94 137.39"><defs><style>.cls-1{fill:#de1016;}.cls-2{fill:#263987;}</style></defs><g id="Livello_1-2"><g><g><path class="cls-1" d="M54.58,107.69c-.96,1.11-1.92,2.22-2.9,3.32-6.57,7.41-13.8,14.14-21.37,20.51-2.16,1.82-4.38,3.58-6.57,5.37-.12,.1-.24,.18-.41,.32-1.68-3.32-3.68-6.46-4.23-10.21-.4-2.78,.34-5.27,1.98-7.49,.84-1.13,1.81-2.17,2.74-3.23,3.97-4.49,7.68-9.17,10.66-14.39,1.74-3.04,3.2-6.21,3.92-9.66,.92-4.44,.25-8.7-1.55-12.8-1.86-4.24-4.66-7.83-7.85-11.13-4.7-4.86-10.07-8.91-15.68-12.65-2.37-1.58-4.82-3.03-7.18-4.6-1.22-.81-2.41-1.7-3.48-2.69C.08,46-.57,43.11,.48,39.8c.76-2.38,1.94-4.55,3.12-6.74,.07,.02,.13,.02,.18,.05,8.82,4.83,17.39,10.05,25.35,16.22,4.36,3.38,8.47,7.03,12.15,11.15,.08,.08,.16,.16,.25,.24-.01,.09-.01,.19-.04,.28-1.23,3.15-2,6.41-2.3,9.78-.3,3.48-.12,6.93,.67,10.34,1.17,5.05,3.31,9.68,5.91,14.13,.04,.07,.11,.13,.24,.28,1.38-2.02,2.77-3.95,4.05-5.96,1.87-2.92,3.48-5.97,4.53-9.29,1.51-4.34,1.45-8.68,0-13.02,.04-.15,.06-.3,.11-.44,1.86-5.28,5.18-9.57,9.08-13.48,1.54,2.39,2.84,4.9,3.89,7.54,.07,.17,.16,.34,.23,.51,.06,.2,.1,.4,.17,.6,1.13,3.11,1.79,6.33,2.01,9.63,.32,4.84-.44,9.52-2.1,14.07-2.11,5.76-5.18,11-8.76,15.95-1.49,2.05-3.08,4.03-4.62,6.04Z"/><path class="cls-2" d="M54.58,107.69c1.54-2.01,3.14-3.99,4.62-6.04,3.58-4.95,6.66-10.18,8.76-15.95,1.66-4.55,2.41-9.24,2.1-14.07-.22-3.3-.88-6.51-2.01-9.63-.07-.2-.12-.4-.17-.6,7.23-8.27,15.93-14.76,25.17-20.56,4.2-2.64,8.54-5.05,12.82-7.56,.14-.09,.3-.16,.5-.27,1.47,2.87,3.16,5.61,3.55,8.88,.25,2.03-.35,3.81-1.6,5.39-1.26,1.6-2.87,2.8-4.58,3.86-5.1,3.13-10.11,6.39-14.81,10.09-4.45,3.5-8.61,7.28-12.02,11.83-2.4,3.21-4.28,6.68-5.2,10.61-1.03,4.41-.51,8.68,1.18,12.85,1.92,4.75,4.63,9.03,7.77,13.05,2.19,2.8,4.53,5.48,6.85,8.17,1.45,1.68,2.72,3.45,3.24,5.65,.59,2.51,.15,4.92-.85,7.21-.94,2.16-2.06,4.25-3.12,6.37-.24,.48-.62,.54-1.01,.23-8.35-6.63-16.4-13.58-23.77-21.29-2.55-2.66-4.95-5.47-7.41-8.22Z"/><path class="cls-2" d="M63.76,53.35c-3.9,3.91-7.22,8.2-9.08,13.48-.05,.14-.07,.29-.11,.44-.66,1.72-.95,3.52-1.08,5.34-.19,2.63,.17,5.19,1.08,7.68-1.04,3.32-2.66,6.38-4.53,9.29-1.28,2-2.67,3.94-4.05,5.96-.13-.15-.2-.21-.24-.28-2.6-4.45-4.74-9.08-5.91-14.13-.79-3.41-.97-6.86-.67-10.34,.29-3.38,1.07-6.63,2.3-9.78,.03-.09,.03-.19,.04-.28,.84-1.72,1.66-3.45,2.53-5.16,.39-.76,.86-1.48,1.3-2.21,.07-.09,.14-.18,.21-.27,1.5-1.99,2.93-4.04,4.52-5.95,1.41-1.7,2.99-3.25,4.49-4.87,10.04-9.62,21.71-16.88,33.8-23.56,.08-.04,.16-.08,.28-.14,1.4,2.7,2.95,5.3,3.48,8.33,.42,2.38-.23,4.46-1.79,6.27-1.24,1.43-2.74,2.55-4.34,3.54-4.81,2.95-9.53,6.02-14,9.46-2.89,2.23-5.68,4.58-8.24,7.2Z"/><path class="cls-1" d="M54.56,29.43c-5.29-3.44-10.57-6.84-15.81-10.29-1-.66-1.93-1.45-2.78-2.29-1.47-1.46-1.46-2.81,.01-4.28,.82-.82,1.72-1.59,2.68-2.23,5.28-3.47,10.58-6.9,15.89-10.35,1.8,1.18,3.61,2.36,5.41,3.54,3.6,2.34,7.22,4.65,10.79,7.04,.94,.63,1.82,1.41,2.59,2.24,1.21,1.3,1.2,2.51,0,3.81-.75,.8-1.59,1.56-2.5,2.17-3.78,2.52-7.6,4.97-11.41,7.45-1.47,.96-2.94,1.93-4.41,2.89-.16,.1-.32,.2-.47,.3Z"/><path class="cls-1" d="M54.57,42.25c-1.5,1.62-3.09,3.17-4.49,4.87-1.59,1.92-3.02,3.96-4.52,5.95-.07,.09-.14,.18-.21,.27-2.75-2.84-5.78-5.34-8.92-7.73-4.04-3.06-8.28-5.82-12.58-8.5-1.4-.88-2.77-1.85-4.02-2.93-2.83-2.44-3.62-5.5-2.42-9.05,.77-2.31,1.91-4.43,3.1-6.62,2.26,1.29,4.49,2.53,6.69,3.82,7.3,4.26,14.38,8.85,20.92,14.23,2.21,1.82,4.31,3.78,6.46,5.68Z"/></g><g><g><path class="cls-2" d="M149.35,47.06c1.27,0,2.27,.3,3,.89,.73,.59,1.1,1.51,1.1,2.75,0,1.65-.77,2.76-2.32,3.34l2.86,5.59h-2.5l-2.71-5.32h-.22v5.32h-2.3v-12.57h3.09Zm-.79,4.92h1.06c1.05,0,1.58-.43,1.58-1.3s-.55-1.28-1.65-1.28h-.99v2.57Z"/><path class="cls-2" d="M156.19,59.63v-12.57h6.59v2.33h-4.29v2.29h4.29v2.28h-4.29v3.33h4.29v2.35h-6.59Z"/><path class="cls-2" d="M171.35,46.76c.59,0,1.14,.05,1.64,.16s.96,.26,1.38,.46c.42,.2,.81,.45,1.17,.74,.36,.29,.7,.62,1.03,.99l-1.61,1.66c-.52-.56-1.06-.99-1.64-1.28-.58-.29-1.22-.44-1.94-.44-.61,0-1.16,.11-1.67,.34-.51,.23-.95,.53-1.32,.92-.37,.39-.66,.84-.87,1.35-.21,.51-.31,1.06-.31,1.65s.11,1.18,.34,1.71c.22,.53,.53,.99,.92,1.38s.84,.7,1.37,.92c.53,.22,1.09,.33,1.7,.33,.81,0,1.48-.17,2.02-.52,.54-.34,.97-.88,1.29-1.62h-3.5v-2.28h6.09v.02c0,1.02-.14,1.93-.43,2.76-.29,.82-.69,1.53-1.21,2.11-.52,.58-1.15,1.03-1.89,1.35-.74,.32-1.56,.47-2.47,.47-1.01,0-1.92-.18-2.72-.54s-1.49-.85-2.06-1.45-1-1.32-1.3-2.13-.45-1.66-.45-2.55,.16-1.72,.47-2.51c.31-.79,.76-1.48,1.33-2.08s1.26-1.07,2.05-1.41c.8-.34,1.67-.52,2.62-.52Z"/><path class="cls-2" d="M179.82,47.06h2.3v12.57h-2.3v-12.57Z"/><path class="cls-2" d="M184.65,53.33c0-.93,.17-1.8,.5-2.6,.34-.8,.79-1.49,1.36-2.08,.57-.59,1.24-1.05,2-1.39,.76-.34,1.57-.51,2.42-.51s1.62,.17,2.38,.5c.76,.33,1.42,.79,2,1.38,.58,.59,1.04,1.29,1.38,2.1,.34,.81,.51,1.7,.51,2.65s-.16,1.78-.49,2.58c-.32,.8-.77,1.49-1.33,2.07-.56,.58-1.22,1.05-1.98,1.38-.76,.34-1.57,.51-2.44,.51s-1.73-.17-2.5-.52-1.43-.81-2-1.41c-.57-.6-1.01-1.3-1.34-2.1-.33-.8-.49-1.66-.49-2.57Zm2.32,.05c0,.64,.11,1.22,.32,1.74,.21,.52,.5,.97,.87,1.34s.79,.66,1.27,.87c.48,.2,.99,.31,1.53,.31s1.06-.11,1.54-.33c.48-.22,.89-.53,1.24-.91,.35-.39,.63-.84,.84-1.36,.21-.52,.31-1.08,.31-1.67s-.1-1.14-.29-1.66c-.2-.52-.47-.98-.82-1.37s-.77-.71-1.26-.95c-.49-.23-1.02-.35-1.59-.35-.54,0-1.05,.11-1.53,.32-.48,.21-.9,.5-1.26,.88-.36,.38-.64,.83-.85,1.37-.21,.53-.31,1.12-.31,1.78Z"/><path class="cls-2" d="M199.72,59.63v-12.57h2.2l5.18,8.25v-8.25h2.3v12.57h-2.22l-5.16-8.23v8.23h-2.3Z"/><path class="cls-2" d="M212.58,59.63v-12.57h6.59v2.33h-4.29v2.29h4.29v2.28h-4.29v3.33h4.29v2.35h-6.59Z"/><path class="cls-2" d="M226.61,47.06h3.03c.65,0,1.23,.07,1.75,.21,.52,.14,.95,.36,1.31,.66,.36,.3,.63,.68,.82,1.14,.19,.46,.29,1.01,.29,1.64,0,.58-.1,1.1-.3,1.55-.2,.45-.48,.83-.84,1.13-.36,.3-.79,.53-1.29,.69-.5,.16-1.05,.24-1.64,.24h-.82v5.32h-2.3v-12.57Zm2.3,2.35v2.57h1.08c1.04,0,1.56-.43,1.56-1.28s-.55-1.3-1.66-1.3h-.98Z"/><path class="cls-2" d="M235.87,47.06h2.3v12.57h-2.3v-12.57Z"/><path class="cls-2" d="M241.34,59.63v-12.57h6.59v2.33h-4.29v2.29h4.29v2.28h-4.29v3.33h4.29v2.35h-6.59Z"/><path class="cls-2" d="M249.8,59.63l2.08-12.57h2.25l2.79,8.79c.02-.08,.05-.16,.08-.24s.05-.16,.08-.25l2.67-8.3h2.22l2.03,12.57h-2.22l-1.29-7.97c-.03,.11-.07,.21-.1,.31s-.07,.2-.1,.31l-2.37,7.35h-2.02l-2.54-7.97c-.02,.11-.04,.21-.05,.31-.01,.1-.03,.2-.05,.31l-1.23,7.35h-2.24Z"/><path class="cls-2" d="M265.5,53.33c0-.93,.17-1.8,.5-2.6,.34-.8,.79-1.49,1.36-2.08,.57-.59,1.24-1.05,2-1.39,.76-.34,1.57-.51,2.42-.51s1.62,.17,2.38,.5c.76,.33,1.42,.79,2,1.38,.58,.59,1.04,1.29,1.38,2.1,.34,.81,.51,1.7,.51,2.65s-.16,1.78-.49,2.58c-.32,.8-.77,1.49-1.33,2.07-.56,.58-1.22,1.05-1.98,1.38-.76,.34-1.57,.51-2.44,.51s-1.73-.17-2.5-.52-1.43-.81-2-1.41c-.57-.6-1.01-1.3-1.34-2.1-.33-.8-.49-1.66-.49-2.57Zm2.32,.05c0,.64,.11,1.22,.32,1.74,.21,.52,.5,.97,.87,1.34s.79,.66,1.27,.87c.48,.2,.99,.31,1.53,.31s1.06-.11,1.54-.33c.48-.22,.89-.53,1.24-.91,.35-.39,.63-.84,.84-1.36,.21-.52,.31-1.08,.31-1.67s-.1-1.14-.29-1.66c-.2-.52-.47-.98-.82-1.37s-.77-.71-1.26-.95c-.49-.23-1.02-.35-1.59-.35-.54,0-1.05,.11-1.53,.32-.48,.21-.9,.5-1.26,.88-.36,.38-.64,.83-.85,1.37-.21,.53-.31,1.12-.31,1.78Z"/><path class="cls-2" d="M280.58,59.63v-12.57h2.2l5.18,8.25v-8.25h2.3v12.57h-2.22l-5.16-8.23v8.23h-2.3Z"/><path class="cls-2" d="M292.13,47.06h6.67v2.35h-2.22v10.23h-2.3v-10.23h-2.15v-2.35Z"/><path class="cls-2" d="M300.68,59.63v-12.57h6.59v2.33h-4.29v2.29h4.29v2.28h-4.29v3.33h4.29v2.35h-6.59Z"/></g><g><path class="cls-2" d="M116.08,62.5h2.32l4.66,12.57h-2.39l-.92-2.59h-5.01l-.92,2.59h-2.39l4.66-12.57Zm-.49,7.63h3.31l-1.66-4.62-1.65,4.62Z"/><path class="cls-2" d="M130.01,62.2c.59,0,1.14,.05,1.64,.16s.96,.26,1.38,.46c.42,.2,.81,.45,1.17,.74,.36,.29,.7,.62,1.03,.99l-1.61,1.66c-.52-.56-1.06-.99-1.64-1.28-.58-.29-1.22-.44-1.94-.44-.61,0-1.16,.11-1.67,.34-.51,.23-.95,.53-1.32,.92-.37,.39-.66,.84-.87,1.35-.21,.51-.31,1.06-.31,1.65s.11,1.18,.34,1.71c.22,.53,.53,.99,.92,1.38s.84,.7,1.37,.92c.53,.22,1.09,.33,1.7,.33,.81,0,1.48-.17,2.02-.52,.54-.34,.97-.88,1.29-1.62h-3.5v-2.28h6.09v.02c0,1.02-.14,1.93-.43,2.76-.29,.82-.69,1.53-1.21,2.11-.52,.58-1.15,1.03-1.89,1.35-.74,.32-1.56,.47-2.47,.47-1.01,0-1.92-.18-2.72-.54s-1.49-.85-2.06-1.45-1-1.32-1.3-2.13-.45-1.66-.45-2.55,.16-1.72,.47-2.51c.31-.79,.76-1.48,1.33-2.08s1.26-1.07,2.05-1.41c.8-.34,1.67-.52,2.62-.52Z"/><path class="cls-2" d="M138.25,75.07v-12.57h6.59v2.33h-4.29v2.29h4.29v2.28h-4.29v3.33h4.29v2.35h-6.59Z"/><path class="cls-2" d="M147.41,75.07v-12.57h2.2l5.18,8.25v-8.25h2.3v12.57h-2.22l-5.16-8.23v8.23h-2.3Z"/><path class="cls-2" d="M163.29,64.85h-3.93v-2.35h7.3l-4.3,10.3h4.03v2.28h-7.38l4.29-10.23Z"/><path class="cls-2" d="M168.53,62.5h2.3v12.57h-2.3v-12.57Z"/><path class="cls-2" d="M177.03,62.5h2.32l4.66,12.57h-2.39l-.92-2.59h-5.01l-.92,2.59h-2.39l4.66-12.57Zm-.49,7.63h3.31l-1.66-4.62-1.65,4.62Z"/><path class="cls-2" d="M190.22,62.5h3.03c.65,0,1.23,.07,1.75,.21,.52,.14,.95,.36,1.31,.66,.36,.3,.63,.68,.82,1.14,.19,.46,.29,1.01,.29,1.64,0,.58-.1,1.1-.3,1.55-.2,.45-.48,.83-.84,1.13-.36,.3-.79,.53-1.29,.69-.5,.16-1.05,.24-1.64,.24h-.82v5.32h-2.3v-12.57Zm2.3,2.35v2.57h1.08c1.04,0,1.56-.43,1.56-1.28s-.55-1.3-1.66-1.3h-.98Z"/><path class="cls-2" d="M199.25,62.5h2.3v12.57h-2.3v-12.57Z"/><path class="cls-2" d="M204.48,75.07v-12.57h6.59v2.33h-4.29v2.29h4.29v2.28h-4.29v3.33h4.29v2.35h-6.59Z"/><path class="cls-2" d="M212.7,75.07l2.08-12.57h2.25l2.79,8.79c.02-.08,.05-.16,.08-.24s.05-.16,.08-.25l2.67-8.3h2.22l2.03,12.57h-2.22l-1.29-7.97c-.03,.11-.07,.21-.1,.31s-.07,.2-.1,.31l-2.37,7.35h-2.02l-2.54-7.97c-.02,.11-.04,.21-.05,.31-.01,.1-.03,.2-.05,.31l-1.23,7.35h-2.24Z"/><path class="cls-2" d="M228.17,68.77c0-.93,.17-1.8,.5-2.6,.34-.8,.79-1.49,1.36-2.08,.57-.59,1.24-1.05,2-1.39,.76-.34,1.57-.51,2.42-.51s1.62,.17,2.38,.5c.76,.33,1.42,.79,2,1.38,.58,.59,1.04,1.29,1.38,2.1,.34,.81,.51,1.7,.51,2.65s-.16,1.78-.49,2.58c-.32,.8-.77,1.49-1.33,2.07-.56,.58-1.22,1.05-1.98,1.38-.76,.34-1.57,.51-2.44,.51s-1.73-.17-2.5-.52-1.43-.81-2-1.41c-.57-.6-1.01-1.3-1.34-2.1-.33-.8-.49-1.66-.49-2.57Zm2.32,.05c0,.64,.11,1.22,.32,1.74,.21,.52,.5,.97,.87,1.34s.79,.66,1.27,.87c.48,.2,.99,.31,1.53,.31s1.06-.11,1.54-.33c.48-.22,.89-.53,1.24-.91,.35-.39,.63-.84,.84-1.36,.21-.52,.31-1.08,.31-1.67s-.1-1.14-.29-1.66c-.2-.52-.47-.98-.82-1.37s-.77-.71-1.26-.95c-.49-.23-1.02-.35-1.59-.35-.54,0-1.05,.11-1.53,.32-.48,.21-.9,.5-1.26,.88-.36,.38-.64,.83-.85,1.37-.21,.53-.31,1.12-.31,1.78Z"/><path class="cls-2" d="M243.02,75.07v-12.57h2.2l5.18,8.25v-8.25h2.3v12.57h-2.22l-5.16-8.23v8.23h-2.3Z"/><path class="cls-2" d="M254.33,62.5h6.67v2.35h-2.22v10.23h-2.3v-10.23h-2.15v-2.35Z"/><path class="cls-2" d="M262.64,75.07v-12.57h6.59v2.33h-4.29v2.29h4.29v2.28h-4.29v3.33h4.29v2.35h-6.59Z"/><path class="cls-2" d="M278.51,62.5v10.3h3.35v2.28h-5.65v-12.57h2.3Z"/><path class="cls-2" d="M287.53,62.5h2.32l4.66,12.57h-2.39l-.92-2.59h-5.01l-.92,2.59h-2.39l4.66-12.57Zm-.49,7.63h3.31l-1.66-4.62-1.65,4.62Z"/><path class="cls-2" d="M294.1,62.5h2.37l3.03,8.93,3.09-8.93h2.35l-4.35,12.57h-2.2l-4.29-12.57Z"/><path class="cls-2" d="M305.64,68.77c0-.93,.17-1.8,.5-2.6,.34-.8,.79-1.49,1.36-2.08,.57-.59,1.24-1.05,2-1.39,.76-.34,1.57-.51,2.42-.51s1.62,.17,2.38,.5c.76,.33,1.42,.79,2,1.38,.58,.59,1.04,1.29,1.38,2.1,.34,.81,.51,1.7,.51,2.65s-.16,1.78-.49,2.58c-.32,.8-.77,1.49-1.33,2.07-.56,.58-1.22,1.05-1.98,1.38-.76,.34-1.57,.51-2.44,.51s-1.73-.17-2.5-.52-1.43-.81-2-1.41c-.57-.6-1.01-1.3-1.34-2.1-.33-.8-.49-1.66-.49-2.57Zm2.32,.05c0,.64,.11,1.22,.32,1.74,.21,.52,.5,.97,.87,1.34s.79,.66,1.27,.87c.48,.2,.99,.31,1.53,.31s1.06-.11,1.54-.33c.48-.22,.89-.53,1.24-.91,.35-.39,.63-.84,.84-1.36,.21-.52,.31-1.08,.31-1.67s-.1-1.14-.29-1.66c-.2-.52-.47-.98-.82-1.37s-.77-.71-1.26-.95c-.49-.23-1.02-.35-1.59-.35-.54,0-1.05,.11-1.53,.32-.48,.21-.9,.5-1.26,.88-.36,.38-.64,.83-.85,1.37-.21,.53-.31,1.12-.31,1.78Z"/><path class="cls-2" d="M323.58,62.5c1.27,0,2.27,.3,3,.89,.73,.59,1.1,1.51,1.1,2.75,0,1.65-.77,2.76-2.32,3.34l2.86,5.59h-2.5l-2.71-5.32h-.22v5.32h-2.3v-12.57h3.09Zm-.79,4.92h1.06c1.05,0,1.58-.43,1.58-1.3s-.55-1.28-1.65-1.28h-.99v2.57Z"/><path class="cls-2" d="M329.38,68.77c0-.93,.17-1.8,.5-2.6,.34-.8,.79-1.49,1.36-2.08,.57-.59,1.24-1.05,2-1.39,.76-.34,1.57-.51,2.42-.51s1.62,.17,2.38,.5c.76,.33,1.42,.79,2,1.38,.58,.59,1.04,1.29,1.38,2.1,.34,.81,.51,1.7,.51,2.65s-.16,1.78-.49,2.58c-.32,.8-.77,1.49-1.33,2.07-.56,.58-1.22,1.05-1.98,1.38-.76,.34-1.57,.51-2.44,.51s-1.73-.17-2.5-.52-1.43-.81-2-1.41c-.57-.6-1.01-1.3-1.34-2.1-.33-.8-.49-1.66-.49-2.57Zm2.32,.05c0,.64,.11,1.22,.32,1.74,.21,.52,.5,.97,.87,1.34s.79,.66,1.27,.87c.48,.2,.99,.31,1.53,.31s1.06-.11,1.54-.33c.48-.22,.89-.53,1.24-.91,.35-.39,.63-.84,.84-1.36,.21-.52,.31-1.08,.31-1.67s-.1-1.14-.29-1.66c-.2-.52-.47-.98-.82-1.37s-.77-.71-1.26-.95c-.49-.23-1.02-.35-1.59-.35-.54,0-1.05,.11-1.53,.32-.48,.21-.9,.5-1.26,.88-.36,.38-.64,.83-.85,1.37-.21,.53-.31,1.12-.31,1.78Z"/></g><g><path class="cls-1" d="M136.89,84.03c0-.99,.17-1.89,.51-2.71,.34-.81,.81-1.5,1.4-2.08,.59-.57,1.27-1.02,2.05-1.33,.78-.32,1.6-.47,2.46-.47,.99,0,1.93,.22,2.84,.66,.91,.44,1.69,1.06,2.35,1.87l-1.61,1.61c-.54-.61-1.1-1.07-1.7-1.37-.59-.31-1.24-.46-1.93-.46-.57,0-1.11,.11-1.61,.32s-.93,.51-1.3,.89c-.37,.38-.66,.83-.88,1.36-.22,.53-.33,1.1-.33,1.72s.11,1.23,.32,1.77c.21,.54,.5,.99,.87,1.37s.81,.67,1.32,.88,1.06,.32,1.66,.32c.75,0,1.4-.16,1.96-.46s1.12-.76,1.69-1.36l1.56,1.7c-.4,.41-.8,.76-1.18,1.07-.38,.3-.78,.55-1.19,.75-.41,.2-.85,.35-1.32,.45-.47,.1-.98,.15-1.56,.15-.94,0-1.8-.16-2.59-.49-.78-.33-1.46-.78-2.03-1.37-.57-.58-1-1.28-1.31-2.09-.31-.81-.46-1.7-.46-2.67Z"/><path class="cls-1" d="M150.85,90.33v-12.57h6.59v2.33h-4.29v2.29h4.29v2.28h-4.29v3.33h4.29v2.35h-6.59Z"/><path class="cls-1" d="M160.33,90.33v-12.57h2.2l5.18,8.25v-8.25h2.3v12.57h-2.22l-5.16-8.23v8.23h-2.3Z"/><path class="cls-1" d="M171.96,77.76h6.67v2.35h-2.22v10.23h-2.3v-10.23h-2.15v-2.35Z"/><path class="cls-1" d="M183.68,77.76c1.27,0,2.27,.3,3,.89,.73,.59,1.1,1.51,1.1,2.75,0,1.65-.77,2.76-2.32,3.34l2.86,5.59h-2.5l-2.71-5.32h-.22v5.32h-2.3v-12.57h3.09Zm-.79,4.92h1.06c1.05,0,1.58-.43,1.58-1.3s-.55-1.28-1.65-1.28h-.99v2.57Z"/><path class="cls-1" d="M190.64,77.76h2.3v12.57h-2.3v-12.57Z"/><path class="cls-1" d="M201.18,77.76h3.03c.65,0,1.23,.07,1.75,.21,.52,.14,.95,.36,1.31,.66,.36,.3,.63,.68,.82,1.14,.19,.46,.29,1.01,.29,1.64,0,.58-.1,1.1-.3,1.55-.2,.45-.48,.83-.84,1.13-.36,.3-.79,.53-1.29,.69-.5,.16-1.05,.24-1.64,.24h-.82v5.32h-2.3v-12.57Zm2.3,2.35v2.57h1.08c1.04,0,1.56-.43,1.56-1.28s-.55-1.3-1.66-1.3h-.98Z"/><path class="cls-1" d="M210.48,90.33v-12.57h6.59v2.33h-4.29v2.29h4.29v2.28h-4.29v3.33h4.29v2.35h-6.59Z"/><path class="cls-1" d="M223.05,77.76c1.27,0,2.27,.3,3,.89,.73,.59,1.1,1.51,1.1,2.75,0,1.65-.77,2.76-2.32,3.34l2.86,5.59h-2.5l-2.71-5.32h-.22v5.32h-2.3v-12.57h3.09Zm-.79,4.92h1.06c1.05,0,1.58-.43,1.58-1.3s-.55-1.28-1.65-1.28h-.99v2.57Z"/><path class="cls-1" d="M237.34,77.76v10.3h3.35v2.28h-5.65v-12.57h2.3Z"/><path class="cls-1" d="M241.37,77.44h2.07v1.17c0,.39-.02,.74-.07,1.05s-.11,.62-.2,.9c-.09,.29-.21,.56-.36,.83-.15,.27-.33,.54-.53,.82l-.81-.65c.26-.4,.43-.73,.51-1s.15-.5,.21-.7h-.82v-2.43Z"/><path class="cls-1" d="M246.43,77.76h2.3v12.57h-2.3v-12.57Z"/><path class="cls-1" d="M251.1,90.33l2.08-12.57h2.25l2.79,8.79c.02-.08,.05-.16,.08-.24s.05-.16,.08-.25l2.67-8.3h2.22l2.03,12.57h-2.22l-1.29-7.97c-.03,.11-.07,.21-.1,.31s-.07,.2-.1,.31l-2.37,7.35h-2.02l-2.54-7.97c-.02,.11-.04,.21-.05,.31-.01,.1-.03,.2-.05,.31l-1.23,7.35h-2.24Z"/><path class="cls-1" d="M267.7,77.76h3.03c.65,0,1.23,.07,1.75,.21,.52,.14,.95,.36,1.31,.66,.36,.3,.63,.68,.82,1.14,.19,.46,.29,1.01,.29,1.64,0,.58-.1,1.1-.3,1.55-.2,.45-.48,.83-.84,1.13-.36,.3-.79,.53-1.29,.69-.5,.16-1.05,.24-1.64,.24h-.82v5.32h-2.3v-12.57Zm2.3,2.35v2.57h1.08c1.04,0,1.56-.43,1.56-1.28s-.55-1.3-1.66-1.3h-.98Z"/><path class="cls-1" d="M277.04,77.76h2.3v12.57h-2.3v-12.57Z"/><path class="cls-1" d="M282.59,90.33v-12.57h6.59v2.33h-4.29v2.29h4.29v2.28h-4.29v3.33h4.29v2.35h-6.59Z"/><path class="cls-1" d="M297.84,77.46c.59,0,1.14,.05,1.64,.16s.96,.26,1.38,.46c.42,.2,.81,.45,1.17,.74,.36,.29,.7,.62,1.03,.99l-1.61,1.66c-.52-.56-1.06-.99-1.64-1.28-.58-.29-1.22-.44-1.94-.44-.61,0-1.16,.11-1.67,.34-.51,.23-.95,.53-1.32,.92-.37,.39-.66,.84-.87,1.35-.21,.51-.31,1.06-.31,1.65s.11,1.18,.34,1.71c.22,.53,.53,.99,.92,1.38s.84,.7,1.37,.92c.53,.22,1.09,.33,1.7,.33,.81,0,1.48-.17,2.02-.52,.54-.34,.97-.88,1.29-1.62h-3.5v-2.28h6.09v.02c0,1.02-.14,1.93-.43,2.76-.29,.82-.69,1.53-1.21,2.11-.52,.58-1.15,1.03-1.89,1.35-.74,.32-1.56,.47-2.47,.47-1.01,0-1.92-.18-2.72-.54s-1.49-.85-2.06-1.45-1-1.32-1.3-2.13-.45-1.66-.45-2.55,.16-1.72,.47-2.51c.31-.79,.76-1.48,1.33-2.08s1.26-1.07,2.05-1.41c.8-.34,1.67-.52,2.62-.52Z"/><path class="cls-1" d="M305.84,84.03c0-.93,.17-1.8,.5-2.6,.34-.8,.79-1.49,1.36-2.08,.57-.59,1.24-1.05,2-1.39,.76-.34,1.57-.51,2.42-.51s1.62,.17,2.38,.5c.76,.33,1.42,.79,2,1.38,.58,.59,1.04,1.29,1.38,2.1,.34,.81,.51,1.7,.51,2.65s-.16,1.78-.49,2.58c-.32,.8-.77,1.49-1.33,2.07-.56,.58-1.22,1.05-1.98,1.38-.76,.34-1.57,.51-2.44,.51s-1.73-.17-2.5-.52-1.43-.81-2-1.41c-.57-.6-1.01-1.3-1.34-2.1-.33-.8-.49-1.66-.49-2.57Zm2.32,.05c0,.64,.11,1.22,.32,1.74,.21,.52,.5,.97,.87,1.34s.79,.66,1.27,.87c.48,.2,.99,.31,1.53,.31s1.06-.11,1.54-.33c.48-.22,.89-.53,1.24-.91,.35-.39,.63-.84,.84-1.36,.21-.52,.31-1.08,.31-1.67s-.1-1.14-.29-1.66c-.2-.52-.47-.98-.82-1.37s-.77-.71-1.26-.95c-.49-.23-1.02-.35-1.59-.35-.54,0-1.05,.11-1.53,.32-.48,.21-.9,.5-1.26,.88-.36,.38-.64,.83-.85,1.37-.21,.53-.31,1.12-.31,1.78Z"/></g></g></g></g></svg>