<svg xmlns="http://www.w3.org/2000/svg" width="211" height="67.777" viewBox="0 0 211 67.777"><defs><style>.a{fill:#fff;}</style></defs><g transform="translate(-4.83 -10.457)"><g transform="translate(86.425 67.747)"><path class="a" d="M27.563,21.291l-2.9,7.649Q23.707,31.5,21.489,31.6l-.117-.833a3.3,3.3,0,0,0,1.331-.737,3.383,3.383,0,0,0,.78-1.183l.122-.313h-.286a.415.415,0,0,1-.446-.324l-2.631-6.922H21.6l1.92,5.4a8.418,8.418,0,0,1,.265.875h.212c.08-.2.18-.493.313-.875l1.888-5.4Z" transform="translate(-20.243 -21.116)"/><path class="a" d="M25.241,21.258a3.412,3.412,0,0,1,2.641.859,4.463,4.463,0,0,1,.764,2.949,4.437,4.437,0,0,1-.764,2.944,3.393,3.393,0,0,1-2.641.865A3.4,3.4,0,0,1,22.6,28.01a4.4,4.4,0,0,1-.774-2.944,4.428,4.428,0,0,1,.774-2.949A3.422,3.422,0,0,1,25.241,21.258Zm1.644,1.65a1.985,1.985,0,0,0-1.644-.578,1.959,1.959,0,0,0-1.639.578,3.745,3.745,0,0,0-.446,2.159A3.713,3.713,0,0,0,23.6,27.22a1.96,1.96,0,0,0,1.639.583,1.986,1.986,0,0,0,1.644-.583,3.664,3.664,0,0,0,.451-2.153A3.7,3.7,0,0,0,26.885,22.908Z" transform="translate(-13.412 -21.258)"/><path class="a" d="M29.686,21.291v7.246H28.673l-.09-1.04a5.271,5.271,0,0,1-3.124,1.236,1.754,1.754,0,0,1-1.978-1.994V21.291h1.262v5.092a1.326,1.326,0,0,0,.255.965,1.182,1.182,0,0,0,.891.281,2.788,2.788,0,0,0,1.119-.244,10.23,10.23,0,0,0,1.411-.8v-5.3Z" transform="translate(-6.31 -21.116)"/><path class="a" d="M29.627,21.258l-.149,1.188H29.06a3.3,3.3,0,0,0-1.135.217,15.439,15.439,0,0,0-1.57.705v5.309H25.087V21.433h.981l.138,1.146A5.164,5.164,0,0,1,29.3,21.258Z" transform="translate(0.606 -21.258)"/></g><g transform="translate(120.6 64.756)"><path class="a" d="M33.219,20.694V31.106h-.981l-.122-1.04a4.308,4.308,0,0,1-2.87,1.22,2.13,2.13,0,0,1-1.941-.944,5.443,5.443,0,0,1-.6-2.88,4.906,4.906,0,0,1,.658-2.923,2.443,2.443,0,0,1,2.079-.854,5.076,5.076,0,0,1,2.578.668c-.042-.435-.058-.912-.058-1.427V20.694Zm-1.262,8.5v-4a8.76,8.76,0,0,0-2.217-.4,1.551,1.551,0,0,0-1.358.552,4.013,4.013,0,0,0-.387,2.111,4.263,4.263,0,0,0,.382,2.153,1.41,1.41,0,0,0,1.289.583,2.39,2.39,0,0,0,1.024-.212A9.089,9.089,0,0,0,31.956,29.191Z" transform="translate(-26.7 -20.694)"/><path class="a" d="M28.756,20.711h.594a.341.341,0,0,1,.387.387v.849a.339.339,0,0,1-.387.382h-.594a.341.341,0,0,1-.387-.382V21.1A.343.343,0,0,1,28.756,20.711Zm.923,10.322H28.433V23.787h1.246Z" transform="translate(-19.516 -20.621)"/><path class="a" d="M36.254,22.133l-1.071.09a2.6,2.6,0,0,1,.3,1.337,2.094,2.094,0,0,1-.7,1.766,4.039,4.039,0,0,1-2.408.541,6.9,6.9,0,0,1-1.506-.149.784.784,0,0,0-.159.753.732.732,0,0,0,.668.5l2.705.43a2.255,2.255,0,0,1,1.422.631,2.122,2.122,0,0,1,.408,1.411,1.949,1.949,0,0,1-.748,1.756,5.334,5.334,0,0,1-2.7.488A5.474,5.474,0,0,1,29.73,31.2a1.867,1.867,0,0,1-.769-1.719,1.775,1.775,0,0,1,.271-1.029,2.5,2.5,0,0,1,.907-.727,1.283,1.283,0,0,1-.509-1.146A1.458,1.458,0,0,1,30.2,25.47a1.947,1.947,0,0,1-.923-1.894,2.113,2.113,0,0,1,.695-1.782,4.03,4.03,0,0,1,2.413-.536,6.713,6.713,0,0,1,1.687.175h2.26Zm-2.827,6.206-2.472-.345a1.71,1.71,0,0,0-.758,1.384,1.023,1.023,0,0,0,.446,1,4.42,4.42,0,0,0,1.8.239,4.254,4.254,0,0,0,1.777-.244,1.022,1.022,0,0,0,.451-.992.916.916,0,0,0-.228-.727A2.338,2.338,0,0,0,33.427,28.339Zm-2.562-3.745a2.706,2.706,0,0,0,1.506.308,2.685,2.685,0,0,0,1.5-.308,1.176,1.176,0,0,0,.43-1.034,1.187,1.187,0,0,0-.424-1.034,2.724,2.724,0,0,0-1.506-.3,2.761,2.761,0,0,0-1.506.3,1.189,1.189,0,0,0-.43,1.034A1.176,1.176,0,0,0,30.865,24.594Z" transform="translate(-16.968 -18.266)"/><path class="a" d="M31.017,20.711h.594A.341.341,0,0,1,32,21.1v.849a.339.339,0,0,1-.387.382h-.594a.341.341,0,0,1-.387-.382V21.1A.343.343,0,0,1,31.017,20.711Zm.923,10.322H30.688V23.787H31.94Z" transform="translate(-9.785 -20.621)"/><path class="a" d="M33.756,24.027v4.259a1.027,1.027,0,0,0,.223.743,1.054,1.054,0,0,0,.759.223h1.1l.149.965a5.929,5.929,0,0,1-1.639.2,1.786,1.786,0,0,1-1.379-.509,2.039,2.039,0,0,1-.477-1.459V24.027h-1.31V23.1l1.31-.058V20.887h1.262V23.03h2.307v1Z" transform="translate(-7.404 -19.863)"/><path class="a" d="M32.765,22.52l-.117-.939a21.917,21.917,0,0,1,3.5-.324,2.808,2.808,0,0,1,1.872.525,2.267,2.267,0,0,1,.615,1.793v5.1h-1L37.48,27.49a5.115,5.115,0,0,1-1.3.923,3.662,3.662,0,0,1-1.687.4,2.266,2.266,0,0,1-1.586-.53,1.9,1.9,0,0,1-.589-1.5v-.785a1.665,1.665,0,0,1,.53-1.321,2.144,2.144,0,0,1,1.48-.467h3.018v-.642a1.235,1.235,0,0,0-.313-.965,1.743,1.743,0,0,0-1.156-.281Q34.8,22.329,32.765,22.52Zm.849,3.66v.461a1.11,1.11,0,0,0,.271.827,1.181,1.181,0,0,0,.859.26,3.306,3.306,0,0,0,1.289-.271,4.166,4.166,0,0,0,1.315-.817V25.183h-2.8a.936.936,0,0,0-.721.271A1.081,1.081,0,0,0,33.613,26.18Z" transform="translate(-2.515 -18.266)"/></g><g transform="translate(158.964 64.756)"><path class="a" d="M35.2,20.694v8.423a.919.919,0,0,0,.239.721,1.052,1.052,0,0,0,.743.244h.7l.149.965a3.181,3.181,0,0,1-1.321.2,1.741,1.741,0,0,1-1.294-.483,1.864,1.864,0,0,1-.477-1.363v-8.7Z" transform="translate(-33.938 -20.694)"/></g><g transform="translate(166.226 65.78)"><path class="a" d="M36.364,21.433l.106,1.162a4.122,4.122,0,0,1,1.395-.981,3.991,3.991,0,0,1,1.607-.355,2.06,2.06,0,0,1,1.888.949,5.534,5.534,0,0,1,.6,2.885A4.89,4.89,0,0,1,41.3,28a2.457,2.457,0,0,1-2.079.854,5.165,5.165,0,0,1-2.679-.743c.027.334.042.822.042,1.459v2.1H35.324V21.433Zm.223,2.042V27.31a9.027,9.027,0,0,0,2.323.446,1.564,1.564,0,0,0,1.368-.546,4.023,4.023,0,0,0,.387-2.116,4.442,4.442,0,0,0-.366-2.127,1.337,1.337,0,0,0-1.241-.61,2.7,2.7,0,0,0-1.124.26A8.006,8.006,0,0,0,36.586,23.475Z" transform="translate(-35.324 -19.29)"/><path class="a" d="M37.321,22.52l-.117-.939a21.917,21.917,0,0,1,3.5-.324,2.808,2.808,0,0,1,1.872.525,2.266,2.266,0,0,1,.61,1.793v5.1h-1l-.149-1.188a5.115,5.115,0,0,1-1.3.923,3.684,3.684,0,0,1-1.692.4,2.252,2.252,0,0,1-1.581-.53,1.9,1.9,0,0,1-.589-1.5v-.785a1.68,1.68,0,0,1,.525-1.321,2.163,2.163,0,0,1,1.48-.467H41.9v-.642a1.255,1.255,0,0,0-.313-.965,1.75,1.75,0,0,0-1.162-.281C39.718,22.329,38.678,22.393,37.321,22.52Zm.849,3.66v.461a1.131,1.131,0,0,0,.265.827,1.2,1.2,0,0,0,.865.26,3.306,3.306,0,0,0,1.289-.271,4.227,4.227,0,0,0,1.315-.817V25.183h-2.8a.957.957,0,0,0-.727.271A1.08,1.08,0,0,0,38.169,26.18Z" transform="translate(-28.648 -19.29)"/><path class="a" d="M43.026,21.258l-.149,1.188h-.414a3.309,3.309,0,0,0-1.14.217,15.439,15.439,0,0,0-1.57.705v5.309H38.491V21.433h.981l.133,1.146A5.176,5.176,0,0,1,42.7,21.258Z" transform="translate(-21.693 -19.29)"/><path class="a" d="M42.05,24.027v4.259a1.027,1.027,0,0,0,.223.743,1.054,1.054,0,0,0,.759.223h1.1l.149.965a5.915,5.915,0,0,1-1.634.2,1.806,1.806,0,0,1-1.384-.509,2.039,2.039,0,0,1-.477-1.459V24.027h-1.31V23.1l1.31-.058V20.887H42.05V23.03h2.3v1Z" transform="translate(-17.47 -20.887)"/><path class="a" d="M41.755,21.433l.09,1.146a5.557,5.557,0,0,1,3.246-1.321,1.75,1.75,0,0,1,1.963,1.994v5.426H45.787V23.608a1.606,1.606,0,0,0-.233-1,1,1,0,0,0-.806-.281,2.9,2.9,0,0,0-1.2.265,15.174,15.174,0,0,0-1.6.88v5.2H40.684V21.433Z" transform="translate(-12.254 -19.29)"/><path class="a" d="M46.962,25.676H43.584a2.458,2.458,0,0,0,.61,1.681,2.6,2.6,0,0,0,1.681.43,17.756,17.756,0,0,0,2.514-.18l.138.849a7.613,7.613,0,0,1-2.817.4,3.49,3.49,0,0,1-2.668-.87,4.349,4.349,0,0,1-.8-2.954,4.319,4.319,0,0,1,.774-2.939,3.353,3.353,0,0,1,2.557-.838,3.846,3.846,0,0,1,2.366.583,2.126,2.126,0,0,1,.743,1.782Q48.718,25.676,46.962,25.676ZM43.568,24.7h3.066c.525,0,.79-.361.79-1.071a1.186,1.186,0,0,0-.419-1,2.333,2.333,0,0,0-1.368-.3,2.063,2.063,0,0,0-1.591.5A2.977,2.977,0,0,0,43.568,24.7Z" transform="translate(-5.526 -19.29)"/><path class="a" d="M48.36,21.258l-.149,1.188h-.419a3.3,3.3,0,0,0-1.135.217,15.44,15.44,0,0,0-1.57.705v5.309H43.82V21.433h.987l.133,1.146a5.177,5.177,0,0,1,3.092-1.321Z" transform="translate(1.244 -19.29)"/></g><g transform="translate(84.703 24.916)"><path class="a" d="M44.353,41.857l.557,4.54A38.549,38.549,0,0,1,34.164,47.65q-7.861,0-11.054-3.861T19.917,30.416q0-9.508,3.193-13.372t11.054-3.861A41.325,41.325,0,0,1,44.2,14.244l-.61,4.588q-4.408-.342-9.425-.339-4.36,0-5.957,2.535t-1.6,9.388q0,6.85,1.6,9.388t5.957,2.535a83.7,83.7,0,0,0,10.189-.483" transform="translate(-19.917 -13.183)"/></g><g transform="translate(112.107 24.916)"><path class="a" d="M39.186,33.89l-7.044-2.122a9.8,9.8,0,0,1-5.426-3.5,10.6,10.6,0,0,1-1.623-6.158q0-5.45,2.663-7.192t9.351-1.734a47.011,47.011,0,0,1,11,1.109l-.4,4.3Q41.92,18.4,37.314,18.4a11.075,11.075,0,0,0-4.668.647q-1.162.652-1.162,3.167a4.08,4.08,0,0,0,.833,2.917,7.5,7.5,0,0,0,3.066,1.522l6.747,1.978q4,1.209,5.6,3.548a10.717,10.717,0,0,1,1.6,6.158q0,5.5-2.742,7.41t-9.68,1.9a60.269,60.269,0,0,1-11.34-1.257l.562-4.524c5.877.26,9.441.472,10.932.472q3.493,0,4.662-.774t1.167-3.283a4.266,4.266,0,0,0-.785-2.944,6.8,6.8,0,0,0-2.917-1.448" transform="translate(-25.093 -13.183)"/></g><g transform="translate(139.955 25.493)"><rect class="a" width="6.337" height="33.31"/></g><g transform="translate(4.83 10.457)"><path class="a" d="M43.634,74.569c-3.013,0-5.744-.923-6.354-2.2a1.746,1.746,0,0,1,.636-2.413c.424-.355,7.611-4.731,10.455-6.445.716-.43,1.1-.875,1.114-1.289a1.325,1.325,0,0,0-.573-.928C44.117,58.412,32.8,51.071,31.6,45.221c-1.071-5.2,12.91-14.141,25.211-21.344.886-.515,1.612-.944,2.138-1.262h0a10.415,10.415,0,0,1,5.294-1.692c4.615,0,6.906,4.323,7.214,5.893.419,2.127.854,4.328-1.957,6.927-.4.377-2.944,2.281-5.888,4.482-3.5,2.62-7.861,5.877-8.312,6.365-.4.435-.652.711-.642.934s.265.541.78.987c.414.366.9.785,1.437,1.241,2.8,2.387,7.028,6,9.436,9.075a5.082,5.082,0,0,1,1.013,2.7,4.03,4.03,0,0,1-.509,2.159c-2.71,4.8-15.249,10.905-18.867,12.189A13.092,13.092,0,0,1,43.634,74.569Zm15.69-51.339c-.53.324-1.262.753-2.148,1.268C50.068,28.661,31.2,39.71,32.3,45.077c1.146,5.569,12.263,12.767,16.989,15.6a2.033,2.033,0,0,1,.907,1.554c-.016.684-.5,1.321-1.459,1.888-3.649,2.2-10.009,6.089-10.359,6.381-.774.658-.737.981-.456,1.554.674,1.411,5.866,2.525,9.781,1.135,3.432-1.22,15.9-7.3,18.48-11.86a3.263,3.263,0,0,0,.414-1.8h0a4.378,4.378,0,0,0-.859-2.265c-2.36-3.018-6.556-6.6-9.335-8.975l-1.448-1.246c-.7-.61-1-1.04-1.018-1.49-.032-.536.35-.944.833-1.459.461-.5,3.777-2.986,8.407-6.455,2.8-2.1,5.453-4.079,5.829-4.429,2.514-2.329,2.138-4.238,1.74-6.259-.265-1.363-2.392-5.315-6.508-5.315a9.69,9.69,0,0,0-4.917,1.586ZM33.386,67.5a14.479,14.479,0,0,1-7.633-2.652C19.93,61.25,7.571,51.782,5.375,46.186a8.418,8.418,0,0,1,.308-6.567l.027-.069C7.518,34.628,33.572,10.457,49.9,10.457h.011a11.9,11.9,0,0,1,6.11,1.512c2.063,1.2,3.135,2.557,3.177,4.026.069,2.2-2.222,3.914-2.923,4.387-.106.069-.4.239-1.124.647C36.526,31.562,28.109,38.272,24.332,42.049a3.438,3.438,0,0,0-1.315,2.3,3.217,3.217,0,0,0,1.236,2.138c1.337,1.289,7.755,6.476,11.59,9.574,1.65,1.331,2.843,2.3,3.061,2.488.9.8,2.891,2.557,2.588,4.546-.2,1.294-1.315,2.408-3.331,3.315A11.506,11.506,0,0,1,33.386,67.5Zm16.523-56.32C33.821,11.173,8.165,34.957,6.383,39.8l-.027.069a7.8,7.8,0,0,0-.308,6.057C8.016,50.944,19.171,59.94,26.13,64.236c3.941,2.424,7.277,3.527,11.733,1.512,1.782-.8,2.763-1.729,2.917-2.763.244-1.6-1.538-3.177-2.3-3.851-.26-.233-1.506-1.241-3.087-2.514C31.546,53.511,25.112,48.313,23.754,47A3.83,3.83,0,0,1,22.3,44.351a4.049,4.049,0,0,1,1.528-2.811C27.631,37.731,36.1,30.974,54.8,20.4c.61-.345.981-.557,1.066-.61.637-.43,2.679-1.941,2.62-3.771-.037-1.209-.987-2.36-2.822-3.432a11.2,11.2,0,0,0-5.75-1.411ZM71.794,55.834a3.059,3.059,0,0,1-1.331-.329c-4.731-2.286-6.126-5.4-6.535-7.055a8.99,8.99,0,0,1,1.586-7.792c.154-.2,2.053-2.631,4.243-2.631,1.268,0,2.35.79,3.2,2.35l.626,1.119c1.994,3.575,3.2,5.734,2.456,9.038-.43,1.915-1.469,4.243-3.087,5.028A2.661,2.661,0,0,1,71.794,55.834ZM69.757,38.749c-1.883,0-3.66,2.329-3.676,2.355l-.016.016a8.41,8.41,0,0,0-1.437,7.155c.377,1.533,1.681,4.424,6.148,6.582a2.042,2.042,0,0,0,1.867.058c1.39-.674,2.323-2.864,2.7-4.54.679-3.034-.408-4.986-2.387-8.529l-.626-1.119C71.608,39.412,70.744,38.749,69.757,38.749Z" transform="translate(-4.83 -10.457)"/></g><g transform="translate(22.831 10.818)"><path class="a" d="M22.179,31.535C31.387,25.324,40.993,20.11,41.455,19.8c.408-.271,6.19-4.074-.217-7.813a11.548,11.548,0,0,0-5.93-1.459H35.3c-7.956,0-18.374,5.9-27.078,12.438l.08.042c4.758,2.514,9.229,5.686,13.876,8.529" transform="translate(-8.224 -10.525)"/></g><g transform="translate(5.195 40.378)"><path class="a" d="M5.493,16.1a7.61,7.61,0,0,0-.074,5.675C7.487,27.056,19.231,36.3,25.644,40.259c3.686,2.27,7.261,3.713,12.072,1.538,4.18-1.883,3.411-4.169,2.164-5.739a74.023,74.023,0,0,1-12.454-5.8C19.979,25.974,13.354,19.551,5.493,16.1" transform="translate(-4.899 -16.098)"/></g><g transform="translate(41.018 21.283)"><path class="a" d="M28.645,29.254c4.318-1.39,7.707-4.116,11.918-5.309,1.8-2.085,1.506-3.877,1.119-5.845-.281-1.416-2.472-5.6-6.864-5.6a9.93,9.93,0,0,0-5.108,1.644c-2.79,1.687-11.277,6.423-18.045,11.377a45.34,45.34,0,0,0,7.9,3.368c3.082.944,6.01,1.353,9.081.366" transform="translate(-11.666 -12.498)"/></g><g transform="translate(37.323 60.873)"><path class="a" d="M23.327,21.749a2.76,2.76,0,0,1-1.188,1.156c-3.416,2.053-10.046,6.11-10.407,6.413-.87.743-.912,1.236-.546,1.984.8,1.676,6.2,2.748,10.226,1.321,3.506-1.246,16.029-7.346,18.671-12.025a3.121,3.121,0,0,0,.281-.637,38.151,38.151,0,0,1-11.324,2.111,37.368,37.368,0,0,1-5.713-.324" transform="translate(-10.968 -19.962)"/></g><g transform="translate(63.898 38.389)"><path class="a" d="M21.742,15.723c-2.085,0-3.962,2.5-3.962,2.5A8.679,8.679,0,0,0,16.263,25.7c.3,1.2,1.437,4.445,6.338,6.816,2.769,1.337,4.514-2.228,5.076-4.726.78-3.49-.684-5.622-3.045-9.9-.891-1.618-1.915-2.164-2.891-2.164" transform="translate(-15.986 -15.723)"/></g></g></svg>