<svg xmlns="http://www.w3.org/2000/svg" width="265.756" height="91.32" viewBox="0 0 265.756 91.32"><defs><style>.a{fill:#fff;}</style></defs><g transform="translate(-381.812 -2472.485)"><g transform="translate(582.812 2505.505)"><path class="a" d="M892.2,2577.838a1.632,1.632,0,0,1-.782,1.464,3.737,3.737,0,0,1-2.226.421l-1.083-.08q-6.738-.482-6.739-7.22v-8.743H879.36a2.546,2.546,0,0,1-1.664-.482,1.985,1.985,0,0,1,0-2.808,2.547,2.547,0,0,1,1.664-.481h2.006v-3.691a2.254,2.254,0,0,1,.682-1.724,2.582,2.582,0,0,1,1.845-.642,2.527,2.527,0,0,1,1.8.642,2.256,2.256,0,0,1,.682,1.724v3.691h3.409a2.551,2.551,0,0,1,1.665.481,1.987,1.987,0,0,1,0,2.808,2.55,2.55,0,0,1-1.665.482H886.38v9.1q0,2.97,2.728,3.169l1.083.08Q892.2,2576.154,892.2,2577.838Z" transform="translate(-877.114 -2553.853)"/><path class="a" d="M939.118,2568.43a2.257,2.257,0,0,1,.682,1.725v15.563a2.176,2.176,0,0,1-.7,1.684,2.6,2.6,0,0,1-1.825.641,2.423,2.423,0,0,1-1.725-.6,2.144,2.144,0,0,1-.642-1.645v-1a6.4,6.4,0,0,1-2.487,2.468,7.2,7.2,0,0,1-3.53.862q-7.22,0-7.22-8.1v-9.867a2.255,2.255,0,0,1,.682-1.725,2.529,2.529,0,0,1,1.805-.641,2.586,2.586,0,0,1,1.845.641,2.255,2.255,0,0,1,.682,1.725v9.907a4.733,4.733,0,0,0,.842,3.089,3.27,3.27,0,0,0,2.648,1,4.318,4.318,0,0,0,3.349-1.384,5.231,5.231,0,0,0,1.264-3.67v-8.945a2.254,2.254,0,0,1,.682-1.725,2.528,2.528,0,0,1,1.8-.641A2.587,2.587,0,0,1,939.118,2568.43Z" transform="translate(-903.589 -2562.133)"/></g><g transform="translate(381.812 2503.487)"><path class="a" d="M382.478,2576.781a2.441,2.441,0,0,1-.666-1.809V2552.7a2.277,2.277,0,0,1,.628-1.713,2.386,2.386,0,0,1,1.732-.609h9.365a9.689,9.689,0,0,1,6.7,2.15,8.813,8.813,0,0,1,0,12.087,9.629,9.629,0,0,1-6.7,2.169h-6.814v8.185a2.3,2.3,0,0,1-2.475,2.475A2.394,2.394,0,0,1,382.478,2576.781Zm10.45-13.761q5.062,0,5.063-4.416t-5.063-4.416h-6.205v8.832Z" transform="translate(-381.812 -2549.772)"/><path class="a" d="M442.339,2553.239a2.4,2.4,0,0,1-.762-1.845,2.337,2.337,0,0,1,.762-1.828,3.4,3.4,0,0,1,4.092,0,2.313,2.313,0,0,1,.78,1.828,2.4,2.4,0,0,1-.761,1.845,3.351,3.351,0,0,1-4.111,0Zm.361,22.727a2.143,2.143,0,0,1-.666-1.694v-14.695a2.082,2.082,0,0,1,.666-1.674,2.51,2.51,0,0,1,1.694-.572,2.582,2.582,0,0,1,1.713.572,2.052,2.052,0,0,1,.685,1.674v14.695a2.111,2.111,0,0,1-.685,1.694,2.534,2.534,0,0,1-1.713.59A2.464,2.464,0,0,1,442.7,2575.966Z" transform="translate(-417.324 -2548.88)"/><path class="a" d="M481.142,2583.984a2.06,2.06,0,0,1,.4,1.332,2.31,2.31,0,0,1-1.409,1.98,12.745,12.745,0,0,1-2.931,1.161,12.106,12.106,0,0,1-3.122.438,9.7,9.7,0,0,1-7.119-2.589,9.489,9.489,0,0,1-2.627-7.081,10.866,10.866,0,0,1,1.142-5.063,8.3,8.3,0,0,1,3.217-3.426,9.107,9.107,0,0,1,4.7-1.219,8.435,8.435,0,0,1,4.378,1.1,7.5,7.5,0,0,1,2.893,3.122,10.363,10.363,0,0,1,1.028,4.759q0,1.637-1.446,1.636h-11.23A5.99,5.99,0,0,0,470.5,2584a5,5,0,0,0,3.655,1.237,6.918,6.918,0,0,0,2.151-.3,21.174,21.174,0,0,0,2.113-.837,4.211,4.211,0,0,1,1.675-.609A1.282,1.282,0,0,1,481.142,2583.984Zm-10.735-9.9a5.747,5.747,0,0,0-1.389,3.5h8.6a5.434,5.434,0,0,0-1.142-3.521,3.768,3.768,0,0,0-2.969-1.2A4.083,4.083,0,0,0,470.407,2574.085Z" transform="translate(-430.846 -2561.142)"/><path class="a" d="M544.183,2571.325q1.617,1.809,1.618,5.844v9.365a2.141,2.141,0,0,1-.666,1.693,2.512,2.512,0,0,1-1.732.591,2.456,2.456,0,0,1-1.694-.591,2.141,2.141,0,0,1-.666-1.693v-9.365a4.712,4.712,0,0,0-.742-2.989,2.778,2.778,0,0,0-2.265-.894,3.728,3.728,0,0,0-2.97,1.275,5.144,5.144,0,0,0-1.1,3.483v8.49a2.143,2.143,0,0,1-.666,1.693,2.458,2.458,0,0,1-1.694.591,2.529,2.529,0,0,1-1.713-.591,2.112,2.112,0,0,1-.685-1.693v-9.365a4.712,4.712,0,0,0-.742-2.989,2.778,2.778,0,0,0-2.265-.894,3.672,3.672,0,0,0-2.95,1.275,5.2,5.2,0,0,0-1.085,3.483v8.49a2.111,2.111,0,0,1-.685,1.693,2.529,2.529,0,0,1-1.713.591,2.454,2.454,0,0,1-1.693-.591,2.139,2.139,0,0,1-.667-1.693V2571.8a2.012,2.012,0,0,1,.685-1.637,2.585,2.585,0,0,1,1.713-.571,2.366,2.366,0,0,1,1.618.552,1.992,1.992,0,0,1,.628,1.58v.914a5.973,5.973,0,0,1,2.342-2.323,6.922,6.922,0,0,1,3.369-.8q4.187,0,5.6,3.5a6.288,6.288,0,0,1,2.474-2.551,7.214,7.214,0,0,1,3.693-.951A5.935,5.935,0,0,1,544.183,2571.325Z" transform="translate(-462.377 -2561.142)"/><path class="a" d="M601.771,2587.714a8.16,8.16,0,0,1-3.331-3.389,11.734,11.734,0,0,1,0-10.259,8.192,8.192,0,0,1,3.331-3.369,11.21,11.21,0,0,1,10.012,0,8.085,8.085,0,0,1,3.312,3.369,11.915,11.915,0,0,1,0,10.259,8.055,8.055,0,0,1-3.312,3.389,11.214,11.214,0,0,1-10.012,0Zm8.508-4.036a8.857,8.857,0,0,0,0-8.965,4.2,4.2,0,0,0-3.5-1.542,4.254,4.254,0,0,0-3.521,1.542,8.8,8.8,0,0,0-.019,8.965,4.222,4.222,0,0,0,3.5,1.523A4.266,4.266,0,0,0,610.279,2583.679Z" transform="translate(-509.828 -2561.142)"/><path class="a" d="M669.991,2571.42q1.636,1.9,1.637,5.749v9.365a2.224,2.224,0,0,1-.629,1.675,2.382,2.382,0,0,1-1.732.609,2.45,2.45,0,0,1-1.751-.609,2.187,2.187,0,0,1-.647-1.675v-9.1a4.942,4.942,0,0,0-.818-3.159,3.148,3.148,0,0,0-2.57-.99,4.343,4.343,0,0,0-3.293,1.295,4.8,4.8,0,0,0-1.237,3.464v8.49a2.19,2.19,0,0,1-.648,1.675,2.452,2.452,0,0,1-1.751.609,2.382,2.382,0,0,1-1.732-.609,2.224,2.224,0,0,1-.628-1.675V2571.8a2.09,2.09,0,0,1,.647-1.6,2.449,2.449,0,0,1,1.751-.61,2.269,2.269,0,0,1,1.618.59,2.019,2.019,0,0,1,.628,1.542v1.028a6.439,6.439,0,0,1,2.551-2.4,7.671,7.671,0,0,1,3.617-.838A6.225,6.225,0,0,1,669.991,2571.42Z" transform="translate(-543.657 -2561.142)"/><path class="a" d="M717.464,2579.243a1.55,1.55,0,0,1-.743,1.39,3.532,3.532,0,0,1-2.113.4l-1.027-.075q-6.4-.456-6.4-6.853v-8.3h-1.9a2.415,2.415,0,0,1-1.58-.457,1.885,1.885,0,0,1,0-2.665,2.418,2.418,0,0,1,1.58-.456h1.9v-3.5a2.143,2.143,0,0,1,.647-1.637,2.458,2.458,0,0,1,1.752-.609,2.4,2.4,0,0,1,1.713.609,2.143,2.143,0,0,1,.647,1.637v3.5h3.236a2.416,2.416,0,0,1,1.579.456,1.883,1.883,0,0,1,0,2.665,2.413,2.413,0,0,1-1.579.457h-3.236v8.642q0,2.817,2.589,3.007l1.028.076Q717.464,2577.644,717.464,2579.243Z" transform="translate(-572.747 -2553.395)"/><path class="a" d="M758.859,2583.984a2.058,2.058,0,0,1,.4,1.332,2.309,2.309,0,0,1-1.409,1.98,12.753,12.753,0,0,1-2.932,1.161,12.1,12.1,0,0,1-3.121.438,9.7,9.7,0,0,1-7.119-2.589,9.49,9.49,0,0,1-2.627-7.081,10.866,10.866,0,0,1,1.142-5.063,8.3,8.3,0,0,1,3.217-3.426,9.107,9.107,0,0,1,4.7-1.219,8.433,8.433,0,0,1,4.378,1.1,7.5,7.5,0,0,1,2.893,3.122,10.363,10.363,0,0,1,1.028,4.759q0,1.637-1.447,1.636h-11.23a5.988,5.988,0,0,0,1.485,3.865,5,5,0,0,0,3.655,1.237,6.913,6.913,0,0,0,2.15-.3,21.115,21.115,0,0,0,2.113-.837,4.213,4.213,0,0,1,1.675-.609A1.282,1.282,0,0,1,758.859,2583.984Zm-10.735-9.9a5.75,5.75,0,0,0-1.389,3.5h8.6a5.43,5.43,0,0,0-1.142-3.521,3.767,3.767,0,0,0-2.969-1.2A4.084,4.084,0,0,0,748.123,2574.085Z" transform="translate(-595.862 -2561.142)"/></g><g transform="translate(556.253 2472.485)"><path class="a" d="M902.983,2518.148c0-4.381-.119-9.005-4.5-9.005s-4.04,4.625-3.984,9.005c.235,18.768-14.591,37.193-38.351,37.193-15.9,0-35.2-13.655-36-36.016-.654-18.427,14.058-38.421,37.174-38.331,4.38.017,7.913-.054,7.913-4.435s-3.533-4.069-7.913-4.069a45.658,45.658,0,1,0,45.658,45.658Z" transform="translate(-811.668 -2472.485)"/><circle class="a" cx="7.931" cy="7.931" r="7.931" transform="translate(75.136 16.536)"/><circle class="a" cx="5.658" cy="5.658" r="5.658" transform="matrix(0.926, -0.378, 0.378, 0.926, 57.481, 21.366)"/><path class="a" d="M963.148,2494.508a3.384,3.384,0,1,0,3.384-3.384A3.384,3.384,0,0,0,963.148,2494.508Z" transform="translate(-901.676 -2483.56)"/></g></g></svg>