<svg xmlns="http://www.w3.org/2000/svg" width="248.235" height="47.565" viewBox="0 0 248.235 47.565"><defs><style>.a{fill:#fff;}</style></defs><g transform="translate(-309.383 -2472.485)"><g transform="translate(321.545 2488.181)"><path class="a" d="M886.86,2569.352a1.054,1.054,0,0,1-.505.946,2.412,2.412,0,0,1-1.438.272l-.7-.052q-4.354-.311-4.354-4.666v-5.65h-1.3a1.644,1.644,0,0,1-1.075-.312,1.282,1.282,0,0,1,0-1.814,1.647,1.647,0,0,1,1.075-.311h1.3v-2.385a1.456,1.456,0,0,1,.441-1.115,1.667,1.667,0,0,1,1.192-.415,1.632,1.632,0,0,1,1.166.415,1.458,1.458,0,0,1,.441,1.115v2.385h2.2a1.65,1.65,0,0,1,1.076.311,1.283,1.283,0,0,1,0,1.814,1.647,1.647,0,0,1-1.076.312h-2.2v5.883q0,1.92,1.763,2.048l.7.052Q886.86,2568.263,886.86,2569.352Z" transform="translate(-877.114 -2553.852)"/><path class="a" d="M932.945,2568.2a1.458,1.458,0,0,1,.441,1.115v10.057a1.4,1.4,0,0,1-.453,1.088,1.679,1.679,0,0,1-1.179.414,1.565,1.565,0,0,1-1.115-.388,1.385,1.385,0,0,1-.415-1.063v-.648a4.132,4.132,0,0,1-1.607,1.6,4.654,4.654,0,0,1-2.281.557q-4.666,0-4.665-5.236v-6.376a1.457,1.457,0,0,1,.441-1.115,1.634,1.634,0,0,1,1.167-.414,1.672,1.672,0,0,1,1.192.414,1.457,1.457,0,0,1,.441,1.115v6.4a3.061,3.061,0,0,0,.544,2,2.114,2.114,0,0,0,1.711.647,2.791,2.791,0,0,0,2.164-.894,3.382,3.382,0,0,0,.817-2.372v-5.78a1.456,1.456,0,0,1,.44-1.115,1.634,1.634,0,0,1,1.166-.414A1.672,1.672,0,0,1,932.945,2568.2Z" transform="translate(-909.986 -2564.134)"/></g><g transform="translate(309.383 2472.485)"><path class="a" d="M859.23,2496.269c0-2.282-.062-4.691-2.344-4.691s-2.1,2.409-2.075,4.691c.123,9.776-7.6,19.373-19.976,19.373-8.284,0-18.336-7.113-18.749-18.76-.34-9.6,7.322-20.012,19.362-19.965,2.282.009,4.122-.028,4.122-2.31s-1.84-2.119-4.122-2.119a23.781,23.781,0,1,0,23.782,23.782Z" transform="translate(-811.668 -2472.485)"/><circle class="a" cx="4.131" cy="4.131" r="4.131" transform="translate(39.135 8.613)"/><circle class="a" cx="2.947" cy="2.947" r="2.947" transform="matrix(0.926, -0.378, 0.378, 0.926, 29.94, 11.129)"/><path class="a" d="M963.148,2492.887a1.763,1.763,0,1,0,1.763-1.762A1.762,1.762,0,0,0,963.148,2492.887Z" transform="translate(-931.129 -2487.185)"/></g><path class="a" d="M3.288,0a1.46,1.46,0,0,1-1.08-.384A1.427,1.427,0,0,1,1.824-1.44V-15.5a1.508,1.508,0,0,1,.42-1.116,1.508,1.508,0,0,1,1.116-.42,1.54,1.54,0,0,1,1.14.42A1.508,1.508,0,0,1,4.92-15.5v12.96h6.744q1.44,0,1.44,1.272T11.664,0Zm17.16-12.024a4.888,4.888,0,0,1,3.636,1.212,5.074,5.074,0,0,1,1.188,3.684v5.856a1.354,1.354,0,0,1-.384,1.02A1.454,1.454,0,0,1,23.832.12a1.4,1.4,0,0,1-1.02-.384,1.341,1.341,0,0,1-.4-1.008V-1.8A3.131,3.131,0,0,1,21.132-.336,3.851,3.851,0,0,1,19.1.192a4.709,4.709,0,0,1-2.136-.48,3.8,3.8,0,0,1-1.512-1.32A3.335,3.335,0,0,1,14.9-3.48a2.966,2.966,0,0,1,.66-2.04A3.966,3.966,0,0,1,17.712-6.6a19.561,19.561,0,0,1,4.1-.336h.6v-.552a2.457,2.457,0,0,0-.5-1.716,2.145,2.145,0,0,0-1.632-.54,5.179,5.179,0,0,0-1.416.2q-.72.2-1.7.588a2.4,2.4,0,0,1-.912.312.9.9,0,0,1-.708-.312,1.186,1.186,0,0,1-.276-.816,1.229,1.229,0,0,1,.2-.708,1.936,1.936,0,0,1,.684-.564,7.823,7.823,0,0,1,2-.72A10.34,10.34,0,0,1,20.448-12.024ZM19.7-1.968a2.563,2.563,0,0,0,1.956-.8,2.908,2.908,0,0,0,.756-2.076v-.5h-.432a16.556,16.556,0,0,0-2.5.144,2.423,2.423,0,0,0-1.272.5,1.283,1.283,0,0,0-.384.984,1.628,1.628,0,0,0,.54,1.26A1.9,1.9,0,0,0,19.7-1.968Zm17.28-9.144a1.469,1.469,0,0,1,.516-.648,1.25,1.25,0,0,1,.708-.216,1.511,1.511,0,0,1,1,.372,1.158,1.158,0,0,1,.444.924,1.278,1.278,0,0,1-.144.576L35.064-.816a1.58,1.58,0,0,1-.612.7,1.658,1.658,0,0,1-.876.24A1.741,1.741,0,0,1,32.7-.12a1.537,1.537,0,0,1-.636-.7L27.6-10.1a1.218,1.218,0,0,1-.12-.552,1.17,1.17,0,0,1,.468-.936,1.637,1.637,0,0,1,1.068-.384,1.338,1.338,0,0,1,1.272.84l3.36,7.416ZM47.064.192a6.457,6.457,0,0,1-3.156-.744,5.148,5.148,0,0,1-2.1-2.136,6.772,6.772,0,0,1-.744-3.24,6.7,6.7,0,0,1,.744-3.228,5.166,5.166,0,0,1,2.1-2.124,6.457,6.457,0,0,1,3.156-.744,6.457,6.457,0,0,1,3.156.744,5.09,5.09,0,0,1,2.088,2.124,6.791,6.791,0,0,1,.732,3.228,6.863,6.863,0,0,1-.732,3.24A5.074,5.074,0,0,1,50.22-.552,6.457,6.457,0,0,1,47.064.192ZM47.04-2.136a2.69,2.69,0,0,0,2.232-.96,4.46,4.46,0,0,0,.768-2.832,4.469,4.469,0,0,0-.768-2.82,2.648,2.648,0,0,0-2.208-.972,2.682,2.682,0,0,0-2.22.972,4.419,4.419,0,0,0-.78,2.82A4.46,4.46,0,0,0,44.832-3.1,2.662,2.662,0,0,0,47.04-2.136Zm15.5-9.84a1.292,1.292,0,0,1,.984.264,1.172,1.172,0,0,1,.36.936,1.308,1.308,0,0,1-.312.96,1.917,1.917,0,0,1-1.128.408l-.72.072a2.917,2.917,0,0,0-2.076.96,3.139,3.139,0,0,0-.66,2.04V-1.3A1.332,1.332,0,0,1,58.56-.228a1.6,1.6,0,0,1-1.08.372,1.551,1.551,0,0,1-1.068-.372,1.351,1.351,0,0,1-.42-1.068v-9.288a1.285,1.285,0,0,1,.42-1.032,1.548,1.548,0,0,1,1.044-.36,1.443,1.443,0,0,1,1.008.348,1.275,1.275,0,0,1,.384,1v.96A3.552,3.552,0,0,1,60.2-11.3a4.157,4.157,0,0,1,2-.648ZM70.776.192A6.457,6.457,0,0,1,67.62-.552a5.148,5.148,0,0,1-2.1-2.136,6.772,6.772,0,0,1-.744-3.24,6.7,6.7,0,0,1,.744-3.228,5.166,5.166,0,0,1,2.1-2.124,6.457,6.457,0,0,1,3.156-.744,6.457,6.457,0,0,1,3.156.744A5.09,5.09,0,0,1,76.02-9.156a6.791,6.791,0,0,1,.732,3.228,6.863,6.863,0,0,1-.732,3.24A5.074,5.074,0,0,1,73.932-.552,6.457,6.457,0,0,1,70.776.192Zm-.024-2.328a2.69,2.69,0,0,0,2.232-.96,4.46,4.46,0,0,0,.768-2.832,4.469,4.469,0,0,0-.768-2.82,2.648,2.648,0,0,0-2.208-.972,2.682,2.682,0,0,0-2.22.972,4.419,4.419,0,0,0-.78,2.82A4.46,4.46,0,0,0,68.544-3.1,2.662,2.662,0,0,0,70.752-2.136ZM88.488.144a1.508,1.508,0,0,1-1.116-.42,1.54,1.54,0,0,1-.42-1.14v-14.04a1.435,1.435,0,0,1,.4-1.08,1.5,1.5,0,0,1,1.092-.384h5.9a6.106,6.106,0,0,1,4.224,1.356,4.846,4.846,0,0,1,1.512,3.8,4.884,4.884,0,0,1-1.512,3.816,6.071,6.071,0,0,1-4.224,1.368h-4.3v5.16a1.54,1.54,0,0,1-.42,1.14A1.54,1.54,0,0,1,88.488.144Zm5.472-9.1q3.192,0,3.192-2.784T93.96-14.52H90.048v5.568ZM104.5.144a1.551,1.551,0,0,1-1.068-.372,1.351,1.351,0,0,1-.42-1.068V-10.56a1.314,1.314,0,0,1,.42-1.056,1.583,1.583,0,0,1,1.068-.36,1.63,1.63,0,0,1,1.08.36,1.3,1.3,0,0,1,.432,1.056V-1.3a1.332,1.332,0,0,1-.432,1.068A1.6,1.6,0,0,1,104.5.144Zm0-14.256a1.834,1.834,0,0,1-1.3-.444,1.511,1.511,0,0,1-.48-1.164,1.474,1.474,0,0,1,.48-1.152,1.865,1.865,0,0,1,1.3-.432,1.875,1.875,0,0,1,1.284.432,1.457,1.457,0,0,1,.492,1.152,1.511,1.511,0,0,1-.48,1.164A1.834,1.834,0,0,1,104.5-14.112Zm14.376,10.9a.808.808,0,0,1,.66.312,1.3,1.3,0,0,1,.252.84A1.455,1.455,0,0,1,118.9-.816a8.023,8.023,0,0,1-1.848.732,7.619,7.619,0,0,1-1.968.276,6.115,6.115,0,0,1-4.488-1.632A5.982,5.982,0,0,1,108.936-5.9a6.849,6.849,0,0,1,.72-3.192,5.235,5.235,0,0,1,2.028-2.16,5.743,5.743,0,0,1,2.964-.768,5.319,5.319,0,0,1,2.76.7,4.719,4.719,0,0,1,1.824,1.968,6.53,6.53,0,0,1,.648,3q0,1.032-.912,1.032h-7.08a3.776,3.776,0,0,0,.936,2.436,3.15,3.15,0,0,0,2.3.78,4.369,4.369,0,0,0,1.356-.192,13.384,13.384,0,0,0,1.332-.528A2.649,2.649,0,0,1,118.872-3.216Zm-4.152-6.7a2.576,2.576,0,0,0-1.956.768,3.626,3.626,0,0,0-.876,2.208h5.424a3.422,3.422,0,0,0-.72-2.22A2.375,2.375,0,0,0,114.72-9.912Zm22.032-2.112a3.74,3.74,0,0,1,2.94,1.14,5.45,5.45,0,0,1,1.02,3.684v5.9a1.351,1.351,0,0,1-.42,1.068A1.586,1.586,0,0,1,139.2.144a1.551,1.551,0,0,1-1.068-.372,1.351,1.351,0,0,1-.42-1.068V-7.2a2.968,2.968,0,0,0-.468-1.884,1.749,1.749,0,0,0-1.428-.564,2.35,2.35,0,0,0-1.872.8,3.243,3.243,0,0,0-.7,2.2V-1.3a1.351,1.351,0,0,1-.42,1.068,1.551,1.551,0,0,1-1.068.372,1.6,1.6,0,0,1-1.08-.372,1.332,1.332,0,0,1-.432-1.068V-7.2a2.968,2.968,0,0,0-.468-1.884,1.749,1.749,0,0,0-1.428-.564,2.314,2.314,0,0,0-1.86.8,3.28,3.28,0,0,0-.684,2.2V-1.3a1.332,1.332,0,0,1-.432,1.068,1.6,1.6,0,0,1-1.08.372,1.551,1.551,0,0,1-1.068-.372,1.351,1.351,0,0,1-.42-1.068v-9.288a1.268,1.268,0,0,1,.432-1.032,1.63,1.63,0,0,1,1.08-.36,1.488,1.488,0,0,1,1.02.348,1.255,1.255,0,0,1,.4,1v.576a3.762,3.762,0,0,1,1.476-1.464,4.364,4.364,0,0,1,2.124-.5,3.439,3.439,0,0,1,3.528,2.208,3.966,3.966,0,0,1,1.56-1.608A4.546,4.546,0,0,1,136.752-12.024ZM149.592.192a6.457,6.457,0,0,1-3.156-.744,5.148,5.148,0,0,1-2.1-2.136,6.772,6.772,0,0,1-.744-3.24,6.7,6.7,0,0,1,.744-3.228,5.165,5.165,0,0,1,2.1-2.124,6.457,6.457,0,0,1,3.156-.744,6.457,6.457,0,0,1,3.156.744,5.09,5.09,0,0,1,2.088,2.124,6.791,6.791,0,0,1,.732,3.228,6.863,6.863,0,0,1-.732,3.24,5.074,5.074,0,0,1-2.088,2.136A6.457,6.457,0,0,1,149.592.192Zm-.024-2.328A2.69,2.69,0,0,0,151.8-3.1a4.46,4.46,0,0,0,.768-2.832,4.469,4.469,0,0,0-.768-2.82,2.648,2.648,0,0,0-2.208-.972,2.682,2.682,0,0,0-2.22.972,4.419,4.419,0,0,0-.78,2.82A4.46,4.46,0,0,0,147.36-3.1,2.662,2.662,0,0,0,149.568-2.136Zm15.768-9.888a3.922,3.922,0,0,1,3.144,1.2A5.442,5.442,0,0,1,169.512-7.2v5.9a1.4,1.4,0,0,1-.4,1.056,1.5,1.5,0,0,1-1.092.384,1.546,1.546,0,0,1-1.1-.384,1.38,1.38,0,0,1-.408-1.056V-7.032A3.111,3.111,0,0,0,166-9.024a1.983,1.983,0,0,0-1.62-.624,2.738,2.738,0,0,0-2.076.816,3.029,3.029,0,0,0-.78,2.184V-1.3a1.38,1.38,0,0,1-.408,1.056,1.546,1.546,0,0,1-1.1.384,1.5,1.5,0,0,1-1.092-.384,1.4,1.4,0,0,1-.4-1.056v-9.288a1.32,1.32,0,0,1,.408-1.008,1.546,1.546,0,0,1,1.1-.384,1.43,1.43,0,0,1,1.02.372,1.272,1.272,0,0,1,.4.972v.648a4.059,4.059,0,0,1,1.608-1.512A4.839,4.839,0,0,1,165.336-12.024Zm13.8,9.936q1.2.072,1.2,1.08a.976.976,0,0,1-.468.876,2.233,2.233,0,0,1-1.332.252l-.648-.048q-4.032-.288-4.032-4.32V-9.48h-1.2a1.524,1.524,0,0,1-1-.288,1.028,1.028,0,0,1-.348-.84,1.028,1.028,0,0,1,.348-.84,1.524,1.524,0,0,1,1-.288h1.2v-2.208a1.35,1.35,0,0,1,.408-1.032,1.546,1.546,0,0,1,1.1-.384,1.512,1.512,0,0,1,1.08.384,1.35,1.35,0,0,1,.408,1.032v2.208h2.04a1.524,1.524,0,0,1,1,.288,1.028,1.028,0,0,1,.348.84,1.028,1.028,0,0,1-.348.84,1.524,1.524,0,0,1-1,.288h-2.04v5.448q0,1.776,1.632,1.9Zm12.528-1.128a.808.808,0,0,1,.66.312,1.3,1.3,0,0,1,.252.84,1.455,1.455,0,0,1-.888,1.248,8.023,8.023,0,0,1-1.848.732,7.619,7.619,0,0,1-1.968.276,6.115,6.115,0,0,1-4.488-1.632A5.983,5.983,0,0,1,181.728-5.9a6.849,6.849,0,0,1,.72-3.192,5.235,5.235,0,0,1,2.028-2.16,5.743,5.743,0,0,1,2.964-.768,5.319,5.319,0,0,1,2.76.7,4.719,4.719,0,0,1,1.824,1.968,6.53,6.53,0,0,1,.648,3q0,1.032-.912,1.032h-7.08a3.776,3.776,0,0,0,.936,2.436,3.15,3.15,0,0,0,2.3.78,4.369,4.369,0,0,0,1.356-.192,13.385,13.385,0,0,0,1.332-.528A2.649,2.649,0,0,1,191.664-3.216Zm-4.152-6.7a2.576,2.576,0,0,0-1.956.768,3.626,3.626,0,0,0-.876,2.208H190.1a3.422,3.422,0,0,0-.72-2.22A2.375,2.375,0,0,0,187.512-9.912Z" transform="translate(364.945 2504.644)"/></g></svg>