<svg xmlns="http://www.w3.org/2000/svg" width="263.45" height="79.41" viewBox="0 0 263.45 79.41"><defs><style>.a{fill:#b3b3b3;}.b{fill:#d9000d;}.c{fill:#fff;}.d{fill:#0064b3;}</style></defs><g transform="translate(-233.675 -142.63)"><rect class="a" width="80.78" height="79.41" transform="translate(233.675 142.63)"/><rect class="b" width="26.191" height="26.189" transform="translate(237.929 146.881)"/><rect class="b" width="26.189" height="26.189" transform="translate(283.504 146.881)"/><rect class="b" width="26.191" height="26.184" transform="translate(237.929 191.939)"/><rect class="b" width="26.189" height="26.184" transform="translate(283.504 191.939)"/><path class="c" d="M346.891,180.376h-7.243L330.481,164.6c-.657.032-1.189.05-1.6.05-.163,0-.339-.005-.527-.013s-.4-.025-.6-.037v9.847c0,2.107.186,3.415.567,3.921a2.52,2.52,0,0,0,2.248,1.082H331.6v.925H320.054v-.925h1.013a2.539,2.539,0,0,0,2.435-1.38,9.774,9.774,0,0,0,.4-3.623V152.59q0-3.153-.546-3.919a2.623,2.623,0,0,0-2.29-1.082h-1.013v-.923h9.825a18.664,18.664,0,0,1,6.3.785,7.408,7.408,0,0,1,3.462,2.877,8.7,8.7,0,0,1,1.426,5,9.044,9.044,0,0,1-1.628,5.391,8.8,8.8,0,0,1-5.007,3.229l5.6,9.684a15.979,15.979,0,0,0,3.273,4.431,7.152,7.152,0,0,0,3.588,1.388Zm-19.137-17.317c.241,0,.458,0,.644.013s.338.012.455.012a6.956,6.956,0,0,0,7.672-7.4,8.045,8.045,0,0,0-1.551-5.123,5.011,5.011,0,0,0-4.136-1.974,12.334,12.334,0,0,0-3.084.539Z"/><path class="c" d="M355.064,148.589v13.238h5.7c1.535,0,2.559-.284,3.07-.859A6.381,6.381,0,0,0,365,156.976h.771v11.705H365a16.806,16.806,0,0,0-.568-3.147,2.81,2.81,0,0,0-1.166-1.364,4.972,4.972,0,0,0-2.5-.5h-5.7V174.7a12.359,12.359,0,0,0,.161,2.7,1.5,1.5,0,0,0,.558.763,2.682,2.682,0,0,0,1.481.284h4.542a10.147,10.147,0,0,0,3.314-.392,4.856,4.856,0,0,0,1.975-1.547,19.506,19.506,0,0,0,2.523-4.6h.848l-2.332,8.464H347.366v-.925h.946a3.183,3.183,0,0,0,1.815-.567A1.976,1.976,0,0,0,351,177.7a15.2,15.2,0,0,0,.219-3.249V152.59q0-3.24-.52-3.995a2.694,2.694,0,0,0-2.383-1.006h-.946v-.923h20.711l.3,7.387h-.848a13.515,13.515,0,0,0-.92-3.6,3.417,3.417,0,0,0-1.482-1.5,7.293,7.293,0,0,0-2.773-.366Z"/><path class="c" d="M396.413,145.9l.62,10.624h-.772a15.37,15.37,0,0,0-2.717-5.959,7.551,7.551,0,0,0-6.121-2.9q-5.135,0-7.8,5.079a21.885,21.885,0,0,0-2.226,10.206,24.812,24.812,0,0,0,1.491,8.776,12.741,12.741,0,0,0,3.9,5.808,8.12,8.12,0,0,0,4.974,1.845,9.014,9.014,0,0,0,2.88-.468,10.264,10.264,0,0,0,2.683-1.375v-9.627a11.529,11.529,0,0,0-.308-3.372,2.454,2.454,0,0,0-.953-1.214,4.466,4.466,0,0,0-2.275-.417v-.923h10.463v.923h-.5a2.157,2.157,0,0,0-2.166,1.317,10.736,10.736,0,0,0-.409,3.686v10.27a17.862,17.862,0,0,1-4.5,2.251,16.076,16.076,0,0,1-4.945.717,13.264,13.264,0,0,1-11.855-6.263,19.587,19.587,0,0,1-3.024-10.842,21.8,21.8,0,0,1,1.716-8.524,17.086,17.086,0,0,1,5.558-7.46,11.494,11.494,0,0,1,6.977-2.162,10.977,10.977,0,0,1,2.673.3,20.863,20.863,0,0,1,3.4,1.327,4.785,4.785,0,0,0,1.492.529.786.786,0,0,0,.646-.44,3.959,3.959,0,0,0,.326-1.717Z"/><path class="c" d="M413.355,179.451v.925H401.808v-.925h.969a2.609,2.609,0,0,0,2.409-1.205,9.234,9.234,0,0,0,.471-3.8V152.59a14.2,14.2,0,0,0-.248-3.352,2.139,2.139,0,0,0-.817-1.058,3.188,3.188,0,0,0-1.815-.591h-.969v-.923h11.547v.923h-.961a2.608,2.608,0,0,0-2.4,1.207,8.864,8.864,0,0,0-.488,3.794v21.858a14.17,14.17,0,0,0,.246,3.356,2.05,2.05,0,0,0,.837,1.056,3.037,3.037,0,0,0,1.805.591Z"/><path class="c" d="M429.348,145.9q5.255,0,9.109,4.985a19.746,19.746,0,0,1,3.852,12.442q0,7.686-3.885,12.754-3.9,5.07-9.4,5.07-5.588,0-9.388-4.947t-3.8-12.8q0-8.034,4.39-13.1A11.683,11.683,0,0,1,429.348,145.9Zm-.4,1.769a6.685,6.685,0,0,0-5.826,3.362q-2.745,4.179-2.745,12.25,0,8.258,2.848,12.716a6.574,6.574,0,0,0,5.749,3.386q3.824,0,6.307-3.713t2.487-11.694q0-8.665-2.724-12.919A6.9,6.9,0,0,0,428.947,147.664Z"/><path class="c" d="M443.315,146.666h7.336l16.482,25.074V152.516c0-2.076-.187-3.367-.554-3.884a2.72,2.72,0,0,0-2.362-1.043h-.931v-.923h9.466v.923H471.8a2.6,2.6,0,0,0-2.466,1.294,9.425,9.425,0,0,0-.43,3.633v28.4h-.724L450.353,153.75v20.78c0,2.073.176,3.363.525,3.881a2.774,2.774,0,0,0,2.37,1.04h.95v.925h-9.462v-.925h.931a2.6,2.6,0,0,0,2.486-1.291,9.42,9.42,0,0,0,.43-3.63V151.052a14.028,14.028,0,0,0-1.776-2.235,6.046,6.046,0,0,0-1.776-1.006,4.974,4.974,0,0,0-1.716-.222Z"/><path class="c" d="M481.732,148.589v13.238h5.7c1.533,0,2.56-.284,3.066-.859a6.343,6.343,0,0,0,1.168-3.992h.766v11.705h-.766a16.057,16.057,0,0,0-.574-3.147,2.767,2.767,0,0,0-1.16-1.364,4.966,4.966,0,0,0-2.5-.5h-5.7V174.7a12.458,12.458,0,0,0,.16,2.7,1.511,1.511,0,0,0,.554.763,2.7,2.7,0,0,0,1.483.284h4.547a10.133,10.133,0,0,0,3.306-.392,4.862,4.862,0,0,0,1.98-1.547,19.739,19.739,0,0,0,2.518-4.6h.845l-2.329,8.464H474.037v-.925h.944a3.173,3.173,0,0,0,1.809-.567,1.937,1.937,0,0,0,.868-1.187,14.629,14.629,0,0,0,.227-3.249V152.59c0-2.16-.181-3.493-.524-3.995a2.693,2.693,0,0,0-2.38-1.006h-.944v-.923h20.7l.313,7.387H494.2a13.461,13.461,0,0,0-.926-3.6,3.394,3.394,0,0,0-1.481-1.5,7.251,7.251,0,0,0-2.773-.366Z"/><path class="c" d="M326.6,204.486v8.522q0,2.772.489,3.437a2.183,2.183,0,0,0,1.949.955h.873v.766h-9.931V217.4h.858a2.213,2.213,0,0,0,2.11-1.21,8.891,8.891,0,0,0,.343-3.182V194.15a7.44,7.44,0,0,0-.472-3.438,2.27,2.27,0,0,0-1.981-.948h-.858V189h8.468a12.244,12.244,0,0,1,4.912.806,7.028,7.028,0,0,1,3.024,2.714,8.22,8.22,0,0,1,1.22,4.533,8.768,8.768,0,0,1-1.856,5.8,6.471,6.471,0,0,1-5.263,2.237,12.067,12.067,0,0,1-1.8-.151A19.167,19.167,0,0,1,326.6,204.486Zm0-1.221c.6.144,1.133.248,1.59.324a7.848,7.848,0,0,0,1.192.1,3.726,3.726,0,0,0,3.029-1.72,7.387,7.387,0,0,0,1.272-4.475,9.862,9.862,0,0,0-.612-3.509,5.033,5.033,0,0,0-1.733-2.417,4.184,4.184,0,0,0-2.522-.808,8.066,8.066,0,0,0-2.216.407Z"/><path class="c" d="M349.708,217.4v.766h-9.929V217.4h.83a2.249,2.249,0,0,0,2.078-1.062,8.3,8.3,0,0,0,.4-3.33V194.15a12.455,12.455,0,0,0-.218-2.936,1.816,1.816,0,0,0-.7-.93,2.731,2.731,0,0,0-1.562-.52h-.83V189h9.929v.767h-.827a2.212,2.212,0,0,0-2.058,1.061,7.866,7.866,0,0,0-.423,3.325v18.858a13.03,13.03,0,0,0,.206,2.942,1.841,1.841,0,0,0,.724.93,2.62,2.62,0,0,0,1.551.52Z"/><path class="c" d="M358.042,190.691v11.388h4.844a3.621,3.621,0,0,0,2.678-.735,5.361,5.361,0,0,0,1.024-3.419h.615v10.082h-.615a13.527,13.527,0,0,0-.5-2.713,2.349,2.349,0,0,0-1.013-1.171,4.387,4.387,0,0,0-2.187-.429h-4.844v9.536a11.285,11.285,0,0,0,.135,2.337,1.335,1.335,0,0,0,.48.662,2.415,2.415,0,0,0,1.277.242h3.924a8.707,8.707,0,0,0,2.852-.336,4.138,4.138,0,0,0,1.708-1.331,16.844,16.844,0,0,0,2.171-3.952h.763l-2.008,7.314H351.422V217.4h.812a2.714,2.714,0,0,0,1.558-.5,1.721,1.721,0,0,0,.75-1.043,13.3,13.3,0,0,0,.191-2.847V194.15a7.941,7.941,0,0,0-.455-3.5,2.293,2.293,0,0,0-2.044-.881h-.812V189h17.86l.227,6.384h-.768a11.788,11.788,0,0,0-.793-3.089,2.923,2.923,0,0,0-1.272-1.286,6.193,6.193,0,0,0-2.383-.315Z"/><path class="c" d="M386.544,218.166l-9.006-24.544v19.465a7.652,7.652,0,0,0,.449,3.392,2.323,2.323,0,0,0,2.038.921h.819v.766h-8.155V217.4h.822a2.228,2.228,0,0,0,2.119-1.132,8.421,8.421,0,0,0,.367-3.181V194.074a8.311,8.311,0,0,0-.346-2.83,2.185,2.185,0,0,0-.887-1.053,3.918,3.918,0,0,0-2.075-.427V189h6.782l8.311,22.656L396.1,189H402.7v.767h-.817a2.206,2.206,0,0,0-2.1,1.132,8,8,0,0,0-.385,3.178v19.013q0,2.722.488,3.392a2.247,2.247,0,0,0,2,.921h.817v.766h-9.926V217.4h.816a2.181,2.181,0,0,0,2.1-1.132,7.968,7.968,0,0,0,.39-3.181V193.622l-9.008,24.544Z"/><path class="c" d="M416.374,188.383q4.529,0,7.843,4.3a17.069,17.069,0,0,1,3.316,10.73,17.575,17.575,0,0,1-3.347,11q-3.347,4.375-8.088,4.377a9.851,9.851,0,0,1-8.079-4.267q-3.275-4.266-3.267-11.044,0-6.926,3.769-11.3A10.05,10.05,0,0,1,416.374,188.383Zm-.336,1.537a5.724,5.724,0,0,0-5,2.894q-2.365,3.6-2.363,10.556,0,7.113,2.446,10.953a5.634,5.634,0,0,0,4.929,2.92,6.328,6.328,0,0,0,5.421-3.195q2.132-3.2,2.132-10.082,0-7.457-2.334-11.128A5.918,5.918,0,0,0,416.038,189.92Z"/><path class="c" d="M428.391,189h6.285l14.362,21.766V194.074a7.294,7.294,0,0,0-.476-3.4,2.33,2.33,0,0,0-2.037-.915h-.8V189h8.159v.767h-.82a2.224,2.224,0,0,0-2.119,1.132,8.309,8.309,0,0,0-.368,3.178v24.568h-.631l-15.46-23.461v17.906a7.491,7.491,0,0,0,.457,3.392,2.343,2.343,0,0,0,2.032.921h.822v.766H429.64V217.4h.8a2.248,2.248,0,0,0,2.137-1.132,8.4,8.4,0,0,0,.37-3.181V192.846a12.487,12.487,0,0,0-1.535-1.993,5.141,5.141,0,0,0-1.539-.89,4.2,4.2,0,0,0-1.484-.2Z"/><path class="c" d="M474.67,189l.228,6.854h-.646a10.349,10.349,0,0,0-.512-2.58,3.617,3.617,0,0,0-3.723-2.433H466.74v22.249a7.521,7.521,0,0,0,.454,3.392,2.343,2.343,0,0,0,2.032.921h.822v.766h-9.926V217.4h.817a2.233,2.233,0,0,0,2.122-1.132,8.4,8.4,0,0,0,.37-3.181V190.838h-2.8a6.326,6.326,0,0,0-2.324.3,3.432,3.432,0,0,0-1.545,1.568,7.634,7.634,0,0,0-.766,3.141h-.646l.233-6.854Z"/><path class="c" d="M483.154,190.691v11.388H488a3.625,3.625,0,0,0,2.678-.735,5.364,5.364,0,0,0,1.016-3.419h.621v10.082H491.7a14.242,14.242,0,0,0-.5-2.713,2.388,2.388,0,0,0-1.013-1.171,4.381,4.381,0,0,0-2.182-.429h-4.849v9.536a11.555,11.555,0,0,0,.134,2.337,1.365,1.365,0,0,0,.483.662,2.41,2.41,0,0,0,1.28.242h3.919a8.75,8.75,0,0,0,2.854-.336,4.139,4.139,0,0,0,1.706-1.331,16.915,16.915,0,0,0,2.172-3.952h.769l-2.016,7.314H476.536V217.4h.812a2.742,2.742,0,0,0,1.561-.5,1.722,1.722,0,0,0,.742-1.043,12.947,12.947,0,0,0,.192-2.847V194.15c0-1.894-.145-3.064-.447-3.5a2.305,2.305,0,0,0-2.048-.881h-.812V189h17.857l.23,6.384h-.773a11.731,11.731,0,0,0-.786-3.089,2.957,2.957,0,0,0-1.271-1.286,6.213,6.213,0,0,0-2.384-.315Z"/><path class="d" d="M251.066,159.707l2.859-8.608h40.321l2.819,8.605h-8.65l1.084-3.617H276.938l1.312,3.6h-8.52l1.247-3.472H258.452l1.2,3.49Z"/></g></svg>