<svg xmlns="http://www.w3.org/2000/svg" xmlns:xlink="http://www.w3.org/1999/xlink" width="366" height="310" viewBox="0 0 366 310">
  <defs>
    <clipPath id="clip-path">
      <rect id="Rettangolo_165715" data-name="Rettangolo 165715" width="366" height="310" transform="translate(0 0.382)" fill="none" stroke="#707070" stroke-width="1"/>
    </clipPath>
  </defs>
  <g id="Raggruppa_31479" data-name="Raggruppa 31479" transform="translate(0 -0.626)">
    <g id="Raggruppa_31478" data-name="Raggruppa 31478" transform="translate(0 0.244)">
      <g id="Raggruppa_31477" data-name="Raggruppa 31477" transform="translate(0 0)" clip-path="url(#clip-path)">
        <path id="Tracciato_109469" data-name="Tracciato 109469" d="M1893.624,489.971a3.462,3.462,0,0,1-1.588-2.3c-.2-2.1,2.577-4.315,4.8-3.909,2.1.384,3.9,3.153,3.1,6.315l-6.312-.11" transform="translate(-1682.171 -430.131)" fill="#2e3192"/>
        <path id="Tracciato_109470" data-name="Tracciato 109470" d="M1855.628,552.866l-.816.191a1.3,1.3,0,0,0-.867.688,31.468,31.468,0,0,0-2.732,8.34,31.067,31.067,0,0,0-1.472,4.88,1.017,1.017,0,0,0,.776,1.156l.069.016.755-1.034,2.7-4.49Z" transform="translate(-1644.565 -491.61)" fill="#f9e0d2"/>
        <path id="Tracciato_109471" data-name="Tracciato 109471" d="M1964.4,562.174a84.417,84.417,0,0,0,.925,9.623s-4.573,1.5,3.9,1.817a1.178,1.178,0,0,0,1.222-1.177c-2.585-.786.491-1.218-2.094-2-.715-2.375-1.02-6.367-2.553-8.723Z" transform="translate(-1746.242 -499.474)" fill="#ffc5ae"/>
        <path id="Tracciato_109472" data-name="Tracciato 109472" d="M1894.307,560.31a50.444,50.444,0,0,0-.24-10.231c-.136-1.08-.3-2.115-.49-3.1a2.014,2.014,0,0,0-1.346-1.536l-3.728-1.232-3.981,1.109a61.734,61.734,0,0,0-1.241,7.321,62.921,62.921,0,0,0-.453,7.117,27.036,27.036,0,0,0,5.056.877,26.059,26.059,0,0,0,6.423-.321" transform="translate(-1673.993 -483.913)" fill="#f9e0d2"/>
        <path id="Tracciato_109473" data-name="Tracciato 109473" d="M1948.86,564.909a50.453,50.453,0,0,0-.24-10.231c-.174-1.385.121-2.844-.519-3.93l0,0a1.029,1.029,0,0,0-.562-.456l-2.745-.908a1.369,1.369,0,0,0-.331,1.98c1.463,2.566.69,9.918.124,13.938a26.139,26.139,0,0,0,4.275-.39" transform="translate(-1728.546 -488.512)" fill="#ffc5ae"/>
        <path id="Tracciato_109474" data-name="Tracciato 109474" d="M1914.247,521.27l-.023-2.242,2.226-.108.028,2.5c.05.453.6.812,1.035.955l.782.259c-.082.693-.789,2.271-1.467,2.373-1.283.194-2.873-1.974-3.6-2.644a1.4,1.4,0,0,0,1.015-1.1" transform="translate(-1701.026 -461.429)" fill="#b26b6b"/>
        <path id="Tracciato_109475" data-name="Tracciato 109475" d="M1924.416,519.921l-.011-1-2.226.108.016,1.558a1.341,1.341,0,0,0,.615.236,1.8,1.8,0,0,0,1.606-.9" transform="translate(-1708.979 -461.429)" fill="#a54c4c"/>
        <path id="Tracciato_109476" data-name="Tracciato 109476" d="M1914.931,494.924a2.222,2.222,0,0,0-.842,1.3c-.2,1.043.441,2.448,1.5,2.566,1.009.113,1.944-1,2.025-2.063a2.08,2.08,0,0,0-1.374-2.195,1.775,1.775,0,0,0-1.3.394" transform="translate(-1701.754 -439.727)" fill="#b26b6b"/>
        <path id="Tracciato_109477" data-name="Tracciato 109477" d="M1912.313,486.967c-.2.491.928,1.319,1.039,1.4.957.695,2.432,1.045,2.8.542.271-.37-.093-1.152-.512-1.6-1.018-1.078-3.1-.924-3.326-.346" transform="translate(-1700.189 -432.621)" fill="#2e3192"/>
        <path id="Tracciato_109478" data-name="Tracciato 109478" d="M1943.184,508.506a.491.491,0,1,0-.531.447.491.491,0,0,0,.531-.447" transform="translate(-1726.784 -451.697)" fill="#b26b6b"/>
        <path id="Tracciato_109479" data-name="Tracciato 109479" d="M1924.155,525.354c-.012.092.166.2.311.225a.649.649,0,0,0,.671-.457c-.775.045-.971.143-.983.232" transform="translate(-1710.737 -466.944)" fill="#fff"/>
        <line id="Linea_3256" data-name="Linea 3256" x2="262.283" transform="translate(39.52 262.468)" fill="none" stroke="#bbb4f8" stroke-linecap="round" stroke-width="4.11"/>
        <path id="Tracciato_109480" data-name="Tracciato 109480" d="M1199.508,637.159H1095.382a7.862,7.862,0,0,0-7.862,7.862v155.39a7.862,7.862,0,0,0,7.862,7.862h113.776a7.862,7.862,0,0,0,7.862-7.862V654.671Z" transform="translate(-966.898 -566.554)" fill="#fff" stroke="#535353" stroke-width="1"/>
        <path id="Tracciato_109481" data-name="Tracciato 109481" d="M2097.2,637.159l.045,11.68a5.809,5.809,0,0,0,5.787,5.787l11.68.045Z" transform="translate(-1864.585 -566.554)" fill="#d3d5fc"/>
        <path id="Tracciato_109482" data-name="Tracciato 109482" d="M1225.484,602.41V586.251a6.342,6.342,0,0,0-12.684,0v23.775a5.129,5.129,0,0,0,10.259,0V591.986a3.494,3.494,0,0,0-6.987,0v13.835" transform="translate(-1078.282 -515.654)" fill="none" stroke="#9087f4" stroke-linecap="round" stroke-linejoin="round" stroke-width="1.74"/>
        <rect id="Rettangolo_165696" data-name="Rettangolo 165696" width="4.896" height="18.959" transform="translate(145.8 70.607)" fill="#fff"/>
        <line id="Linea_3258" data-name="Linea 3258" x2="64.762" transform="translate(153.384 141.194)" fill="#fff"/>
        <line id="Linea_3259" data-name="Linea 3259" x2="64.762" transform="translate(153.384 141.194)" fill="none" stroke="#9087f4" stroke-linecap="round" stroke-linejoin="round" stroke-width="2.43"/>
        <line id="Linea_3260" data-name="Linea 3260" x2="66.777" transform="translate(140.144 147.124)" fill="#fff"/>
        <line id="Linea_3261" data-name="Linea 3261" x2="66.777" transform="translate(140.144 147.124)" fill="none" stroke="#9087f4" stroke-linecap="round" stroke-linejoin="round" stroke-width="2.43"/>
        <line id="Linea_3262" data-name="Linea 3262" x2="56.379" transform="translate(140.144 158.983)" fill="#fff"/>
        <line id="Linea_3263" data-name="Linea 3263" x2="56.379" transform="translate(140.144 158.983)" fill="none" stroke="#9087f4" stroke-linecap="round" stroke-linejoin="round" stroke-width="2.43"/>
        <line id="Linea_3264" data-name="Linea 3264" x2="45.519" transform="translate(140.144 153.054)" fill="#fff"/>
        <line id="Linea_3265" data-name="Linea 3265" x2="45.519" transform="translate(140.144 153.054)" fill="none" stroke="#9087f4" stroke-linecap="round" stroke-linejoin="round" stroke-width="2.43"/>
        <line id="Linea_3266" data-name="Linea 3266" x2="29.807" transform="translate(201.837 153.054)" fill="#fff"/>
        <line id="Linea_3267" data-name="Linea 3267" x2="29.807" transform="translate(201.837 153.054)" fill="none" stroke="#9087f4" stroke-linecap="round" stroke-linejoin="round" stroke-width="2.43"/>
        <rect id="Rettangolo_165697" data-name="Rettangolo 165697" width="64.068" height="2.392" transform="translate(160.535 199.027)" fill="#d3d5fc"/>
        <rect id="Rettangolo_165698" data-name="Rettangolo 165698" width="19.147" height="2.392" transform="translate(160.535 192.202)" fill="#d3d5fc"/>
        <rect id="Rettangolo_165699" data-name="Rettangolo 165699" width="30.372" height="2.392" transform="translate(186.277 192.202)" fill="#d3d5fc"/>
        <path id="Tracciato_109483" data-name="Tracciato 109483" d="M1330.162,1730.831h-6.544a1.628,1.628,0,0,0-1.628,1.628V1739a1.628,1.628,0,0,0,1.628,1.628h6.544a1.628,1.628,0,0,0,1.629-1.628v-6.544a1.628,1.628,0,0,0-1.629-1.628" transform="translate(-1175.361 -1538.921)" fill="#4463cd"/>
        <path id="Tracciato_109484" data-name="Tracciato 109484" d="M1346.536,1762.607l1.637,1.637,3.07-3.069" transform="translate(-1197.185 -1565.9)" fill="none" stroke="#fff" stroke-linecap="round" stroke-linejoin="round" stroke-width="12.651"/>
        <rect id="Rettangolo_165700" data-name="Rettangolo 165700" width="57.611" height="2.392" transform="translate(160.534 178.342)" fill="#d3d5fc"/>
        <rect id="Rettangolo_165701" data-name="Rettangolo 165701" width="64.482" height="2.392" transform="translate(160.535 171.517)" fill="#d3d5fc"/>
        <path id="Tracciato_109485" data-name="Tracciato 109485" d="M1330.162,1544.34h-6.544a1.628,1.628,0,0,0-1.628,1.629v6.543a1.628,1.628,0,0,0,1.628,1.628h6.544a1.628,1.628,0,0,0,1.629-1.628v-6.543a1.628,1.628,0,0,0-1.629-1.629" transform="translate(-1175.361 -1373.115)" fill="#4463cd"/>
        <path id="Tracciato_109486" data-name="Tracciato 109486" d="M1346.536,1576.116l1.637,1.637,3.07-3.069" transform="translate(-1197.185 -1400.093)" fill="none" stroke="#fff" stroke-linecap="round" stroke-linejoin="round" stroke-width="12.651"/>
        <rect id="Rettangolo_165702" data-name="Rettangolo 165702" width="34.468" height="2.392" transform="translate(160.535 219.712)" fill="#d3d5fc"/>
        <rect id="Rettangolo_165703" data-name="Rettangolo 165703" width="26.051" height="2.392" transform="translate(160.534 212.886)" fill="#d3d5fc"/>
        <path id="Tracciato_109487" data-name="Tracciato 109487" d="M1330.162,1917.322h-6.544a1.628,1.628,0,0,0-1.628,1.628v6.543a1.629,1.629,0,0,0,1.628,1.629h6.544a1.629,1.629,0,0,0,1.629-1.629v-6.543a1.628,1.628,0,0,0-1.629-1.628" transform="translate(-1175.361 -1704.728)" fill="#4463cd"/>
        <path id="Tracciato_109488" data-name="Tracciato 109488" d="M1346.536,1949.1l1.637,1.637,3.07-3.069" transform="translate(-1197.185 -1731.706)" fill="none" stroke="#fff" stroke-linecap="round" stroke-linejoin="round" stroke-width="12.651"/>
        <path id="Tracciato_109489" data-name="Tracciato 109489" d="M1540.12,828.57a18.923,18.923,0,1,0-18.923,18.923,18.923,18.923,0,0,0,18.923-18.923" transform="translate(-1335.65 -719.911)" fill="#efeefe"/>
        <path id="Tracciato_109490" data-name="Tracciato 109490" d="M1540.12,828.57a18.923,18.923,0,1,0-18.923,18.923,18.923,18.923,0,0,0,18.923-18.923" transform="translate(-1335.65 -719.911)" fill="#efeefe"/>
        <path id="Tracciato_109491" data-name="Tracciato 109491" d="M1546.248,1007.065a18.9,18.9,0,0,0,15.8-8.5,17.944,17.944,0,0,0-31.595,0,18.9,18.9,0,0,0,15.8,8.5" transform="translate(-1360.701 -879.484)" fill="#4463cd"/>
        <path id="Tracciato_109492" data-name="Tracciato 109492" d="M1621.726,848.255a7.291,7.291,0,1,0-7.291,7.291,7.291,7.291,0,0,0,7.291-7.291" transform="translate(-1428.888 -747.754)" fill="#4463cd"/>
        <path id="Tracciato_109493" data-name="Tracciato 109493" d="M1839.963,627.951a.853.853,0,0,0-.687.962,2.441,2.441,0,0,0,.272.814c.226.413.388.735.731.821a.752.752,0,0,0,.664-.141,1.3,1.3,0,0,0,.268-.449h0a1.728,1.728,0,0,0-.435-1.506c-.216-.244-.484-.562-.812-.5" transform="translate(-1635.264 -558.361)" fill="#b26b6b"/>
        <path id="Tracciato_109494" data-name="Tracciato 109494" d="M1850.87,630.664c1.127.4,1.354.62,1.333.744-.029.17-.561.353-.968.1a.808.808,0,0,1-.365-.848" transform="translate(-1645.566 -560.779)" fill="#b26b6b"/>
        <path id="Tracciato_109495" data-name="Tracciato 109495" d="M2014.059,625.921c-.9.785-1.037,1.069-.973,1.176.088.148.651.126.94-.253a.808.808,0,0,0,.033-.922" transform="translate(-1789.792 -556.562)" fill="#b26b6b"/>
        <path id="Tracciato_109496" data-name="Tracciato 109496" d="M2018.523,624.3a.852.852,0,0,1,.952.7,2.438,2.438,0,0,1-.006.858c-.087.462-.141.819-.44,1.007a.752.752,0,0,1-.675.072,1.3,1.3,0,0,1-.394-.344h0a1.727,1.727,0,0,1-.053-1.567c.13-.3.286-.684.617-.728" transform="translate(-1793.95 -555.111)" fill="#b26b6b"/>
        <line id="Linea_3268" data-name="Linea 3268" x2="17.423" y2="67.992" transform="translate(116.61 193.802)" fill="none" stroke="#bbb4f8" stroke-width="2.51"/>
        <line id="Linea_3269" data-name="Linea 3269" x2="17.552" y2="68.78" transform="translate(134.248 193.014)" fill="none" stroke="#bbb4f8" stroke-width="2.51"/>
        <line id="Linea_3270" data-name="Linea 3270" x1="19.217" y2="74.991" transform="translate(116.953 186.802)" fill="none" stroke="#bbb4f8" stroke-width="2.51"/>
        <line id="Linea_3271" data-name="Linea 3271" x1="19.217" y2="74.991" transform="translate(98.843 186.802)" fill="none" stroke="#bbb4f8" stroke-width="2.51"/>
        <line id="Linea_3272" data-name="Linea 3272" x1="18.378" transform="translate(102.793 246.166)" fill="none" stroke="#bbb4f8" stroke-width="2.51"/>
        <line id="Linea_3273" data-name="Linea 3273" x1="18.256" transform="translate(106.252 232.878)" fill="none" stroke="#bbb4f8" stroke-width="2.51"/>
        <line id="Linea_3274" data-name="Linea 3274" x1="18.426" transform="translate(109.611 219.59)" fill="none" stroke="#bbb4f8" stroke-width="2.51"/>
        <line id="Linea_3275" data-name="Linea 3275" x1="18.412" transform="translate(113.063 206.302)" fill="none" stroke="#bbb4f8" stroke-width="2.51"/>
        <line id="Linea_3276" data-name="Linea 3276" x1="17.734" transform="translate(116.514 193.014)" fill="none" stroke="#bbb4f8" stroke-width="2.51"/>
        <path id="Tracciato_109497" data-name="Tracciato 109497" d="M1137.03,1324.21s4.321,4.885,2.6,15.533-4.36,28.138-4.36,28.138h-.922l-2.522-34.974s-1.511-2.965-1.6-9Z" transform="translate(-1004.86 -1177.133)" fill="#f6a19e"/>
        <rect id="Rettangolo_165704" data-name="Rettangolo 165704" width="1.495" height="0.364" transform="translate(129.186 190.748)" fill="#f6a19e"/>
        <path id="Tracciato_109498" data-name="Tracciato 109498" d="M1162.474,1720.36a.867.867,0,0,0,0,1.273h3.859a1.116,1.116,0,0,0-.124-.822l-.005-.009a.962.962,0,0,0-.823-.442h-1.562a1.419,1.419,0,0,1-1.346,0" transform="translate(-1033.282 -1529.612)" fill="#f95f6a"/>
        <rect id="Rettangolo_165705" data-name="Rettangolo 165705" width="4.081" height="0.414" transform="translate(129.078 192.021)" fill="#d3d5fc"/>
        <path id="Tracciato_109499" data-name="Tracciato 109499" d="M1184.575,1720.724l.191.3" transform="translate(-1053.188 -1529.935)" fill="none" stroke="#e1eef7" stroke-width="3.089"/>
        <path id="Tracciato_109500" data-name="Tracciato 109500" d="M1181.258,1720.969l.162.323" transform="translate(-1050.239 -1530.153)" fill="none" stroke="#e1eef7" stroke-width="3.089"/>
        <path id="Tracciato_109501" data-name="Tracciato 109501" d="M1130.232,1324.11l.34-.066,4.439.2a45.3,45.3,0,0,1,4.359,10.077c.239.818.445,1.617.623,2.395a31.7,31.7,0,0,1-.354,3.151c-.254,1.57-.528,3.288-.81,5.077a49.869,49.869,0,0,1-5.5,1.248c-.182.034-.363.065-.543.1l-.956-13.256s-1.5-2.939-1.6-8.917" transform="translate(-1004.872 -1177.253)" fill="#f26d6d"/>
        <path id="Tracciato_109502" data-name="Tracciato 109502" d="M1076.508,1309.254c-.243.008-.935,2.564-1.021,2.841-.383,1.238-.865,3.441-.953,3.928-.467,2.557.96,18.263,4.438,38.678h.914c.777-11.588,1.632-23.9,2.409-35.491q-.213-5.063-.426-10.125l-5.361.169" transform="translate(-955.276 -1163.953)" fill="#f6a19e"/>
        <rect id="Rettangolo_165706" data-name="Rettangolo 165706" width="1.495" height="0.364" transform="translate(123.413 190.748)" fill="#f6a19e"/>
        <path id="Tracciato_109503" data-name="Tracciato 109503" d="M1094.925,1720.36a.867.867,0,0,1,0,1.273h-3.86a1.117,1.117,0,0,1,.123-.822l.005-.009a.961.961,0,0,1,.823-.442h1.562a1.419,1.419,0,0,0,1.346,0" transform="translate(-970.023 -1529.612)" fill="#f95f6a"/>
        <rect id="Rettangolo_165707" data-name="Rettangolo 165707" width="4.081" height="0.414" transform="translate(120.934 192.021)" fill="#d3d5fc"/>
        <path id="Tracciato_109504" data-name="Tracciato 109504" d="M1104.777,1720.724l-.191.3" transform="translate(-982.071 -1529.935)" fill="none" stroke="#e1eef7" stroke-width="3.089"/>
        <path id="Tracciato_109505" data-name="Tracciato 109505" d="M1108.333,1720.969l-.162.323" transform="translate(-985.258 -1530.153)" fill="none" stroke="#e1eef7" stroke-width="3.089"/>
        <path id="Tracciato_109506" data-name="Tracciato 109506" d="M1074.534,1327.611c.089-.486.57-2.689.953-3.928.023-.076.093-.324.186-.643l1.3-.139a1.337,1.337,0,0,1,1.12-.049q1.595-.263,3.275-.6c.191-.038.378-.085.562-.137q.182,4.34.365,8.68c-.308,4.593-.628,9.3-.951,14.031a32.964,32.964,0,0,1-5.525.14c-1.152-9.384-1.569-15.8-1.285-17.358" transform="translate(-955.276 -1175.541)" fill="#f26d6d"/>
        <path id="Tracciato_109507" data-name="Tracciato 109507" d="M1075.115,1310.076a1.338,1.338,0,0,1,1.117.1q1.615-.047,3.325-.152c1.173-.073,2.258-.463,3.361-.57a44.9,44.9,0,0,1,3.58,11.953,42.486,42.486,0,0,1,.32,9.961,36.251,36.251,0,0,1-7.894.993,32.872,32.872,0,0,1-9-.8c-.249-4.589-.438-8.23-.469-9.2-.209-6.652,1.284-9.92,1.863-11.382.167-.422.56-1.221.661-1.447,1.125.032,2.007.518,3.132.55" transform="translate(-950.821 -1164.282)" fill="#4463cd"/>
        <path id="Tracciato_109508" data-name="Tracciato 109508" d="M1043.443,1220.567l-2.452,16.984h1.226l3.251-9.317,2.235-9.566Z" transform="translate(-925.53 -1083.566)" fill="#f6a19e"/>
        <path id="Tracciato_109509" data-name="Tracciato 109509" d="M1065.5,1187.084q.068-.265.134-.535c.61-2.517.193-4.818.3-6.789,0,0-2.922,1.574-4.4,6.664Z" transform="translate(-943.8 -1048.972)" fill="#d3d5fc"/>
        <path id="Tracciato_109510" data-name="Tracciato 109510" d="M1092.375,1181.435c0-3.2.1-6.312.224-10.184a23.911,23.911,0,0,1,.738-4.337l4.91-1.623,4.041,1.126c.292,2.413.284,4.773.556,7.233.274,2.477.312,5.144.555,7.579a21.572,21.572,0,0,1-4.524.735,25.18,25.18,0,0,1-6.5-.528" transform="translate(-971.214 -1036.107)" fill="#d3d5fc"/>
        <path id="Tracciato_109511" data-name="Tracciato 109511" d="M1124.17,1142l.023-2.276-2.26-.11-.029,2.542c-.05.46-.611.824-1.051.969l-.794.263c.083.7.8,2.305,1.489,2.409,1.3.2,2.917-2,3.652-2.684a1.425,1.425,0,0,1-1.031-1.113" transform="translate(-995.829 -1013.284)" fill="#f6a19e"/>
        <path id="Tracciato_109512" data-name="Tracciato 109512" d="M1137.57,1146.6l-.618-.5,2.26.11-.016,1.582a1.361,1.361,0,0,1-.625.24c-.635.071-1.641-.754-1-1.431" transform="translate(-1010.847 -1019.048)" fill="#f26d6d"/>
        <path id="Tracciato_109513" data-name="Tracciato 109513" d="M1137.793,1115.974a2.162,2.162,0,0,1,.728,1.851c-.025.944-.564,2.4-1.681,2.527-1.07.118-2.1-1.053-2.181-2.222a2.348,2.348,0,0,1,1.48-2.364,1.942,1.942,0,0,1,1.655.208" transform="translate(-1008.803 -991.989)" fill="#f6a19e"/>
        <path id="Tracciato_109514" data-name="Tracciato 109514" d="M1153.691,1144.969a.571.571,0,0,1-.414.443.593.593,0,0,1-.667-.443Z" transform="translate(-1024.768 -1018.04)" fill="#fff"/>
        <path id="Tracciato_109515" data-name="Tracciato 109515" d="M1133.344,1102.285c.563.5-.021,2.1-1.336,2.786-1.278.666-3.24.463-3.565-.135-.268-.493.6-1.208.954-1.5,1.213-1,3.325-1.705,3.946-1.152" transform="translate(-1003.237 -979.919)" fill="#2e3192"/>
        <path id="Tracciato_109516" data-name="Tracciato 109516" d="M1188.971,1206.08a11.966,11.966,0,0,1,1.419,5.4l4.023-5.4,1.054.67s-2.379,6.585-5.123,9.335a.715.715,0,0,1-1.1-.112,14.04,14.04,0,0,1-2.475-7.194c-.02-1.08.1-2.589.93-2.923a1.531,1.531,0,0,1,1.269.224" transform="translate(-1055.139 -1072.115)" fill="#f6a19e"/>
        <path id="Tracciato_109517" data-name="Tracciato 109517" d="M1188.971,1206.08a11.966,11.966,0,0,1,1.419,5.4l4.023-5.4,1.56-.093s-2.885,7.347-5.628,10.1a.715.715,0,0,1-1.1-.112,14.04,14.04,0,0,1-2.475-7.194c-.02-1.08.1-2.589.93-2.923a1.531,1.531,0,0,1,1.269.224" transform="translate(-1055.139 -1072.115)" fill="#f6a19e"/>
        <path id="Tracciato_109518" data-name="Tracciato 109518" d="M1181.8,1182.569a8.154,8.154,0,0,1-.281-1.846,25.423,25.423,0,0,1-.2-5.282,7.219,7.219,0,0,1,3.222,4.03c.2.746.382,1.448.542,2.072Z" transform="translate(-1050.24 -1045.133)" fill="#d3d5fc"/>
        <path id="Tracciato_109519" data-name="Tracciato 109519" d="M1212.421,1253.991a.186.186,0,0,1,.249-.014c0,.1.009.2.011.3l-.515.524a.188.188,0,0,1-.269,0,.2.2,0,0,1,0-.273Z" transform="translate(-1077.429 -1114.921)" fill="#f26d6d"/>
        <path id="Tracciato_109520" data-name="Tracciato 109520" d="M1129.644,1130.683a.5.5,0,1,1,.543.458.5.5,0,0,1-.543-.458" transform="translate(-1004.348 -1004.854)" fill="#f6a19e"/>
        <path id="Tracciato_109521" data-name="Tracciato 109521" d="M1131.7,1132.491a.274.274,0,1,1,.3.25.274.274,0,0,1-.3-.25" transform="translate(-1006.175 -1006.682)" fill="#f26d6d"/>
        <path id="Tracciato_109522" data-name="Tracciato 109522" d="M1146.01,1229.3a3.387,3.387,0,0,1-3.176.278" transform="translate(-1016.076 -1093.014)" fill="none" stroke="#bbb4f8" stroke-width="1.39"/>
        <path id="Tracciato_109523" data-name="Tracciato 109523" d="M1124.99,1174.859l1.25.247" transform="translate(-1000.212 -1044.615)" fill="none" stroke="#f26d6d" stroke-width="0.61"/>
        <path id="Tracciato_109524" data-name="Tracciato 109524" d="M1151.107,1174.3l1.182-.476" transform="translate(-1023.432 -1043.697)" fill="none" stroke="#f26d6d" stroke-width="0.61"/>
        <path id="Tracciato_109525" data-name="Tracciato 109525" d="M1097.335,1218.669s-.172,1.7,1.882,1.717" transform="translate(-975.621 -1083.566)" fill="none" stroke="#bbb4f8" stroke-width="1.39"/>
        <path id="Tracciato_109526" data-name="Tracciato 109526" d="M1255.492,1189.081a.515.515,0,0,0-.178-.666l-.9-.586-1.914,2.757,1.775-.216Z" transform="translate(-1113.576 -1056.146)" fill="#f6a19e"/>
        <path id="Tracciato_109527" data-name="Tracciato 109527" d="M1269.75,1177.264l.923-1.318.288.17-.758,1.492-.31-.138Z" transform="translate(-1128.915 -1045.581)" fill="#f6a19e"/>
        <path id="Tracciato_109528" data-name="Tracciato 109528" d="M1262.968,1190.99c.011,0,.139-.9.139-.9l.88-.247Z" transform="translate(-1122.886 -1057.935)" fill="#f6a19e"/>
        <path id="Tracciato_109529" data-name="Tracciato 109529" d="M1266.831,1191.716l.667-.259-.132-.278-.354-.03" transform="translate(-1126.32 -1059.098)" fill="none" stroke="#f26d6d" stroke-width="0.39"/>
        <path id="Tracciato_109530" data-name="Tracciato 109530" d="M1273.024,1192.567l-.175.339" transform="translate(-1131.671 -1060.359)" fill="none" stroke="#f26d6d" stroke-width="0.39"/>
        <path id="Tracciato_109531" data-name="Tracciato 109531" d="M1276.363,1195.005l-.123.279" transform="translate(-1134.686 -1062.526)" fill="none" stroke="#f26d6d" stroke-width="0.39"/>
        <path id="Tracciato_109532" data-name="Tracciato 109532" d="M1037.1,1388.911l-.052.452A2.27,2.27,0,0,0,1037,1392c.906,1.551,1.178-.185,1.178-.185l.142-2.907Z" transform="translate(-921.635 -1234.925)" fill="#fb9c98"/>
        <path id="Tracciato_109533" data-name="Tracciato 109533" d="M1048.54,1390.616c.6,1.148.618,1.485.511,1.568-.147.113-.7-.131-.844-.628a.873.873,0,0,1,.332-.94" transform="translate(-931.917 -1236.441)" fill="#fb9c98"/>
        <path id="Tracciato_109534" data-name="Tracciato 109534" d="M1019.775,1088.536c-.664-1.448-.9-3.581.215-4.563,1.07-.944,2.46-.008,3.485-.963s-.019-2.371.723-3.9c1.13-2.328,5.709-3.669,7.723-1.8a3.557,3.557,0,0,1,.914,3.7c-.6,1.413-2.124,1.105-3.041,2.724-.844,1.49.069,2.422-.788,3.424-1.063,1.244-2.846.253-3.946,1.493-1.068,1.2-.027,3-.865,3.373-.956.426-3.426-1.32-4.42-3.488" transform="translate(-906.169 -957.103)" fill="#2e3192"/>
        <path id="Tracciato_109535" data-name="Tracciato 109535" d="M2250.908,1750.288h0a4.5,4.5,0,0,0-5.206,1.243,43.659,43.659,0,0,0-4.119,5.44s-5.722,2.669-8.037,3.709l.644,1.123a93.281,93.281,0,0,0,9.478-2.784c2.35-1.041,7.239-8.73,7.239-8.73" transform="translate(-1985.813 -1555.901)" fill="#f9e0d2"/>
        <path id="Tracciato_109536" data-name="Tracciato 109536" d="M2536.675,2339.042l.09.268-.607.634-.643-.282-.237-.352-.069-.277Z" transform="translate(-2254.016 -2079.665)" fill="#f6a19e"/>
        <path id="Tracciato_109537" data-name="Tracciato 109537" d="M2342.184,2338.426l.036.278-.293.482-.861-.081-.257-.158-.077-.243,0-.353Z" transform="translate(-2081.11 -2079.058)" fill="#f6a19e"/>
        <path id="Tracciato_109538" data-name="Tracciato 109538" d="M2426.237,1907.688c-.217-.032-.344-.564-.261-.992a1.651,1.651,0,0,1,.8-1.044,1.63,1.63,0,0,1,.162.949c-.077.544-.455,1.123-.7,1.087" transform="translate(-2156.876 -1694.352)" fill="#47b27c"/>
        <path id="Tracciato_109539" data-name="Tracciato 109539" d="M2411.67,1919.225c.06.211-.372.545-.8.647a1.653,1.653,0,0,1-1.279-.3,1.63,1.63,0,0,1,.8-.538c.527-.154,1.211-.049,1.278.186" transform="translate(-2142.335 -1706.189)" fill="#47b27c"/>
        <path id="Tracciato_109540" data-name="Tracciato 109540" d="M2413.433,1907.326c-.133.174-.66.028-.995-.25a1.651,1.651,0,0,1-.53-1.2,1.629,1.629,0,0,1,.908.317c.439.33.764.941.616,1.135" transform="translate(-2144.392 -1694.55)" fill="#47b27c"/>
        <path id="Tracciato_109541" data-name="Tracciato 109541" d="M2408.948,1899.316s3.654,4.68,9.847,48.78l-1.852-.01-14.588-40.568v-8.2Z" transform="translate(-2135.898 -1688.719)" fill="#4463cd"/>
        <path id="Tracciato_109542" data-name="Tracciato 109542" d="M2327.276,1876.668s-4.411,3.469-4.389,12.783c.009,4.172,1.981,38.424,1.981,38.424l1.449.075c2.569-13.041,4.428-25.858,6.55-39.121.3-.043,1.86-.157,2.129-.474.591-.7.014-1.907.027-2.44.05-2.133.064-7.011-.075-8.809a64.966,64.966,0,0,1-7.672-.439" transform="translate(-2065.244 -1668.583)" fill="#4463cd"/>
        <path id="Tracciato_109543" data-name="Tracciato 109543" d="M2324.868,1927.875s-1.972-34.252-1.981-38.424c-.021-9.315,4.389-12.783,4.389-12.783q.558.065,1.137.122l1.038.662s-3.12,18.252-3.045,29.166c.042,6.065.037,14.476.024,20.754q-.056.29-.113.579Z" transform="translate(-2065.244 -1668.583)" fill="#4463cd"/>
        <path id="Tracciato_109544" data-name="Tracciato 109544" d="M2347.777,1757.1a1.3,1.3,0,0,1-1-1.321,57.622,57.622,0,0,1,1.425-10.563c.393-1.7.842-3.293,1.323-4.777l5.688-1.258,4.4,1.724a70.662,70.662,0,0,1,.185,16.236.524.524,0,0,1-.442.464,29.727,29.727,0,0,1-11.584-.5" transform="translate(-2086.487 -1546.348)" fill="#f9e0d2"/>
        <path id="Tracciato_109545" data-name="Tracciato 109545" d="M2347.121,1757.654a.68.68,0,0,1-.507-.681,57.664,57.664,0,0,1,1.444-11.074c.393-1.7.692-3.32,1.173-4.8,1.216-.269,2.581-.511,3.8-.78.4.063,1.51-.679,1.829-.211.421.616-.358,2.348-.431,2.615-.41,1.509-1.51,7.437-3.009,15.732a29.861,29.861,0,0,1-4.3-.8" transform="translate(-2086.339 -1547.027)" fill="#f9e0d2"/>
        <path id="Tracciato_109546" data-name="Tracciato 109546" d="M2211.46,1847.98l-.811.365a2.11,2.11,0,0,1-.694.592,1.581,1.581,0,0,1-1.435.137c-.392-.229-.643-.766-.5-.963a.287.287,0,0,1,.216-.094l2.579-1.159Z" transform="translate(-1963.082 -1642.078)" fill="#fb9c98"/>
        <path id="Tracciato_109547" data-name="Tracciato 109547" d="M2476.566,1781.531a20.989,20.989,0,0,0,1.587-2,9.09,9.09,0,0,1,2.575,3.037c.47,1.043.026,2.326-.867,3.641a9.561,9.561,0,0,1-3.444-.7,8.585,8.585,0,0,1,1-.994s-.93-.755-2.032-1.767a15.131,15.131,0,0,0,1.177-1.221" transform="translate(-2200.831 -1582.219)" fill="#f9e0d2"/>
        <path id="Tracciato_109548" data-name="Tracciato 109548" d="M2329.3,2341.532a.959.959,0,0,1,0,1.406h-3.1v-1.406h1.612a1.569,1.569,0,0,0,1.488,0" transform="translate(-2068.187 -2081.886)" fill="#2e3192"/>
        <path id="Tracciato_109549" data-name="Tracciato 109549" d="M2317.711,2342.937h-2.419v-.2a1.209,1.209,0,0,1,2.419,0Z" transform="translate(-2058.491 -2081.885)" fill="#2e3192"/>
        <rect id="Rettangolo_165708" data-name="Rettangolo 165708" width="4.539" height="0.225" transform="translate(256.697 261.052)" fill="#f9e0d2"/>
        <path id="Tracciato_109550" data-name="Tracciato 109550" d="M2533.279,2341.532a.958.958,0,0,0,0,1.406h3.662l-.131-1.406h-2.043a1.568,1.568,0,0,1-1.487,0" transform="translate(-2252.017 -2081.886)" fill="#2e3192"/>
        <rect id="Rettangolo_165709" data-name="Rettangolo 165709" width="5" height="0.225" transform="translate(281.136 261.052)" fill="#f9e0d2"/>
        <path id="Tracciato_109551" data-name="Tracciato 109551" d="M2567.661,2341.532a1.21,1.21,0,0,1,1.21,1.21v.2h-1.21Z" transform="translate(-2282.869 -2081.886)" fill="#2e3192"/>
        <path id="Tracciato_109552" data-name="Tracciato 109552" d="M2445.93,1756.755c-1.435-1.317-3.163-3.068-3.514-4.153-.619-1.919.744-2.312.744-2.312a12.831,12.831,0,0,1,5.534,3.243,21.045,21.045,0,0,1-1.587,2,15.119,15.119,0,0,1-1.177,1.221" transform="translate(-2171.372 -1556.222)" fill="#f9e0d2"/>
        <path id="Tracciato_109553" data-name="Tracciato 109553" d="M2041.9,1823.6l1.008-4.2a5.3,5.3,0,0,0-2.475-.9c-1.188-.1-1.809.3-3.331.431a9.949,9.949,0,0,1-2.575-.123l-.1.414,4.183,1a.854.854,0,1,1-.163.68l-4.183-1-.1.414a9.936,9.936,0,0,1,2.35,1.059c1.3.8,1.668,1.445,2.772,1.9a5.3,5.3,0,0,0,2.612.324" transform="translate(-1808.546 -1616.859)" fill="#fdc854"/>
        <path id="Tracciato_109554" data-name="Tracciato 109554" d="M2042.419,1832.8l-2.29-.55c0,.021-.007.042-.012.063a.854.854,0,0,1-1.669-.041l-4.183-1-.1.414a9.936,9.936,0,0,1,2.35,1.059c1.3.8,1.668,1.445,2.772,1.9a5.3,5.3,0,0,0,2.612.324l.519-2.161" transform="translate(-1808.546 -1628.216)" fill="#f89f4f"/>
        <path id="Tracciato_109555" data-name="Tracciato 109555" d="M2156.894,1843.8a2.461,2.461,0,0,0,1.008-4.2l-53.665-12.885-.266.4a4.931,4.931,0,0,0-.8,3.23q.029.284.058.568Z" transform="translate(-1869.875 -1624.175)" fill="#8a8aff"/>
        <path id="Tracciato_109556" data-name="Tracciato 109556" d="M2158.724,1860.179a.231.231,0,0,0,.011-.051c-.009,0-.137.347-.261.694q-13.9-3.026-27.711-6.44-13.785-3.409-27.475-7.2a7.581,7.581,0,0,0-.036,1.361c.013.2.033.389.058.568l53.665,12.885a2.466,2.466,0,0,0,1.75-1.812" transform="translate(-1869.955 -1642.363)" fill="#8754af"/>
        <path id="Tracciato_109557" data-name="Tracciato 109557" d="M2588.891,1943l-1,4.18a2.46,2.46,0,0,0,1-4.18" transform="translate(-2300.852 -1727.561)" fill="#f89f4f"/>
        <path id="Tracciato_109558" data-name="Tracciato 109558" d="M2412.578,1944.883l1.241-5.172-.979-.235-1.067,4.531a.665.665,0,0,1-.8.491l-19.281-4.63a.987.987,0,0,0,.729,1.189l18.969,4.554a.987.987,0,0,0,1.19-.729" transform="translate(-2126.392 -1724.424)" fill="#f89f4f"/>
        <path id="Tracciato_109559" data-name="Tracciato 109559" d="M2425.435,1895.7c-1.164.024-1.44.152-1.458.272-.026.165.407.5.859.4a.785.785,0,0,0,.6-.668" transform="translate(-2155.12 -1685.501)" fill="#fb9c98"/>
        <path id="Tracciato_109560" data-name="Tracciato 109560" d="M2417.262,1750.6l-.6.536.235.895.717-.609Z" transform="translate(-2148.62 -1556.495)" fill="#f95f6a"/>
        <path id="Tracciato_109561" data-name="Tracciato 109561" d="M2401.648,1759.253a12.741,12.741,0,0,0-1.022,12.946l2.316-4.364Z" transform="translate(-2133.18 -1564.191)" fill="#f95f6a"/>
        <path id="Tracciato_109562" data-name="Tracciato 109562" d="M2217.116,1848.517a3.513,3.513,0,0,0-.715-.17c-.384.107-.641.58-.521.8a.313.313,0,0,0,.213.137.648.648,0,0,0,.638-.446l.384-.324" transform="translate(-1970.08 -1643.401)" fill="#fb9c98"/>
        <line id="Linea_3277" data-name="Linea 3277" x1="2.777" y2="3.989" transform="translate(270.884 205.713)" fill="none" stroke="#ffc5ae" stroke-linecap="round" stroke-width="3.714"/>
        <path id="Tracciato_109563" data-name="Tracciato 109563" d="M2444.132,1838.37c-.358.269-.674.5-.929.681l-.122.087c-.351.249-.558.388-.558.388l-.086-.491-.172-.983s1.763-2.7,3.467-4.9l.119-.153c.158-.2.315-.4.47-.591.3-.364.583-.7.853-.99.679.115,1.383.3,2.1.5.418.112.811.238,1.177.372a27.394,27.394,0,0,1-5.549,5.5c-.271.212-.528.409-.767.588" transform="translate(-2171.381 -1628.35)" fill="#f9e0d2"/>
        <path id="Tracciato_109564" data-name="Tracciato 109564" d="M2424.436,1892.14l-.676.578a2.108,2.108,0,0,1-.5.763,1.581,1.581,0,0,1-1.338.535c-.441-.109-.832-.554-.75-.784a.286.286,0,0,1,.181-.151l2.149-1.837Z" transform="translate(-2152.618 -1681.541)" fill="#fb9c98"/>
        <path id="Tracciato_109565" data-name="Tracciato 109565" d="M2413.994,1710.429l-.4,3.351-1.517.691-1.189-.992.462-3.571Z" transform="translate(-2143.479 -1520.319)" fill="#fb9c98"/>
        <path id="Tracciato_109566" data-name="Tracciato 109566" d="M2412.392,1709.908l2.649.521-.029.242c-.278,1.146-1.423,2.209-2.513,1.973a1.477,1.477,0,0,1-.438-.173Z" transform="translate(-2144.526 -1520.319)" fill="#f26d6d"/>
        <path id="Tracciato_109567" data-name="Tracciato 109567" d="M2407.262,1682.955a2.29,2.29,0,0,0-1.437,1.311c-.527,1.084-.52,2.912.588,3.483,1.04.536,2.562-.29,3.119-1.446a2.5,2.5,0,0,0-.387-2.859,2.084,2.084,0,0,0-1.882-.489" transform="translate(-2138.68 -1496.303)" fill="#f6a19e"/>
        <path id="Tracciato_109568" data-name="Tracciato 109568" d="M2401.61,1708.407a1.2,1.2,0,0,1-.542.875c-.417.2-.94-.078-1.368-.306-.741-.394-.907-.773-1.407-.787a1.224,1.224,0,0,0-.7.221c-.222.277-.709.962-.5,1.549.314.882,2.041,1.079,3.191.59,1.043-.444,1.887-1.571,1.659-1.965a.442.442,0,0,0-.333-.177" transform="translate(-2131.174 -1518.791)" fill="#2e3192"/>
        <path id="Tracciato_109569" data-name="Tracciato 109569" d="M2407.294,1667.188a2.358,2.358,0,0,0,.21-1.968c-.081-.159-.355-.686-.809-.753-.143-.021-.228.015-1.309.4a1.208,1.208,0,0,1-.573.089,1.608,1.608,0,0,1-1.078-.876,1.717,1.717,0,0,1,.25-1.892c.744-.705,2.21-.113,2.941.422a3.888,3.888,0,0,1,1.349,3.5,1.2,1.2,0,0,1-.182.544,1.337,1.337,0,0,1-.8.533" transform="translate(-2136.973 -1477.602)" fill="#2e3192"/>
        <path id="Tracciato_109570" data-name="Tracciato 109570" d="M2438.358,1706.2a.584.584,0,1,0-.779.275.584.584,0,0,0,.779-.275" transform="translate(-2166.92 -1516.281)" fill="#f6a19e"/>
        <path id="Tracciato_109571" data-name="Tracciato 109571" d="M2397.606,1969.861a4.965,4.965,0,0,0-1.666-3.32" transform="translate(-2130.194 -1748.488)" fill="none" stroke="#2e3192" stroke-width="0.53"/>
        <path id="Tracciato_109572" data-name="Tracciato 109572" d="M2233.186,1431.258c-1.572.187-3.318.641-3.789,1.829-.961,2.422,4.478,5.122,3.919,8.492-.553,3.339-6.778,6.042-8.753,4.442-1.18-.956-.874-3.5,0-5.1,2.189-4,9.26-4.463,11.7-1.992.622.628,1.448,1.956,1.059,2.5a1.2,1.2,0,0,1-1.64-.029c-.516-.758.752-3.381,2.519-3.515,1.99-.151,3.6,2.93,3.082,3.688a1.055,1.055,0,0,1-1.437,0c-.493-.69.729-3.234,2.5-3.447,2.044-.245,3.858,2.723,3.376,3.577a1.255,1.255,0,0,1-1.7.131c-.388-.564.791-2.217,2.09-3.136a6.955,6.955,0,0,1,2.744-1.045,14.4,14.4,0,0,1,4.309-.3" transform="translate(-1977.137 -1272.575)" fill="none" stroke="#4463cd" stroke-linecap="round" stroke-linejoin="round" stroke-width="1.74"/>
        <path id="Rettangolo_165710" data-name="Rettangolo 165710" d="M11.07,0H30.2a11.07,11.07,0,0,1,11.07,11.07v0A11.07,11.07,0,0,1,30.2,22.14H11.07A11.07,11.07,0,0,1,0,11.07v0A11.07,11.07,0,0,1,11.07,0Z" transform="translate(240.433 155.216)" fill="none" stroke="#4463cd" stroke-linecap="round" stroke-linejoin="round" stroke-width="1.74"/>
        <path id="Tracciato_109573" data-name="Tracciato 109573" d="M1858.538,1911.364v-10.609a15,15,0,0,0-30,0v10.609" transform="translate(-1625.728 -1676.664)" fill="none" stroke="#d3d5fc" stroke-linecap="round" stroke-linejoin="round" stroke-width="6.09"/>
        <rect id="Rettangolo_165711" data-name="Rettangolo 165711" width="37.633" height="27.948" transform="translate(201.842 233.303)" fill="#f89f4f"/>
        <rect id="Rettangolo_165712" data-name="Rettangolo 165712" width="37.633" height="27.948" transform="translate(196.816 233.303)" fill="#fdc854"/>
        <path id="Tracciato_109574" data-name="Tracciato 109574" d="M1918.113,2181.833a3.707,3.707,0,1,0-3.707,3.707,3.707,3.707,0,0,0,3.707-3.707" transform="translate(-1698.774 -1936.604)" fill="#f89f4f"/>
        <rect id="Rettangolo_165713" data-name="Rettangolo 165713" width="4.358" height="8.472" transform="translate(213.453 244.56)" fill="#f89f4f"/>
        <rect id="Rettangolo_165714" data-name="Rettangolo 165714" width="5.353" height="4.544" transform="translate(230.133 228.759)" fill="#f89f4f"/>
      </g>
    </g>
  </g>
</svg>
