<svg xmlns="http://www.w3.org/2000/svg" width="48" height="48" viewBox="0 0 48 48"><defs><style>.a{fill:none;}.b{fill:#fff;}.c{fill:#003575;}</style></defs><g transform="translate(-24 -32)"><rect class="a" width="48" height="48" transform="translate(24 32)"/><g transform="translate(25.074 33.097)"><g transform="translate(3.026 7.672)"><rect class="b" width="38.347" height="32.3"/></g><g transform="translate(2.33 3.419)"><g transform="translate(8.955 13.528)"><rect class="c" width="1.719" height="1.719"/></g><g transform="translate(14.071 13.528)"><rect class="c" width="1.719" height="1.719"/></g><g transform="translate(19.188 13.528)"><rect class="c" width="1.719" height="1.719"/></g><g transform="translate(24.304 13.528)"><rect class="c" width="1.719" height="1.719"/></g><g transform="translate(29.421 13.528)"><rect class="c" width="1.719" height="1.719"/></g><g transform="translate(8.955 18.645)"><rect class="c" width="1.719" height="1.719"/></g><g transform="translate(14.071 18.645)"><rect class="c" width="1.719" height="1.719"/></g><g transform="translate(19.188 18.645)"><rect class="c" width="1.719" height="1.719"/></g><g transform="translate(24.304 18.645)"><rect class="c" width="1.719" height="1.719"/></g><g transform="translate(29.421 18.645)"><rect class="c" width="1.719" height="1.719"/></g><g transform="translate(8.955 23.761)"><rect class="c" width="1.719" height="1.719"/></g><g transform="translate(14.071 23.761)"><rect class="c" width="1.719" height="1.719"/></g><g transform="translate(19.188 23.761)"><rect class="c" width="1.719" height="1.719"/></g><g transform="translate(24.304 23.761)"><rect class="c" width="1.719" height="1.719"/></g><g transform="translate(29.421 23.761)"><rect class="c" width="1.719" height="1.719"/></g><g transform="translate(8.955 28.878)"><rect class="c" width="1.719" height="1.719"/></g><g transform="translate(14.071 28.878)"><rect class="c" width="1.719" height="1.719"/></g><g transform="translate(19.188 28.878)"><rect class="c" width="1.719" height="1.719"/></g><g transform="translate(24.304 28.878)"><rect class="c" width="1.719" height="1.719"/></g><path class="c" d="M3.19,41.689a.86.86,0,0,1-.86-.859V7.2a.861.861,0,0,1,.86-.859H8.307a.419.419,0,0,0,.42-.42V4.279a.859.859,0,1,1,1.719,0V5.926a.419.419,0,0,0,.42.42h2.558a.419.419,0,0,0,.42-.42V4.279a.859.859,0,1,1,1.719,0V5.926a.419.419,0,0,0,.42.42H18.54a.419.419,0,0,0,.42-.42V4.279a.859.859,0,1,1,1.719,0V5.926a.419.419,0,0,0,.42.42h2.558a.42.42,0,0,0,.421-.42V4.279a.859.859,0,1,1,1.718,0V5.926a.42.42,0,0,0,.421.42h2.558a.419.419,0,0,0,.42-.42V4.279a.859.859,0,1,1,1.719,0V5.926a.419.419,0,0,0,.42.42H33.89a.419.419,0,0,0,.42-.42V4.279a.859.859,0,1,1,1.719,0V5.926a.419.419,0,0,0,.42.42h5.117a.861.861,0,0,1,.859.859V40.831a.86.86,0,0,1-.859.859ZM4.47,8.064a.42.42,0,0,0-.421.42V39.551a.42.42,0,0,0,.421.42H40.285a.419.419,0,0,0,.42-.42V8.484a.419.419,0,0,0-.42-.42H36.448a.419.419,0,0,0-.42.42v1.647a.859.859,0,1,1-1.719,0V8.484a.419.419,0,0,0-.42-.42H31.331a.419.419,0,0,0-.42.42v1.647a.859.859,0,1,1-1.719,0V8.484a.419.419,0,0,0-.42-.42H26.215a.42.42,0,0,0-.421.42v1.647a.859.859,0,1,1-1.718,0V8.484a.42.42,0,0,0-.421-.42H21.1a.419.419,0,0,0-.42.42v1.647a.859.859,0,1,1-1.719,0V8.484a.419.419,0,0,0-.42-.42H15.981a.419.419,0,0,0-.42.42v1.647a.859.859,0,1,1-1.719,0V8.484a.419.419,0,0,0-.42-.42H10.865a.419.419,0,0,0-.42.42v1.647a.859.859,0,1,1-1.719,0V8.484a.419.419,0,0,0-.42-.42Z" transform="translate(-2.33 -3.419)"/></g></g></g></svg>