<svg xmlns="http://www.w3.org/2000/svg" width="48" height="48" viewBox="0 0 48 48"><defs><style>.a{fill:none;}.b{fill:#73d7ff;}.c{fill:#003575;}</style></defs><g transform="translate(13113 1165)"><rect class="a" width="48" height="48" transform="translate(-13113 -1165)"/><g transform="translate(-13110 -1161.418)"><path class="b" d="M35.192,33s5.286,2.895,8.651,0l.5,1.311,2.912.244,1.222,3.37V40.2l-5.406,3.334-4.031.664-5.406-.736L30.64,42,30,38.989l.64-2.8,1-1.635,3.4-.364Z" transform="translate(-13.208 -14.528)"/><path class="c" d="M33.382,30.226A15.324,15.324,0,0,1,18.3,18.053a15.057,15.057,0,0,1,9.215-16.9A15.552,15.552,0,0,1,46.194,6.722,14.907,14.907,0,0,1,44.276,25.8,15.469,15.469,0,0,1,33.382,30.226Zm0-28.545A13.622,13.622,0,0,0,19.957,12.487a13.384,13.384,0,0,0,8.177,15.035,13.824,13.824,0,0,0,16.614-4.941,13.251,13.251,0,0,0-1.7-16.963A13.751,13.751,0,0,0,33.382,1.681Z" transform="translate(-7.925 0)"/><path class="c" d="M3.745,57.472h0A3.779,3.779,0,0,1,1.106,56.4a3.424,3.424,0,0,1-.1-4.949L13.841,39l.588.839a13.408,13.408,0,0,0,3.737,3.632l.865.57L6.21,56.49A3.517,3.517,0,0,1,3.745,57.472Zm9.88-15.9L2.231,52.64a1.79,1.79,0,0,0,.1,2.575,2.03,2.03,0,0,0,1.419.579h0a1.759,1.759,0,0,0,1.237-.487l11.4-11.039a15.433,15.433,0,0,1-1.462-1.25,14.927,14.927,0,0,1-1.3-1.443Z" transform="translate(-1 -16.17)"/><path class="c" d="M42.758,20.755c-2.671,0-4.758-2.9-4.758-6.6C38,9.507,41.326,9,42.758,9s4.758.5,4.758,5.158C47.516,17.853,45.42,20.755,42.758,20.755Zm0-10.12c-2.025,0-3.012,1.153-3.012,3.523,0,2.689,1.379,4.962,3.012,4.962s3.012-2.272,3.012-4.962c-.009-2.379-.986-3.531-3.012-3.531Z" transform="translate(-16.73 -3.962)"/><path class="c" d="M58.854,39.956h-.059a.87.87,0,0,1-.781-.937c.084-1.38-.076-3.909-.882-4.82a.823.823,0,0,0-.681-.318,4.3,4.3,0,0,1-3.3-1.495.918.918,0,0,1,.129-1.157.809.809,0,0,1,1.107-.019,2.622,2.622,0,0,0,2.067.884,2.466,2.466,0,0,1,1.908.884c1.571,1.769,1.361,5.7,1.336,6.191A.857.857,0,0,1,58.854,39.956Z" transform="translate(-23.334 -13.648)"/><path class="c" d="M30,40.516a.812.812,0,0,1-.808-.682c-.081-.476-.735-4.747.913-6.726a2.769,2.769,0,0,1,2.206-1.027,2.588,2.588,0,0,0,2-.821.8.8,0,0,1,1.143-.037.832.832,0,0,1,.036,1.162,4.232,4.232,0,0,1-3.183,1.339,1.155,1.155,0,0,0-.953.427c-.986,1.191-.727,4.369-.558,5.388a.82.82,0,0,1-.663.944Z" transform="translate(-12.767 -13.648)"/><path class="c" d="M22.216,50.038a.834.834,0,0,1-.592-.242l-3.333-3.331a.833.833,0,1,1,1.175-1.174L22.8,48.622a.833.833,0,0,1-.583,1.416Z" transform="translate(-7.925 -19.811)"/></g></g></svg>