<svg id="Raggruppa_31421" data-name="Raggruppa 31421" xmlns="http://www.w3.org/2000/svg" xmlns:xlink="http://www.w3.org/1999/xlink" width="230.84" height="197.576" viewBox="0 0 230.84 197.576">
  <defs>
    <clipPath id="clip-path">
      <rect id="Rettangolo_165558" data-name="Rettangolo 165558" width="230.84" height="197.576" fill="none"/>
    </clipPath>
    <clipPath id="clip-path-3">
      <rect id="Rettangolo_165533" data-name="Rettangolo 165533" width="136.757" height="136.758" fill="none"/>
    </clipPath>
    <clipPath id="clip-path-4">
      <rect id="Rettangolo_165534" data-name="Rettangolo 165534" width="166.647" height="166.648" fill="none"/>
    </clipPath>
    <clipPath id="clip-path-5">
      <rect id="Rettangolo_165536" data-name="Rettangolo 165536" width="54.786" height="49.484" fill="none"/>
    </clipPath>
    <clipPath id="clip-path-8">
      <rect id="Rettangolo_165541" data-name="Rettangolo 165541" width="27.605" height="28.422" fill="none"/>
    </clipPath>
    <clipPath id="clip-path-9">
      <rect id="Rettangolo_165543" data-name="Rettangolo 165543" width="12.892" height="15.799" fill="none"/>
    </clipPath>
    <clipPath id="clip-path-10">
      <rect id="Rettangolo_165544" data-name="Rettangolo 165544" width="30.266" height="30.265" fill="none"/>
    </clipPath>
    <clipPath id="clip-path-11">
      <rect id="Rettangolo_165546" data-name="Rettangolo 165546" width="16.998" height="24.356" fill="none"/>
    </clipPath>
    <clipPath id="clip-path-12">
      <rect id="Rettangolo_165547" data-name="Rettangolo 165547" width="16.998" height="24.357" fill="none"/>
    </clipPath>
    <clipPath id="clip-path-13">
      <rect id="Rettangolo_165548" data-name="Rettangolo 165548" width="20.696" height="27.883" fill="none"/>
    </clipPath>
    <clipPath id="clip-path-14">
      <rect id="Rettangolo_165549" data-name="Rettangolo 165549" width="6.422" height="5.868" fill="none"/>
    </clipPath>
    <clipPath id="clip-path-15">
      <rect id="Rettangolo_165550" data-name="Rettangolo 165550" width="6.874" height="6.385" fill="none"/>
    </clipPath>
    <clipPath id="clip-path-16">
      <rect id="Rettangolo_165551" data-name="Rettangolo 165551" width="4.632" height="4.301" fill="none"/>
    </clipPath>
    <clipPath id="clip-path-17">
      <rect id="Rettangolo_165553" data-name="Rettangolo 165553" width="32.957" height="20.045" fill="none"/>
    </clipPath>
    <clipPath id="clip-path-18">
      <rect id="Rettangolo_165555" data-name="Rettangolo 165555" width="42.741" height="3.48" fill="none"/>
    </clipPath>
    <clipPath id="clip-path-19">
      <rect id="Rettangolo_165556" data-name="Rettangolo 165556" width="52.319" height="5.233" fill="none"/>
    </clipPath>
  </defs>
  <g id="Raggruppa_31420" data-name="Raggruppa 31420" clip-path="url(#clip-path)">
    <g id="Raggruppa_31419" data-name="Raggruppa 31419">
      <g id="Raggruppa_31418" data-name="Raggruppa 31418" clip-path="url(#clip-path)">
        <path id="Tracciato_109331" data-name="Tracciato 109331" d="M253.37,146.1a63.29,63.29,0,0,1-63.3,63.305c-1.349,0-2.69-.041-4.013-.132a63.308,63.308,0,0,1-49.7-96.705c.451-.732.921-1.447,1.405-2.154.732-1.069,1.488-2.113,2.287-3.133a.5.5,0,0,1,.081-.107A63.309,63.309,0,0,1,253.37,146.1" transform="translate(-22.53 -14.715)" fill="#fde9b0"/>
        <g id="Raggruppa_31369" data-name="Raggruppa 31369" transform="translate(91.161 4.564)" opacity="0.3">
          <g id="Raggruppa_31368" data-name="Raggruppa 31368">
            <g id="Raggruppa_31367" data-name="Raggruppa 31367" clip-path="url(#clip-path-3)">
              <path id="Tracciato_109332" data-name="Tracciato 109332" d="M247.625,73.928A68.379,68.379,0,1,1,179.247,5.55a68.378,68.378,0,0,1,68.378,68.378" transform="translate(-110.867 -5.55)" fill="#faba00"/>
            </g>
          </g>
        </g>
        <g id="Raggruppa_31372" data-name="Raggruppa 31372" transform="translate(0 16.102)" opacity="0.6">
          <g id="Raggruppa_31371" data-name="Raggruppa 31371">
            <g id="Raggruppa_31370" data-name="Raggruppa 31370" clip-path="url(#clip-path-4)">
              <path id="Tracciato_109333" data-name="Tracciato 109333" d="M166.647,102.909A83.324,83.324,0,1,1,83.324,19.584a83.323,83.323,0,0,1,83.324,83.325" transform="translate(0 -19.583)" fill="#cbcfff"/>
            </g>
          </g>
        </g>
        <g id="Raggruppa_31375" data-name="Raggruppa 31375" transform="translate(93.676 69.103)" opacity="0.3">
          <g id="Raggruppa_31374" data-name="Raggruppa 31374">
            <g id="Raggruppa_31373" data-name="Raggruppa 31373" clip-path="url(#clip-path-5)">
              <rect id="Rettangolo_165535" data-name="Rettangolo 165535" width="54.786" height="49.484" rx="3.224" transform="translate(0 0)" fill="#5d6db1"/>
            </g>
          </g>
        </g>
        <g id="Raggruppa_31378" data-name="Raggruppa 31378" transform="translate(24.751 68.661)" opacity="0.3">
          <g id="Raggruppa_31377" data-name="Raggruppa 31377">
            <g id="Raggruppa_31376" data-name="Raggruppa 31376" clip-path="url(#clip-path-5)">
              <rect id="Rettangolo_165537" data-name="Rettangolo 165537" width="54.786" height="49.484" rx="3.224" transform="translate(0 0)" fill="#5d6db1"/>
            </g>
          </g>
        </g>
        <g id="Raggruppa_31381" data-name="Raggruppa 31381" transform="translate(161.275 68.661)" opacity="0.3">
          <g id="Raggruppa_31380" data-name="Raggruppa 31380">
            <g id="Raggruppa_31379" data-name="Raggruppa 31379" clip-path="url(#clip-path-5)">
              <rect id="Rettangolo_165539" data-name="Rettangolo 165539" width="54.786" height="49.484" rx="3.224" transform="translate(0 0)" fill="#5d6db1"/>
            </g>
          </g>
        </g>
        <path id="Tracciato_109334" data-name="Tracciato 109334" d="M163.379,75.361v44.18a2.646,2.646,0,0,1-2.648,2.648H111.24a2.646,2.646,0,0,1-2.648-2.648V75.361a2.653,2.653,0,0,1,2.648-2.656h49.491a2.653,2.653,0,0,1,2.648,2.656" transform="translate(-19.302 -12.923)" fill="#5b74bb"/>
        <g id="Raggruppa_31384" data-name="Raggruppa 31384" transform="translate(105.035 70.473)" opacity="0.3">
          <g id="Raggruppa_31383" data-name="Raggruppa 31383">
            <g id="Raggruppa_31382" data-name="Raggruppa 31382" clip-path="url(#clip-path-8)">
              <path id="Tracciato_109335" data-name="Tracciato 109335" d="M147.954,112.659a16.756,16.756,0,0,1-7.473,1.47,12.406,12.406,0,0,1-12.741-12.863c0-8.331,6.044-15.559,15.272-15.559,7.187,0,12.333,4.942,12.333,11.8,0,5.961-3.349,9.719-7.759,9.719a3.2,3.2,0,0,1-3.512-3.145h-.082a5.994,5.994,0,0,1-5.268,3.145c-2.653,0-4.573-1.96-4.573-5.308a9.326,9.326,0,0,1,9.556-9.515,11.464,11.464,0,0,1,4.86,1.02l-1.225,7.555c-.408,2.409-.123,3.512,1.02,3.553,1.757.04,3.96-2.205,3.96-6.9,0-5.309-3.429-9.434-9.758-9.434-6.247,0-11.72,4.9-11.72,12.7,0,6.819,4.369,10.7,10.454,10.7a13.267,13.267,0,0,0,5.92-1.307ZM144.32,95.794a5.007,5.007,0,0,0-1.265-.164c-2.7,0-4.819,2.655-4.819,5.8,0,1.551.694,2.532,2.042,2.532,1.51,0,3.1-1.919,3.472-4.288Z" transform="translate(-127.741 -85.707)" fill="#343e8b"/>
            </g>
          </g>
        </g>
        <path id="Tracciato_109336" data-name="Tracciato 109336" d="M145.954,110.326a16.756,16.756,0,0,1-7.473,1.47,12.406,12.406,0,0,1-12.741-12.863c0-8.331,6.044-15.559,15.272-15.559,7.187,0,12.333,4.942,12.333,11.8,0,5.962-3.349,9.719-7.759,9.719a3.2,3.2,0,0,1-3.512-3.144h-.082a6,6,0,0,1-5.268,3.144c-2.653,0-4.573-1.96-4.573-5.308a9.326,9.326,0,0,1,9.556-9.515,11.464,11.464,0,0,1,4.859,1.02l-1.225,7.555c-.408,2.409-.123,3.512,1.02,3.553,1.757.04,3.96-2.205,3.96-6.9,0-5.309-3.429-9.434-9.758-9.434-6.247,0-11.72,4.9-11.72,12.7,0,6.819,4.369,10.7,10.454,10.7a13.267,13.267,0,0,0,5.92-1.307ZM142.32,93.461a5.007,5.007,0,0,0-1.265-.164c-2.7,0-4.819,2.655-4.819,5.8,0,1.551.694,2.532,2.042,2.532,1.51,0,3.1-1.919,3.472-4.288Z" transform="translate(-22.35 -14.82)" fill="#fff"/>
        <rect id="Rettangolo_165542" data-name="Rettangolo 165542" width="54.786" height="49.484" rx="3.224" transform="translate(20.365 59.342)" fill="#1f66ab"/>
        <g id="Raggruppa_31387" data-name="Raggruppa 31387" transform="translate(111.499 93.467)" style="mix-blend-mode: multiply;isolation: isolate">
          <g id="Raggruppa_31386" data-name="Raggruppa 31386">
            <g id="Raggruppa_31385" data-name="Raggruppa 31385" clip-path="url(#clip-path-9)">
              <path id="Tracciato_109337" data-name="Tracciato 109337" d="M148.494,129.471H141.95a82.711,82.711,0,0,1-6.349-15.483c4.868-2.237,9.9,7.894,12.893,15.483" transform="translate(-135.602 -113.672)" fill="#cad9fc"/>
            </g>
          </g>
        </g>
        <g id="Raggruppa_31390" data-name="Raggruppa 31390" transform="translate(33.778 71.595)" opacity="0.3">
          <g id="Raggruppa_31389" data-name="Raggruppa 31389">
            <g id="Raggruppa_31388" data-name="Raggruppa 31388" clip-path="url(#clip-path-10)">
              <path id="Tracciato_109338" data-name="Tracciato 109338" d="M43.381,102.375a34.775,34.775,0,0,0,5.3,7.008,1.579,1.579,0,0,0,.173.183c.058.06.115.123.173.183a35.4,35.4,0,0,0,7.019,5.288c5.561,3.037,9.152,3.153,12.464-.158l2.839-2.839-8.13-8.132c-3.108,2.86-3.978,6.909-7.961,2.768L53.676,105.1l-.356-.355-1.577-1.577C47.6,99.18,51.651,98.31,54.51,95.2l-8.131-8.131-2.84,2.84c-3.31,3.311-3.194,6.9-.157,12.464" transform="translate(-41.08 -87.072)" fill="#8e384f"/>
              <path id="Tracciato_109339" data-name="Tracciato 109339" d="M75.772,115.678l-8.131-8.131a17.206,17.206,0,0,0-1.66,1.811l8.056,8.056Z" transform="translate(-45.506 -90.711)" fill="#8e384f"/>
              <path id="Tracciato_109340" data-name="Tracciato 109340" d="M47.15,87.072,55.281,95.2a17.32,17.32,0,0,1-1.811,1.661l-8.055-8.057Z" transform="translate(-41.851 -87.072)" fill="#8e384f"/>
            </g>
          </g>
        </g>
        <path id="Tracciato_109341" data-name="Tracciato 109341" d="M41.692,98.141a34.776,34.776,0,0,0,5.3,7.008,1.511,1.511,0,0,0,.173.183c.058.06.115.123.173.183a35.418,35.418,0,0,0,7.018,5.288c5.562,3.037,9.153,3.153,12.465-.158l2.839-2.84-8.13-8.131c-3.108,2.86-3.978,6.909-7.962,2.768l-1.577-1.578-.356-.355-1.577-1.578c-4.142-3.983-.092-4.854,2.767-7.961l-8.131-8.131-2.84,2.84c-3.31,3.311-3.194,6.9-.157,12.464" transform="translate(-7.002 -14.724)" fill="#fff"/>
        <path id="Tracciato_109342" data-name="Tracciato 109342" d="M74.082,111.443l-8.131-8.131a17.208,17.208,0,0,0-1.66,1.811l8.056,8.056Z" transform="translate(-11.428 -18.364)" fill="#cae3fc"/>
        <path id="Tracciato_109343" data-name="Tracciato 109343" d="M45.46,82.837l8.131,8.131a17.4,17.4,0,0,1-1.811,1.661l-8.056-8.057Z" transform="translate(-7.772 -14.724)" fill="#cae3fc"/>
        <rect id="Rettangolo_165545" data-name="Rettangolo 165545" width="54.786" height="49.484" rx="3.224" transform="translate(156.889 59.342)" fill="#649df6"/>
        <path id="Tracciato_109344" data-name="Tracciato 109344" d="M169.681,124.553s17.418-.166,24.465,15.563l-2.449,7.848s-18.207-18-22.016-23.41" transform="translate(-30.16 -22.139)" fill="#e7a588"/>
        <g id="Raggruppa_31393" data-name="Raggruppa 31393" transform="translate(143.893 103.448)" style="mix-blend-mode: multiply;isolation: isolate">
          <g id="Raggruppa_31392" data-name="Raggruppa 31392">
            <g id="Raggruppa_31391" data-name="Raggruppa 31391" clip-path="url(#clip-path-11)">
              <path id="Tracciato_109345" data-name="Tracciato 109345" d="M175,125.811s11.313,3.034,17,21.907l-4.066,2.449S177.644,131.36,175,125.811" transform="translate(-174.999 -125.811)" fill="#f4d7b6"/>
            </g>
          </g>
        </g>
        <path id="Tracciato_109346" data-name="Tracciato 109346" d="M159.184,122.537s13.043-4.262,26.693,18.132l-6.225,5.163s-16.658-17.888-20.467-23.3" transform="translate(-28.295 -21.723)" fill="#e7a588"/>
        <g id="Raggruppa_31396" data-name="Raggruppa 31396" transform="translate(133.371 100.931)" style="mix-blend-mode: multiply;isolation: isolate">
          <g id="Raggruppa_31395" data-name="Raggruppa 31395">
            <g id="Raggruppa_31394" data-name="Raggruppa 31394" clip-path="url(#clip-path-12)">
              <path id="Tracciato_109347" data-name="Tracciato 109347" d="M162.2,122.749s11.313,3.035,17,21.91l-4.066,2.447S164.846,128.3,162.2,122.749" transform="translate(-162.202 -122.749)" fill="#f4d7b6"/>
            </g>
          </g>
        </g>
        <path id="Tracciato_109348" data-name="Tracciato 109348" d="M148.724,118.979s13.034-2.221,27.273,21.942l-8.263,3.447s-15.043-19.55-19.01-25.389" transform="translate(-26.435 -21.139)" fill="#e7a588"/>
        <g id="Raggruppa_31399" data-name="Raggruppa 31399" transform="translate(119.942 97.603)" style="mix-blend-mode: multiply;isolation: isolate">
          <g id="Raggruppa_31398" data-name="Raggruppa 31398">
            <g id="Raggruppa_31397" data-name="Raggruppa 31397" clip-path="url(#clip-path-13)">
              <path id="Tracciato_109349" data-name="Tracciato 109349" d="M145.87,118.7s13.795,3.468,20.7,25.077l-4.963,2.806s-12.516-21.53-15.733-27.883" transform="translate(-145.87 -118.702)" fill="#f4d7b6"/>
            </g>
          </g>
        </g>
        <path id="Tracciato_109350" data-name="Tracciato 109350" d="M223.368,205.812a62.981,62.981,0,0,1-31.713,8.51c-1.349,0-2.69-.041-4.013-.132l-4.975-12.959c-3.766-5.427-13.222-6.233-16.379-7.392-9.489-3.511-12.555-6.109-28.935-34.847,0,0,3.009-5.6,11.274,3.527,6.98,7.145,8.658,10.961,11.667,10.5s6.06,2.327,1.513-12.876-21.757-39.032-21.757-39.032a34.372,34.372,0,0,0-2.1-3.626c-1.661-2.681-3.24-5.419-1.48-6.446,1.669-.978,3.141-.8,5.254,1.052a37.14,37.14,0,0,1,4.3,4.736s.2.222.558.625c.312.354.749.855,1.274,1.464,3.421,3.922,10.739,12.556,14.44,18.55.813,1.217,1.257,1.883,1.693,2.582s.863,1.423,1.645,2.722a.625.625,0,0,0,.058.107.252.252,0,0,1-.025-.115c-.1-.674.83-1.455,2.368-2.228a27.33,27.33,0,0,1,3.256-1.332c.6-.206,1.225-.411,1.876-.6.863-.263,1.726-.493,2.6-.707.65-.156,1.3-.3,1.94-.444,1-.206,2-.386,2.952-.526.379-.058.748-.107,1.11-.14,3.264-.395,5.863-.238,6.34.822,0,0,18.172,31.862,20.31,50.445Z" transform="translate(-24.119 -19.633)" fill="#e7a588"/>
        <g id="Raggruppa_31402" data-name="Raggruppa 31402" transform="translate(113.513 91.207)" style="mix-blend-mode: multiply;isolation: isolate">
          <g id="Raggruppa_31401" data-name="Raggruppa 31401">
            <g id="Raggruppa_31400" data-name="Raggruppa 31400" clip-path="url(#clip-path-14)">
              <path id="Tracciato_109351" data-name="Tracciato 109351" d="M144.473,115.293l-3.457,1.5s-4.492-4.378-2.418-5.645,5.528,3.225,5.875,4.147" transform="translate(-138.051 -110.923)" fill="#f4d7b6"/>
            </g>
          </g>
        </g>
        <g id="Raggruppa_31405" data-name="Raggruppa 31405" transform="translate(113.743 140.194)" style="mix-blend-mode: multiply;isolation: isolate">
          <g id="Raggruppa_31404" data-name="Raggruppa 31404">
            <g id="Raggruppa_31403" data-name="Raggruppa 31403" clip-path="url(#clip-path-15)">
              <path id="Tracciato_109352" data-name="Tracciato 109352" d="M138.331,170.5s4.777.212,6.874,4.446l-2.931,1.94Z" transform="translate(-138.331 -170.5)" fill="#f4d7b6"/>
            </g>
          </g>
        </g>
        <path id="Tracciato_109353" data-name="Tracciato 109353" d="M74.06,198.156c2.2-4.3,5.7-6.428,4.316-12.025-.551-2.236-2.232-3.632-3.009-5.607-.969-2.463-.161-2.938.162-5.531.7-5.6-2.821-6.756-4.853-11.017-1.417-2.974-.995-6.46-2.889-9.606-1.922-3.194-5.5-6.039-6.22-9.84-.527,6.732-4.8,17.069.335,22.742-3.1,2.079-3.675,6.166-2.242,9.371.687,1.533,2.922,2.722,3.321,4.338.545,2.2-.821,2.282-1,4.212-.563,6.132,17.229,14.867,12.533,21Z" transform="translate(-10.472 -25.69)" fill="#ffaaac"/>
        <path id="Tracciato_109354" data-name="Tracciato 109354" d="M63.746,157.8a14.713,14.713,0,0,1-4.036-2.26c.025-.185.052-.368.079-.554a13.858,13.858,0,0,0,3.87,2.262c-.135-.841-.261-1.677-.384-2.5-.109-.732-.217-1.461-.331-2.19-.109-.681-.249-1.376-.386-2.044-.116-.567-.235-1.153-.332-1.722-.06-.354-.143-.769-.231-1.21-.179-.89-.369-1.85-.455-2.731.008-.106.019-.212.03-.317a8.656,8.656,0,0,0,.752,2.2c.049.259.1.514.147.757.09.441.171.854.234,1.224.095.557.211,1.14.329,1.7.137.672.28,1.37.386,2.065.116.729.226,1.461.335,2.193.273,1.825.557,3.7.921,5.559,1.635-1.027,2.371-3.926,2.736-6.457.133.195.261.395.379.594-.41,2.588-1.242,5.387-3.013,6.366.044.2.081.409.123.615.391,1.8.858,3.577,1.362,5.341a16.774,16.774,0,0,0,3.371-6.28c.062.329.13.652.2.978a17.488,17.488,0,0,1-3.413,5.857c.44,1.515.9,3.014,1.358,4.489.03.1.044.143.058.188q.192.622.386,1.247a14.8,14.8,0,0,1,1.261-1.575,14.653,14.653,0,0,0,1.239-1.542,11.9,11.9,0,0,0,1.484-3.594c.123.165.244.326.366.483a11.762,11.762,0,0,1-1.447,3.382,14.971,14.971,0,0,1-1.279,1.59,12.7,12.7,0,0,0-1.371,1.744l-.123-.076c.577,1.884,1.152,3.811,1.664,5.744.025.1.053.2.08.3a10.771,10.771,0,0,1,1.693-2.082,11.214,11.214,0,0,0,1.02-1.144,20.3,20.3,0,0,0,2.6-4.649,7.353,7.353,0,0,1,.157.918,23.183,23.183,0,0,1-2.366,4.009,11.553,11.553,0,0,1-1.062,1.2,6.32,6.32,0,0,0-1.831,2.565c.814,3.072,1.686,6.3,2.593,9.454a49.428,49.428,0,0,1,1.337,7.218c.025.185.047.372.075.56-.086.151-.172.315-.255.475l.108,1.878c-.152-.949-.284-1.907-.408-2.847a48.8,48.8,0,0,0-1.32-7.146c-.916-3.169-1.788-6.417-2.6-9.5a.059.059,0,0,1-.016-.052c-.09-.349-.184-.695-.272-1.035-.181-.687-.372-1.363-.566-2.05a15.143,15.143,0,0,0-3.069-.6,20.567,20.567,0,0,1-2.442-.412,13.4,13.4,0,0,1-4.5-2.233c-.025-.209-.041-.418-.049-.626a13.754,13.754,0,0,0,4.665,2.39,19.363,19.363,0,0,0,2.384.4,18.563,18.563,0,0,1,2.843.524c-.466-1.61-.955-3.212-1.443-4.776a4.974,4.974,0,0,0-1.691-.5,8.076,8.076,0,0,1-1.415-.331,11.486,11.486,0,0,1-4.078-2.288,4.719,4.719,0,0,1,.3-.386,10.8,10.8,0,0,0,3.953,2.222,7.925,7.925,0,0,0,1.33.309,8.659,8.659,0,0,1,1.4.331c-.724-2.35-1.458-4.752-2.089-7.189-.17,0-.351,0-.537-.017a11.6,11.6,0,0,1-4.9-1.721c-.039-.212-.076-.427-.1-.646a10.9,10.9,0,0,0,5.422,1.9q-.292-1.141-.545-2.3c-.261-1.215-.482-2.44-.681-3.657" transform="translate(-10.474 -25.69)" fill="#fff"/>
        <path id="Tracciato_109355" data-name="Tracciato 109355" d="M77.842,214.183c-.07-.343-.133-.695-.195-1.041a9.223,9.223,0,0,1,.511.978Z" transform="translate(-13.802 -37.886)" fill="#fff"/>
        <path id="Tracciato_109356" data-name="Tracciato 109356" d="M39.444,176.3c4.652,2.722,17.908,1.293,16.137,9.633,6.121-.838,8.021,1.573,7.634,7.372.042-.627,2.247-.2,2.566-.008a6.062,6.062,0,0,1,1.473,1.867,14.852,14.852,0,0,1,1.322,5.6,48.273,48.273,0,0,0,1.378,6.768c-3.923-4.763-18.047-4.664-15.557-10.5-2.187.277-6.21,1.012-7.964-.766-2.244-2.282.391-4.661,2.393-5.813-8.51-1.073-7.62-4.776-6.465-8.959l-1.5-1.79a9.618,9.618,0,0,1-1.42-3.4" transform="translate(-7.011 -31.336)" fill="#5c75c3"/>
        <path id="Tracciato_109357" data-name="Tracciato 109357" d="M77.721,207.983c11.636-7.149,11.6-35.968,11.6-36.256l-.379,0c0,.285.036,28.892-11.419,35.93Z" transform="translate(-13.779 -30.524)" fill="#2e3054"/>
        <path id="Tracciato_109358" data-name="Tracciato 109358" d="M81.474,209.15c.015.126-1.457-6.737-4.6-6.231s4.612,6.357,4.612,6.357Z" transform="translate(-13.532 -36.064)" fill="#2e3054"/>
        <path id="Tracciato_109359" data-name="Tracciato 109359" d="M84.263,204.7s-3-7.829-5.366-6.266,5.366,6.266,5.366,6.266" transform="translate(-13.944 -35.235)" fill="#2e3054"/>
        <path id="Tracciato_109360" data-name="Tracciato 109360" d="M85.967,199.279s-3.822-8.41-6.737-6.27c-2.208,1.621,6.737,6.27,6.737,6.27" transform="translate(-14.021 -34.245)" fill="#2e3054"/>
        <path id="Tracciato_109361" data-name="Tracciato 109361" d="M88.554,189.7s-2.918-8.227-5.225-6.156,5.225,6.156,5.225,6.156" transform="translate(-14.733 -32.566)" fill="#2e3054"/>
        <path id="Tracciato_109362" data-name="Tracciato 109362" d="M87.849,193.694s-4.86-7.367-6.528-4.753c-1.122,1.758,6.528,4.753,6.528,4.753" transform="translate(-14.435 -33.484)" fill="#2e3054"/>
        <path id="Tracciato_109363" data-name="Tracciato 109363" d="M89.392,183.1s-3.387-8.94-5.666-6.614,5.666,6.614,5.666,6.614" transform="translate(-14.809 -31.301)" fill="#2e3054"/>
        <path id="Tracciato_109364" data-name="Tracciato 109364" d="M90.333,176.12s-1.97-7.829-3.227-5.5,3.227,5.5,3.227,5.5" transform="translate(-15.444 -30.251)" fill="#2e3054"/>
        <path id="Tracciato_109365" data-name="Tracciato 109365" d="M91.569,173.292s3.1-7.161.675-7.123-.675,7.123-.675,7.123" transform="translate(-16.167 -29.536)" fill="#2e3054"/>
        <path id="Tracciato_109366" data-name="Tracciato 109366" d="M91.078,176.4s7.293-2.162,5.252-4.221-5.252,4.221-5.252,4.221" transform="translate(-16.189 -30.531)" fill="#2e3054"/>
        <path id="Tracciato_109367" data-name="Tracciato 109367" d="M90.962,181.591s8.553-2.32,7.557-5.274-7.557,5.274-7.557,5.274" transform="translate(-16.168 -31.226)" fill="#2e3054"/>
        <path id="Tracciato_109368" data-name="Tracciato 109368" d="M89.906,186.932s11.33-2.651,9.56-5.639-9.56,5.639-9.56,5.639" transform="translate(-15.981 -32.113)" fill="#2e3054"/>
        <path id="Tracciato_109369" data-name="Tracciato 109369" d="M88.983,192.324s12.776-1.293,11.845-4.761-11.845,4.761-11.845,4.761" transform="translate(-15.817 -33.187)" fill="#2e3054"/>
        <path id="Tracciato_109370" data-name="Tracciato 109370" d="M86.764,201.722s11.386-4.327,12.288-1.1-12.288,1.1-12.288,1.1" transform="translate(-15.422 -35.447)" fill="#2e3054"/>
        <path id="Tracciato_109371" data-name="Tracciato 109371" d="M88.781,196.246s9.379-5.253,10.585-2.147-10.585,2.147-10.585,2.147" transform="translate(-15.781 -34.326)" fill="#2e3054"/>
        <path id="Tracciato_109372" data-name="Tracciato 109372" d="M85.7,205.107s10.194-2.516,9.583.89-9.76-.229-9.76-.229Z" transform="translate(-15.201 -36.298)" fill="#2e3054"/>
        <path id="Tracciato_109373" data-name="Tracciato 109373" d="M62.057,207.745c0,13.755,4.927,24.9,11,24.9s11-11.15,11-24.9Z" transform="translate(-11.031 -36.926)" fill="#7ab6f6"/>
        <path id="Tracciato_109374" data-name="Tracciato 109374" d="M62.057,236.951c0,.847,4.927,1.533,11,1.533s11-.686,11-1.533Z" transform="translate(-11.031 -42.118)" fill="#b0bcd8"/>
        <g id="Raggruppa_31408" data-name="Raggruppa 31408" transform="translate(53.172 172.781)" opacity="0.3">
          <g id="Raggruppa_31407" data-name="Raggruppa 31407">
            <g id="Raggruppa_31406" data-name="Raggruppa 31406" clip-path="url(#clip-path-16)">
              <path id="Tracciato_109375" data-name="Tracciato 109375" d="M64.666,212.281a2.323,2.323,0,1,0,2.316-2.15,2.236,2.236,0,0,0-2.316,2.15" transform="translate(-64.666 -210.131)" fill="#fff"/>
            </g>
          </g>
        </g>
        <g id="Raggruppa_31411" data-name="Raggruppa 31411" transform="translate(173.859 76.652)" opacity="0.3">
          <g id="Raggruppa_31410" data-name="Raggruppa 31410">
            <g id="Raggruppa_31409" data-name="Raggruppa 31409" clip-path="url(#clip-path-17)">
              <rect id="Rettangolo_165552" data-name="Rettangolo 165552" width="32.957" height="20.045" fill="#4e69a1"/>
            </g>
          </g>
        </g>
        <rect id="Rettangolo_165554" data-name="Rettangolo 165554" width="32.957" height="20.045" transform="translate(169.474 74.185)" fill="#e0eefc"/>
        <path id="Tracciato_109376" data-name="Tracciato 109376" d="M238.532,112.433l-15.795-10.022-15.795,10.022Z" transform="translate(-36.784 -18.203)" fill="#b9d2fc"/>
        <path id="Tracciato_109377" data-name="Tracciato 109377" d="M206.608,90.221l16.069,15.143,16.069-15.143Z" transform="translate(-36.724 -16.037)" fill="#fff"/>
        <path id="Tracciato_109378" data-name="Tracciato 109378" d="M194.494,47.666a12.642,12.642,0,1,1-12.642-12.642,12.643,12.643,0,0,1,12.642,12.642" transform="translate(-30.077 -6.225)" fill="#f3a9b8"/>
        <path id="Tracciato_109379" data-name="Tracciato 109379" d="M109.8,40.9A17.542,17.542,0,1,1,92.257,23.358,17.541,17.541,0,0,1,109.8,40.9" transform="translate(-13.28 -4.152)" fill="#bfd4f8"/>
        <path id="Tracciato_109380" data-name="Tracciato 109380" d="M142.7,14.766A14.766,14.766,0,1,1,127.935,0,14.765,14.765,0,0,1,142.7,14.766" transform="translate(-20.115)" fill="#cbcfff"/>
        <path id="Tracciato_109381" data-name="Tracciato 109381" d="M248.243,167.412a10.039,10.039,0,1,1-2.468-13.981,10.039,10.039,0,0,1,2.468,13.981" transform="translate(-40.878 -26.949)" fill="#a1d2f8"/>
        <path id="Tracciato_109382" data-name="Tracciato 109382" d="M83.113,45.663a.41.41,0,0,1-.184-.065,4.942,4.942,0,0,1-1.136-1.024,4.855,4.855,0,0,1-.423-.615.407.407,0,0,1-.057-.233c.247-4.167,3.7-8.306,8.583-10.3A15.416,15.416,0,0,1,97.172,32.3a11.673,11.673,0,0,1,3.745.985.412.412,0,0,1,.2.2,4.852,4.852,0,0,1,.473,2.172.411.411,0,0,1-.29.387l-6.648,2.038a.413.413,0,0,1-.457-.159,4.915,4.915,0,0,1-.67-1.375,4.967,4.967,0,0,1-.21-1.21l-.063-.016c-.023.012-.959.5-1.449.765l-3.451,1.848-1.039.557a.08.08,0,0,0-.039.061,4.918,4.918,0,0,1,1.662,2.176.411.411,0,0,1-.125.468l-5.4,4.383a.411.411,0,0,1-.3.09m-.971-2.015a3.776,3.776,0,0,0,.289.407,4.106,4.106,0,0,0,.7.683l4.918-3.991a4.1,4.1,0,0,0-1.37-1.615.409.409,0,0,1-.157-.21.913.913,0,0,1,.409-1.167l1.03-.552c1.2-.645,3.08-1.649,3.453-1.848.5-.265,1.447-.765,1.455-.769a.938.938,0,0,1,1.2.327.407.407,0,0,1,.062.215,4.089,4.089,0,0,0,.577,2.07l6.053-1.857a4.084,4.084,0,0,0-.174-.964,4.029,4.029,0,0,0-.154-.413,10.913,10.913,0,0,0-3.344-.852A14.6,14.6,0,0,0,90.2,34.191c-4.55,1.855-7.773,5.643-8.063,9.458" transform="translate(-14.453 -5.729)" fill="#fff"/>
        <path id="Tracciato_109383" data-name="Tracciato 109383" d="M93.9,50.52a4.094,4.094,0,1,1,1.469-.123,4.113,4.113,0,0,1-1.469.123m.719-7.327a3.231,3.231,0,0,0-1.173.1,3.264,3.264,0,1,0,1.173-.1" transform="translate(-16.035 -7.529)" fill="#fff"/>
        <path id="Tracciato_109384" data-name="Tracciato 109384" d="M87.421,53.61a1.289,1.289,0,0,1-1.055-1l-.718-2.654a13.552,13.552,0,0,1,.009-5.111.411.411,0,1,1,.807.162,12.713,12.713,0,0,0-.015,4.768l.711,2.621c.072.265.275.43.393.4L101.913,48.9a.225.225,0,0,0,.128-.139.642.642,0,0,0,.012-.4l-.718-2.654a12.4,12.4,0,0,0-2.927-4.623.411.411,0,0,1,.575-.588,13.235,13.235,0,0,1,3.135,4.964l.729,2.686a1.456,1.456,0,0,1-.046.928,1.027,1.027,0,0,1-.673.621l-14.36,3.886a.959.959,0,0,1-.347.029" transform="translate(-15.181 -7.177)" fill="#fff"/>
        <path id="Tracciato_109385" data-name="Tracciato 109385" d="M106.6,33.016a.412.412,0,0,1-.357-.3,2.711,2.711,0,0,0-3.326-1.908.411.411,0,0,1-.215-.794,3.535,3.535,0,0,1,4.335,2.489.412.412,0,0,1-.437.516" transform="translate(-18.201 -5.312)" fill="#fff"/>
        <path id="Tracciato_109386" data-name="Tracciato 109386" d="M185.153,59.621a1.285,1.285,0,1,1-.976-1.533,1.285,1.285,0,0,1,.976,1.533" transform="translate(-32.459 -10.32)" fill="#fff"/>
        <path id="Tracciato_109387" data-name="Tracciato 109387" d="M184.152,55.336a4.1,4.1,0,0,1-.886-.1,4.046,4.046,0,0,1-2.222-1.338.411.411,0,1,1,.624-.534,3.257,3.257,0,0,0,3.837.85.411.411,0,1,1,.34.748,4.083,4.083,0,0,1-1.694.371" transform="translate(-32.163 -9.46)" fill="#fff"/>
        <path id="Tracciato_109388" data-name="Tracciato 109388" d="M184.163,57.765a.411.411,0,0,1-.074-.816,5.316,5.316,0,0,0,4.236-4.086l.576-2.6a5.416,5.416,0,0,1-1.745-2.343c-1.3.382-5.395,1.36-9.1-.134a.411.411,0,1,1,.307-.762c4.1,1.65,8.89,0,8.938-.012a.408.408,0,0,1,.347.035.413.413,0,0,1,.2.29A4.253,4.253,0,0,0,189.6,49.77a.413.413,0,0,1,.155.418l-.632,2.853a6.136,6.136,0,0,1-4.889,4.718.4.4,0,0,1-.076.007" transform="translate(-31.603 -8.352)" fill="#fff"/>
        <path id="Tracciato_109389" data-name="Tracciato 109389" d="M188.367,58.311a.42.42,0,0,1-.089-.01.41.41,0,0,1-.312-.49l1.909-8.619a6.849,6.849,0,0,0-5.2-8.158l-.66-.146a6.842,6.842,0,0,0-8.157,5.2l-1.908,8.618a.408.408,0,0,1-.491.313.412.412,0,0,1-.312-.49l1.909-8.619a7.661,7.661,0,0,1,9.138-5.825l.66.146a7.673,7.673,0,0,1,5.825,9.14l-1.909,8.618a.412.412,0,0,1-.4.322" transform="translate(-30.775 -7.092)" fill="#fff"/>
        <path id="Tracciato_109390" data-name="Tracciato 109390" d="M178.639,55.637a.41.41,0,0,1-.238-.076c-2.321-1.644-1.265-5.956-1.219-6.14l.464-2.089a.411.411,0,1,1,.8.178l-.466,2.1c-.013.05-.969,3.96.894,5.279a.411.411,0,0,1-.238.747" transform="translate(-31.444 -8.356)" fill="#fff"/>
        <path id="Tracciato_109391" data-name="Tracciato 109391" d="M130.363,16.324a3.472,3.472,0,0,1-3.261-3.89,4.293,4.293,0,0,1,4.59-4.173,3.234,3.234,0,0,1,3.137,3.608c-.132,1.811-1.23,2.682-2.249,2.607a.8.8,0,0,1-.571-.279.991.991,0,0,1-.172-.76.073.073,0,0,0-.012-.046.071.071,0,0,0-.045-.021l-.045,0a.061.061,0,0,0-.055.025,1.807,1.807,0,0,1-1.691.894,1.291,1.291,0,0,1-1.113-1.521,2.754,2.754,0,0,1,2.944-2.544,3.123,3.123,0,0,1,1.183.312l-.546,2.066c-.168.61-.177,1.016-.021,1.24a.428.428,0,0,0,.331.187c.665.049,1.4-.734,1.5-2.129a2.788,2.788,0,0,0-2.705-3.222,3.7,3.7,0,0,0-3.9,3.726,3.021,3.021,0,0,0,2.864,3.483,3.806,3.806,0,0,0,1.785-.26l.118.405a4.287,4.287,0,0,1-2.065.292m1.28-5.606a2.111,2.111,0,0,0-2.1,2.048.843.843,0,0,0,.77,1.023c.714.053,1.429-.776,1.626-1.551l.346-1.319a.058.058,0,0,0-.036-.072,2.186,2.186,0,0,0-.6-.129" transform="translate(-22.59 -1.466)" fill="#fff"/>
        <path id="Tracciato_109392" data-name="Tracciato 109392" d="M130.542,21.232a2.934,2.934,0,0,1-3.329-.8l-6.343-7.345a.411.411,0,1,1,.622-.537l6.343,7.345a2.106,2.106,0,0,0,2.973.218l7.343-6.344a.412.412,0,0,1,.539.623l-7.344,6.341a2.908,2.908,0,0,1-.8.5" transform="translate(-21.467 -2.206)" fill="#fff"/>
        <path id="Tracciato_109393" data-name="Tracciato 109393" d="M138.641,12.082a.412.412,0,0,1-.467-.112l-6.341-7.345a2.107,2.107,0,0,0-2.972-.217l-7.347,6.341a.411.411,0,1,1-.537-.622l7.346-6.342a2.93,2.93,0,0,1,4.133.3l6.341,7.345a.411.411,0,0,1-.043.58.424.424,0,0,1-.113.069" transform="translate(-21.478 -0.546)" fill="#fff"/>
        <path id="Tracciato_109394" data-name="Tracciato 109394" d="M136.186,25.17a3.2,3.2,0,0,1-1.459.23l-11.879-.87a3.224,3.224,0,0,1-2.979-3.45l.653-8.908a.411.411,0,1,1,.82.06l-.653,8.908a2.4,2.4,0,0,0,2.219,2.57l11.878.87a2.4,2.4,0,0,0,2.57-2.219l.653-8.908a.411.411,0,1,1,.819.06l-.652,8.908a3.2,3.2,0,0,1-1.108,2.2,3.232,3.232,0,0,1-.883.544" transform="translate(-21.305 -2.096)" fill="#fff"/>
        <g id="Raggruppa_31414" data-name="Raggruppa 31414" transform="translate(37.102 194.095)" opacity="0.4">
          <g id="Raggruppa_31413" data-name="Raggruppa 31413">
            <g id="Raggruppa_31412" data-name="Raggruppa 31412" clip-path="url(#clip-path-18)">
              <path id="Tracciato_109395" data-name="Tracciato 109395" d="M87.864,237.793c0,.961-9.566,1.741-21.368,1.741s-21.373-.779-21.373-1.741,9.573-1.739,21.373-1.739,21.368.779,21.368,1.739" transform="translate(-45.123 -236.054)" fill="#98c4ff"/>
            </g>
          </g>
        </g>
        <g id="Raggruppa_31417" data-name="Raggruppa 31417" transform="translate(79.18 185.63)" opacity="0.3">
          <g id="Raggruppa_31416" data-name="Raggruppa 31416">
            <g id="Raggruppa_31415" data-name="Raggruppa 31415" clip-path="url(#clip-path-19)">
              <path id="Tracciato_109396" data-name="Tracciato 109396" d="M148.615,228.374c0,1.443-11.709,2.616-26.155,2.616S96.3,229.817,96.3,228.374s11.719-2.617,26.163-2.617,26.155,1.172,26.155,2.617" transform="translate(-96.297 -225.757)" fill="#da97b8"/>
            </g>
          </g>
        </g>
        <path id="Tracciato_109397" data-name="Tracciato 109397" d="M239.774,166.41a.423.423,0,0,1-.164-.034.41.41,0,0,1-.223-.239c-.094-.261-2.273-6.424-1.226-8.841a4.94,4.94,0,1,1,9.066,3.929c-1.048,2.417-7.035,5.04-7.289,5.151a.41.41,0,0,1-.164.035m2.923-11.269a4.117,4.117,0,0,0-3.781,2.482c-.706,1.631.446,5.858,1.1,7.817,1.877-.863,5.75-2.912,6.456-4.542a4.121,4.121,0,0,0-3.776-5.757" transform="translate(-42.282 -27.43)" fill="#fff"/>
        <path id="Tracciato_109398" data-name="Tracciato 109398" d="M243.116,162.168a2.69,2.69,0,0,1-2.467-3.761,2.69,2.69,0,1,1,2.467,3.761m0-4.559a1.868,1.868,0,0,0-.742,3.582,1.9,1.9,0,0,0,2.456-.97,1.87,1.87,0,0,0-1.714-2.611" transform="translate(-42.735 -27.869)" fill="#fff"/>
        <path id="Tracciato_109399" data-name="Tracciato 109399" d="M244.116,172.372a.422.422,0,0,1-.164-.034l-12.56-5.442a.411.411,0,0,1-.111-.682l3.53-3.193a.411.411,0,0,1,.439-.072l2.619,1.136a.411.411,0,1,1-.327.754l-2.376-1.03-2.86,2.587,11.387,4.934-.069-3.855-2.377-1.03a.411.411,0,0,1,.327-.755l2.621,1.136a.412.412,0,0,1,.247.37l.086,4.758a.411.411,0,0,1-.183.349.4.4,0,0,1-.229.07" transform="translate(-41.086 -28.958)" fill="#fff"/>
      </g>
    </g>
  </g>
</svg>
