<svg xmlns="http://www.w3.org/2000/svg" width="48" height="48" viewBox="0 0 48 48"><defs><style>.a{fill:none;}.b{fill:#fff;}.c{fill:#73d7ff;}.d{fill:#003575;}</style></defs><g transform="translate(-1072 -3087)"><rect class="a" width="48" height="48" transform="translate(1072 3087)"/><g transform="translate(1077.69 3093)"><path class="b" d="M29.705,1H13.483l-1.791.844L11,4.319V35.681H38.611V10.8" transform="translate(-2.943 -0.358)"/><path class="b" d="M13,2.252,29.943,2,30.4,6.518l8.921,5.03V35.4" transform="translate(-3.658 -0.716)"/><path class="c" d="M48.288,10.355,40,2v8.355Z" transform="translate(-13.262 -0.716)"/><path class="d" d="M2,34.419l32.856,0c.723,0,1.23-.629,1.23-1.52V11.1a.379.379,0,0,0-.382-.376H29.562a2.784,2.784,0,0,1-2.8-2.452V1.927a.378.378,0,0,0-.341-.376H10.9a1.279,1.279,0,0,0-1.23.858.37.37,0,0,0,0,.049V9.413c0,.427-.382.515-.816.515S8.1,9.84,8.1,9.413V2.458A2.751,2.751,0,0,1,10.9.006H27.609a.769.769,0,0,1,.2,0h0a.761.761,0,0,1,.274.229l9.341,9.178a.759.759,0,0,1,.15.229h0a.757.757,0,0,1,.042.2.5.5,0,0,0,0,.082V32.811a2.829,2.829,0,0,1-.688,2.162,2.927,2.927,0,0,1-2.071.992L2,36ZM28.715,3.169a.379.379,0,0,0-.382.376V8.277a.361.361,0,0,0,0,.057,1.28,1.28,0,0,0,1.23.817H34.05a.383.383,0,0,0,.361-.231.371.371,0,0,0-.087-.415l-5.335-5.23A.386.386,0,0,0,28.715,3.169Z" transform="translate(-1.321)"/><path class="c" d="M9.085,51.54l.533-.18" transform="translate(-3.141 -18.374)"/><path class="c" d="M.554,34,.31,46.842" transform="translate(0 -12.161)"/><path class="c" d="M0,0,19.7.774l.765,24.268H0Z" transform="translate(1.395 9.639)"/><path class="d" d="M9.725,29.284a.647.647,0,1,1,0-1.284H20.46a.647.647,0,1,1,0,1.284Z" transform="translate(-3.69 -13.144)"/><path class="d" d="M0,39.906S.058,25.764.058,25.634V16.125A2.021,2.021,0,0,1,1.955,14h17.98a2.021,2.021,0,0,1,1.9,2.125V40.2a.691.691,0,1,1-1.374,0V16.125a.565.565,0,0,0-.523-.586H1.955a.565.565,0,0,0-.523.586V40.484" transform="translate(0.679 -5.003)"/><path class="d" d="M9.725,29.284a.647.647,0,1,1,0-1.284H20.46a.647.647,0,1,1,0,1.284Z" transform="translate(-3.69 -9.291)"/><path class="d" d="M9.725,29.284a.647.647,0,1,1,0-1.284H20.46a.647.647,0,1,1,0,1.284Z" transform="translate(-3.69 -1.584)"/><path class="d" d="M9.725,29.284a.647.647,0,1,1,0-1.284H20.46a.647.647,0,1,1,0,1.284Z" transform="translate(-3.69 -5.437)"/></g></g></svg>