<svg id="Raggruppa_31730" data-name="Raggruppa 31730" xmlns="http://www.w3.org/2000/svg" xmlns:xlink="http://www.w3.org/1999/xlink" width="200.025" height="167.564" viewBox="0 0 200.025 167.564">
  <defs>
    <clipPath id="clip-path">
      <rect id="Rettangolo_165866" data-name="Rettangolo 165866" width="200.025" height="167.564" fill="none"/>
    </clipPath>
    <clipPath id="clip-path-3">
      <rect id="Rettangolo_165823" data-name="Rettangolo 165823" width="15.273" height="22.885" fill="none"/>
    </clipPath>
    <clipPath id="clip-path-4">
      <rect id="Rettangolo_165824" data-name="Rettangolo 165824" width="11.669" height="22.885" fill="none"/>
    </clipPath>
    <clipPath id="clip-path-5">
      <rect id="Rettangolo_165828" data-name="Rettangolo 165828" width="15.274" height="22.885" fill="none"/>
    </clipPath>
    <clipPath id="clip-path-11">
      <rect id="Rettangolo_165843" data-name="Rettangolo 165843" width="15.275" height="27.909" fill="none"/>
    </clipPath>
    <clipPath id="clip-path-12">
      <rect id="Rettangolo_165844" data-name="Rettangolo 165844" width="11.67" height="27.909" fill="none"/>
    </clipPath>
    <clipPath id="clip-path-13">
      <rect id="Rettangolo_165849" data-name="Rettangolo 165849" width="163.487" height="9.55" fill="none"/>
    </clipPath>
    <clipPath id="clip-path-14">
      <rect id="Rettangolo_165856" data-name="Rettangolo 165856" width="16.912" height="44.746" fill="none"/>
    </clipPath>
    <clipPath id="clip-path-15">
      <rect id="Rettangolo_165857" data-name="Rettangolo 165857" width="12.921" height="44.746" fill="none"/>
    </clipPath>
    <clipPath id="clip-path-16">
      <rect id="Rettangolo_165859" data-name="Rettangolo 165859" width="163.487" height="37.527" fill="none"/>
    </clipPath>
    <clipPath id="clip-path-17">
      <rect id="Rettangolo_165863" data-name="Rettangolo 165863" width="11.342" height="14.693" fill="none"/>
    </clipPath>
  </defs>
  <g id="Raggruppa_31729" data-name="Raggruppa 31729" clip-path="url(#clip-path)">
    <g id="Raggruppa_31728" data-name="Raggruppa 31728">
      <g id="Raggruppa_31727" data-name="Raggruppa 31727" clip-path="url(#clip-path)">
        <path id="Tracciato_109710" data-name="Tracciato 109710" d="M842.99,523.13a7.516,7.516,0,0,0-4.885-11.2c0-.116.009-.233.009-.351A9.093,9.093,0,1,0,820.92,515.7a9.095,9.095,0,0,0,.858,17.579,7.514,7.514,0,0,0,13.04,2.353,7.515,7.515,0,0,0,8.172-12.5" transform="translate(-645.698 -398.322)" fill="#7f9c42"/>
        <path id="Tracciato_109711" data-name="Tracciato 109711" d="M840.62,589.011a7.483,7.483,0,0,1-3.389-.808,7.514,7.514,0,0,1-13.04-2.353,9.094,9.094,0,0,1-5.661-14.008,9.092,9.092,0,0,0,3.249,16.42,7.514,7.514,0,0,0,13.04,2.353,7.513,7.513,0,0,0,9.77-2.738,7.477,7.477,0,0,1-3.969,1.134" transform="translate(-645.698 -453.304)" fill="#667d35"/>
        <path id="Tracciato_109712" data-name="Tracciato 109712" d="M886.609,645.875s2.134,14.66.093,25.051h4.453s.168-20.17-.844-23.445-3.7-1.606-3.7-1.606" transform="translate(-702.821 -511.652)" fill="#754c24"/>
        <path id="Tracciato_109713" data-name="Tracciato 109713" d="M904.96,647.295s1.856-4.268,2.784-4.268-2.784,7.052-2.784,7.052Z" transform="translate(-717.368 -509.732)" fill="#754c24"/>
        <path id="Tracciato_109714" data-name="Tracciato 109714" d="M875.7,627.11s-2.041-5.567-2.784-5.567.371,3.34.371,3.34-2.969-1.113-3.34-.557,3.209,1.485,3.646,4.268,2.107-1.484,2.107-1.484" transform="translate(-689.591 -492.701)" fill="#754c24"/>
        <path id="Tracciato_109715" data-name="Tracciato 109715" d="M895.114,634.89s1.113-3.711,2.041-3.526-1.114,2.783,0,5.01a2.992,2.992,0,0,1-.9,3.711Z" transform="translate(-709.563 -500.481)" fill="#754c24"/>
        <path id="Tracciato_109716" data-name="Tracciato 109716" d="M.132,755.359A3.261,3.261,0,0,1,4.388,751.8l.066.024a3.261,3.261,0,0,1,5.9-2.1,3.262,3.262,0,0,1,4.268,3.366,3.261,3.261,0,1,1-1.016,5.865,3.262,3.262,0,0,1-5.109-.563,3.248,3.248,0,0,1-2.306.1,3.331,3.331,0,0,1-.388-.158,3.261,3.261,0,0,1-5.669-2.964" transform="translate(0 -593.237)" fill="#7f9c42"/>
        <path id="Tracciato_109717" data-name="Tracciato 109717" d="M1.859,780.041a3.263,3.263,0,0,0,3.568-1.048,3.327,3.327,0,0,0,.388.158,3.248,3.248,0,0,0,2.306-.1,3.262,3.262,0,0,0,5.109.563,3.262,3.262,0,0,0,5-3.43A3.262,3.262,0,0,1,13.921,781a3.261,3.261,0,0,1-5.109-.563,3.248,3.248,0,0,1-2.695-.062A3.261,3.261,0,0,1,.4,779.056a3.244,3.244,0,0,0,1.459.986" transform="translate(-0.317 -615.29)" fill="#667d35"/>
        <path id="Tracciato_109718" data-name="Tracciato 109718" d="M51.409,763.562a1.444,1.444,0,0,0-1.262,1.027v-.012a1.444,1.444,0,1,1,2.823.291,1.444,1.444,0,0,0-1.559-1.306" transform="translate(-39.746 -604.844)" fill="#667d35"/>
        <path id="Tracciato_109719" data-name="Tracciato 109719" d="M21.5,770.6a1.444,1.444,0,0,0-.642,1.5l-.007-.01a1.444,1.444,0,1,1,2.636-1.052A1.444,1.444,0,0,0,21.5,770.6" transform="translate(-16.353 -610.278)" fill="#667d35"/>
        <path id="Tracciato_109720" data-name="Tracciato 109720" d="M829.066,755.359a3.262,3.262,0,0,1,4.256-3.562l.066.024a68.206,68.206,0,0,0,12,1.328,11.238,11.238,0,0,1-10.265,5.333,3.336,3.336,0,0,1-.388-.158,3.261,3.261,0,0,1-5.669-2.964" transform="translate(-657.101 -593.237)" fill="#7f9c42"/>
        <path id="Tracciato_109721" data-name="Tracciato 109721" d="M830.793,780.041a3.263,3.263,0,0,0,3.568-1.048,3.311,3.311,0,0,0,.388.158,3.259,3.259,0,0,1,4.052,1.285,3.261,3.261,0,0,1,4.157-.426,3.263,3.263,0,0,0,4.208-3.821,9.491,9.491,0,0,1-12.114,4.188,3.261,3.261,0,0,1-5.718-1.321,3.243,3.243,0,0,0,1.459.986" transform="translate(-657.419 -615.29)" fill="#667d35"/>
        <path id="Tracciato_109722" data-name="Tracciato 109722" d="M880.343,763.562a1.444,1.444,0,0,0-1.262,1.027v-.012a1.444,1.444,0,1,1,2.823.291,1.444,1.444,0,0,0-1.559-1.306" transform="translate(-696.848 -604.844)" fill="#667d35"/>
        <path id="Tracciato_109723" data-name="Tracciato 109723" d="M850.437,770.6a1.444,1.444,0,0,0-.642,1.5l-.007-.01a1.444,1.444,0,1,1,2.636-1.052,1.444,1.444,0,0,0-1.987-.433" transform="translate(-673.454 -610.278)" fill="#667d35"/>
        <path id="Tracciato_109724" data-name="Tracciato 109724" d="M225.669,47.3V180.549H62.182V47.3l52.411-19.828,29.332-11.1,29.332,11.1Z" transform="translate(-49.292 -12.985)" fill="#a5c8cf"/>
        <path id="Tracciato_109725" data-name="Tracciato 109725" d="M373.682,27.477V180.55H315.018V27.477l29.332-11.1Z" transform="translate(-249.717 -12.985)" fill="#faba00"/>
        <rect id="Rettangolo_165821" data-name="Rettangolo 165821" width="35.22" height="26.997" transform="translate(21.53 43.664)" fill="#42210b"/>
        <rect id="Rettangolo_165822" data-name="Rettangolo 165822" width="30.876" height="22.885" transform="translate(23.702 45.72)" fill="#529bba"/>
        <g id="Raggruppa_31684" data-name="Raggruppa 31684" transform="translate(26.103 45.72)" opacity="0.4" style="mix-blend-mode: screen;isolation: isolate">
          <g id="Raggruppa_31683" data-name="Raggruppa 31683">
            <g id="Raggruppa_31682" data-name="Raggruppa 31682" clip-path="url(#clip-path-3)">
              <path id="Tracciato_109726" data-name="Tracciato 109726" d="M141.2,220.559l-7.738,22.885h-7.536l7.739-22.885Z" transform="translate(-125.922 -220.559)" fill="#999"/>
            </g>
          </g>
        </g>
        <g id="Raggruppa_31687" data-name="Raggruppa 31687" transform="translate(37.896 45.72)" opacity="0.4" style="mix-blend-mode: screen;isolation: isolate">
          <g id="Raggruppa_31686" data-name="Raggruppa 31686">
            <g id="Raggruppa_31685" data-name="Raggruppa 31685" clip-path="url(#clip-path-4)">
              <path id="Tracciato_109727" data-name="Tracciato 109727" d="M194.483,220.559l-7.738,22.885h-3.932l7.738-22.885Z" transform="translate(-182.814 -220.559)" fill="#999"/>
            </g>
          </g>
        </g>
        <rect id="Rettangolo_165825" data-name="Rettangolo 165825" width="2.483" height="26.997" transform="translate(37.899 43.703)" fill="#42210b"/>
        <rect id="Rettangolo_165826" data-name="Rettangolo 165826" width="35.22" height="26.997" transform="translate(132.947 43.664)" fill="#42210b"/>
        <rect id="Rettangolo_165827" data-name="Rettangolo 165827" width="30.876" height="22.885" transform="translate(135.119 45.72)" fill="#529bba"/>
        <g id="Raggruppa_31690" data-name="Raggruppa 31690" transform="translate(137.519 45.72)" opacity="0.4" style="mix-blend-mode: screen;isolation: isolate">
          <g id="Raggruppa_31689" data-name="Raggruppa 31689">
            <g id="Raggruppa_31688" data-name="Raggruppa 31688" clip-path="url(#clip-path-5)">
              <path id="Tracciato_109728" data-name="Tracciato 109728" d="M678.678,220.559l-7.738,22.885H663.4l7.739-22.885Z" transform="translate(-663.405 -220.559)" fill="#999"/>
            </g>
          </g>
        </g>
        <g id="Raggruppa_31693" data-name="Raggruppa 31693" transform="translate(149.312 45.72)" opacity="0.4" style="mix-blend-mode: screen;isolation: isolate">
          <g id="Raggruppa_31692" data-name="Raggruppa 31692">
            <g id="Raggruppa_31691" data-name="Raggruppa 31691" clip-path="url(#clip-path-4)">
              <path id="Tracciato_109729" data-name="Tracciato 109729" d="M731.966,220.559l-7.738,22.885H720.3l7.738-22.885Z" transform="translate(-720.296 -220.559)" fill="#999"/>
            </g>
          </g>
        </g>
        <rect id="Rettangolo_165830" data-name="Rettangolo 165830" width="2.483" height="26.997" transform="translate(149.316 43.703)" fill="#42210b"/>
        <rect id="Rettangolo_165831" data-name="Rettangolo 165831" width="35.22" height="26.997" transform="translate(21.53 108.923)" fill="#42210b"/>
        <rect id="Rettangolo_165832" data-name="Rettangolo 165832" width="30.876" height="22.885" transform="translate(23.702 110.979)" fill="#529bba"/>
        <g id="Raggruppa_31696" data-name="Raggruppa 31696" transform="translate(26.103 110.979)" opacity="0.4" style="mix-blend-mode: screen;isolation: isolate">
          <g id="Raggruppa_31695" data-name="Raggruppa 31695">
            <g id="Raggruppa_31694" data-name="Raggruppa 31694" clip-path="url(#clip-path-3)">
              <path id="Tracciato_109730" data-name="Tracciato 109730" d="M141.2,535.37l-7.738,22.885h-7.536l7.739-22.885Z" transform="translate(-125.922 -535.37)" fill="#999"/>
            </g>
          </g>
        </g>
        <g id="Raggruppa_31699" data-name="Raggruppa 31699" transform="translate(37.896 110.979)" opacity="0.4" style="mix-blend-mode: screen;isolation: isolate">
          <g id="Raggruppa_31698" data-name="Raggruppa 31698">
            <g id="Raggruppa_31697" data-name="Raggruppa 31697" clip-path="url(#clip-path-4)">
              <path id="Tracciato_109731" data-name="Tracciato 109731" d="M194.483,535.37l-7.738,22.885h-3.932l7.738-22.885Z" transform="translate(-182.814 -535.37)" fill="#999"/>
            </g>
          </g>
        </g>
        <rect id="Rettangolo_165835" data-name="Rettangolo 165835" width="2.483" height="26.997" transform="translate(37.899 108.961)" fill="#42210b"/>
        <rect id="Rettangolo_165836" data-name="Rettangolo 165836" width="35.22" height="26.997" transform="translate(132.947 108.923)" fill="#42210b"/>
        <rect id="Rettangolo_165837" data-name="Rettangolo 165837" width="30.876" height="22.885" transform="translate(135.119 110.979)" fill="#529bba"/>
        <g id="Raggruppa_31702" data-name="Raggruppa 31702" transform="translate(137.519 110.979)" opacity="0.4" style="mix-blend-mode: screen;isolation: isolate">
          <g id="Raggruppa_31701" data-name="Raggruppa 31701">
            <g id="Raggruppa_31700" data-name="Raggruppa 31700" clip-path="url(#clip-path-5)">
              <path id="Tracciato_109732" data-name="Tracciato 109732" d="M678.678,535.37l-7.738,22.885H663.4l7.739-22.885Z" transform="translate(-663.405 -535.37)" fill="#999"/>
            </g>
          </g>
        </g>
        <g id="Raggruppa_31705" data-name="Raggruppa 31705" transform="translate(149.312 110.979)" opacity="0.4" style="mix-blend-mode: screen;isolation: isolate">
          <g id="Raggruppa_31704" data-name="Raggruppa 31704">
            <g id="Raggruppa_31703" data-name="Raggruppa 31703" clip-path="url(#clip-path-4)">
              <path id="Tracciato_109733" data-name="Tracciato 109733" d="M731.966,535.37l-7.738,22.885H720.3l7.738-22.885Z" transform="translate(-720.296 -535.37)" fill="#999"/>
            </g>
          </g>
        </g>
        <rect id="Rettangolo_165840" data-name="Rettangolo 165840" width="2.483" height="26.997" transform="translate(149.316 108.961)" fill="#42210b"/>
        <rect id="Rettangolo_165841" data-name="Rettangolo 165841" width="52.752" height="32.923" transform="translate(68.371 51.373)" fill="#42210b"/>
        <rect id="Rettangolo_165842" data-name="Rettangolo 165842" width="48.408" height="27.909" transform="translate(70.543 53.88)" fill="#529bba"/>
        <g id="Raggruppa_31708" data-name="Raggruppa 31708" transform="translate(72.944 53.88)" opacity="0.4" style="mix-blend-mode: screen;isolation: isolate">
          <g id="Raggruppa_31707" data-name="Raggruppa 31707">
            <g id="Raggruppa_31706" data-name="Raggruppa 31706" clip-path="url(#clip-path-11)">
              <path id="Tracciato_109734" data-name="Tracciato 109734" d="M367.161,259.922l-7.738,27.909h-7.537l7.74-27.909Z" transform="translate(-351.886 -259.922)" fill="#999"/>
            </g>
          </g>
        </g>
        <g id="Raggruppa_31711" data-name="Raggruppa 31711" transform="translate(84.738 53.88)" opacity="0.4" style="mix-blend-mode: screen;isolation: isolate">
          <g id="Raggruppa_31710" data-name="Raggruppa 31710">
            <g id="Raggruppa_31709" data-name="Raggruppa 31709" clip-path="url(#clip-path-12)">
              <path id="Tracciato_109735" data-name="Tracciato 109735" d="M420.455,259.922l-7.738,27.909h-3.932l7.738-27.909Z" transform="translate(-408.784 -259.922)" fill="#999"/>
            </g>
          </g>
        </g>
        <rect id="Rettangolo_165845" data-name="Rettangolo 165845" width="2.483" height="32.923" transform="translate(84.741 51.42)" fill="#42210b"/>
        <rect id="Rettangolo_165846" data-name="Rettangolo 165846" width="2.483" height="32.923" transform="translate(102.27 51.42)" fill="#42210b"/>
        <rect id="Rettangolo_165847" data-name="Rettangolo 165847" width="168.944" height="5.912" transform="translate(10.161 83.888)" fill="#4d4d4d"/>
        <g id="Raggruppa_31714" data-name="Raggruppa 31714" transform="translate(12.89 89.8)" opacity="0.47" style="mix-blend-mode: multiply;isolation: isolate">
          <g id="Raggruppa_31713" data-name="Raggruppa 31713">
            <g id="Raggruppa_31712" data-name="Raggruppa 31712" clip-path="url(#clip-path-13)">
              <rect id="Rettangolo_165848" data-name="Rettangolo 165848" width="163.487" height="9.55" transform="translate(0 0)" fill="gray"/>
            </g>
          </g>
        </g>
        <rect id="Rettangolo_165850" data-name="Rettangolo 165850" width="168.83" height="1.819" transform="translate(10.161 73.656)" fill="#42210b"/>
        <rect id="Rettangolo_165851" data-name="Rettangolo 165851" width="168.83" height="1.819" transform="translate(10.161 77.749)" fill="#42210b"/>
        <rect id="Rettangolo_165852" data-name="Rettangolo 165852" width="2.046" height="10.232" transform="translate(10.161 73.656)" fill="#42210b"/>
        <rect id="Rettangolo_165853" data-name="Rettangolo 165853" width="2.046" height="10.232" transform="translate(177.059 73.656)" fill="#42210b"/>
        <rect id="Rettangolo_165854" data-name="Rettangolo 165854" width="38.997" height="49.299" transform="translate(75.134 109.128)" fill="#42210b"/>
        <rect id="Rettangolo_165855" data-name="Rettangolo 165855" width="34.187" height="44.746" transform="translate(77.539 111.404)" fill="#529bba"/>
        <g id="Raggruppa_31717" data-name="Raggruppa 31717" transform="translate(80.197 111.404)" opacity="0.4" style="mix-blend-mode: screen;isolation: isolate">
          <g id="Raggruppa_31716" data-name="Raggruppa 31716">
            <g id="Raggruppa_31715" data-name="Raggruppa 31715" clip-path="url(#clip-path-14)">
              <path id="Tracciato_109736" data-name="Tracciato 109736" d="M403.789,537.422l-8.567,44.746h-8.344l8.569-44.746Z" transform="translate(-386.878 -537.422)" fill="#999"/>
            </g>
          </g>
        </g>
        <g id="Raggruppa_31720" data-name="Raggruppa 31720" transform="translate(93.255 111.404)" opacity="0.4" style="mix-blend-mode: screen;isolation: isolate">
          <g id="Raggruppa_31719" data-name="Raggruppa 31719">
            <g id="Raggruppa_31718" data-name="Raggruppa 31718" clip-path="url(#clip-path-15)">
              <path id="Tracciato_109737" data-name="Tracciato 109737" d="M462.793,537.422l-8.567,44.746h-4.353l8.567-44.746Z" transform="translate(-449.872 -537.422)" fill="#999"/>
            </g>
          </g>
        </g>
        <rect id="Rettangolo_165858" data-name="Rettangolo 165858" width="2.749" height="49.299" transform="translate(93.259 109.171)" fill="#42210b"/>
        <g id="Raggruppa_31723" data-name="Raggruppa 31723" transform="translate(12.89 5.685)" opacity="0.47" style="mix-blend-mode: multiply;isolation: isolate">
          <g id="Raggruppa_31722" data-name="Raggruppa 31722">
            <g id="Raggruppa_31721" data-name="Raggruppa 31721" clip-path="url(#clip-path-16)">
              <path id="Tracciato_109738" data-name="Tracciato 109738" d="M225.669,58.389v6.564L143.923,33.989,62.182,64.874V58.312l81.745-30.885Z" transform="translate(-62.182 -27.427)" fill="gray"/>
            </g>
          </g>
        </g>
        <path id="Tracciato_109739" data-name="Tracciato 109739" d="M17.984,40.26l-2.17-5.743L107.17,0,198.3,34.518l-2.175,5.741-88.957-33.7Z" transform="translate(-12.536 0)" fill="#4d4d4d"/>
        <rect id="Rettangolo_165860" data-name="Rettangolo 165860" width="148.934" height="4.548" transform="translate(20.166 158.242)" fill="#4d4d4d"/>
        <rect id="Rettangolo_165861" data-name="Rettangolo 165861" width="148.934" height="1.592" transform="translate(20.166 161.198)" fill="#383838"/>
        <rect id="Rettangolo_165862" data-name="Rettangolo 165862" width="155.528" height="4.548" transform="translate(16.983 162.789)" fill="#4d4d4d"/>
        <path id="Tracciato_109740" data-name="Tracciato 109740" d="M429.87,96.019a9.436,9.436,0,1,1-9.436-9.436,9.436,9.436,0,0,1,9.436,9.436" transform="translate(-325.8 -68.635)" fill="#42210b"/>
        <path id="Tracciato_109741" data-name="Tracciato 109741" d="M435.649,103.845a7.391,7.391,0,0,1-6.367,7.319,6.886,6.886,0,0,1-.691.062c-.109.007-.221.009-.332.009a7.39,7.39,0,1,1,0-14.78,7.238,7.238,0,0,1,1.119.086,7.365,7.365,0,0,1,5.014,3.181,7.125,7.125,0,0,1,.482.825,7.356,7.356,0,0,1,.775,3.3" transform="translate(-333.626 -76.461)" fill="#529bba"/>
        <g id="Raggruppa_31726" data-name="Raggruppa 31726" transform="translate(89.424 20.081)" opacity="0.56" style="mix-blend-mode: screen;isolation: isolate">
          <g id="Raggruppa_31725" data-name="Raggruppa 31725">
            <g id="Raggruppa_31724" data-name="Raggruppa 31724" clip-path="url(#clip-path-17)">
              <path id="Tracciato_109742" data-name="Tracciato 109742" d="M442.731,100.052l-5.8,11.5c-.109.007-.221.009-.332.009a7.363,7.363,0,0,1-5.209-2.149l6.328-12.545a7.366,7.366,0,0,1,5.014,3.181" transform="translate(-431.389 -96.871)" fill="gray"/>
            </g>
          </g>
        </g>
        <rect id="Rettangolo_165864" data-name="Rettangolo 165864" width="2.274" height="16.371" transform="translate(93.496 19.085)" fill="#42210b"/>
      </g>
    </g>
  </g>
</svg>
