<svg id="Raggruppa_31366" data-name="Raggruppa 31366" xmlns="http://www.w3.org/2000/svg" xmlns:xlink="http://www.w3.org/1999/xlink" width="55.783" height="248" viewBox="0 0 55.783 248">
  <defs>
    <clipPath id="clip-path">
      <rect id="Rettangolo_165531" data-name="Rettangolo 165531" width="55.783" height="248" fill="none"/>
    </clipPath>
    <clipPath id="clip-path-3">
      <rect id="Rettangolo_165529" data-name="Rettangolo 165529" width="12.721" height="14.557" fill="none"/>
    </clipPath>
  </defs>
  <g id="Raggruppa_31365" data-name="Raggruppa 31365" clip-path="url(#clip-path)">
    <g id="Raggruppa_31364" data-name="Raggruppa 31364">
      <g id="Raggruppa_31363" data-name="Raggruppa 31363" clip-path="url(#clip-path)">
        <path id="Tracciato_109302" data-name="Tracciato 109302" d="M12.839,16.015l.119,4.008a25.269,25.269,0,0,1-2.52,13.553c-3.477,7.077-4.2,9.872-2.4,14.59s33.7,1.121,33.7,1.121,5.276-2.518,0-12.473-5.277-15.832-5.518-25.067A11.788,11.788,0,0,0,28.217.353L16.077,6.231Z" transform="translate(2.946 0.147)" fill="#592c32"/>
        <path id="Tracciato_109303" data-name="Tracciato 109303" d="M15.263,21.213s2.421,10.723-2.535,14.917,12.958,8.85,12.958,8.85l10.3-8.365S25.3,34.3,27.719,19.942s-12.456,1.271-12.456,1.271" transform="translate(4.929 5.765)" fill="#f88272"/>
        <g id="Raggruppa_31362" data-name="Raggruppa 31362" transform="translate(20.192 19.637)" style="mix-blend-mode: multiply;isolation: isolate">
          <g id="Raggruppa_31361" data-name="Raggruppa 31361">
            <g id="Raggruppa_31360" data-name="Raggruppa 31360" clip-path="url(#clip-path-3)">
              <path id="Tracciato_109304" data-name="Tracciato 109304" d="M26.72,19.942c2.415-14.363-12.456,1.271-12.456,1.271s.12-1.778.287,1.35c2.293,1.832,5.382,5.808,7.82,5.849,1.458.024,2.639.144,4.16-1.008a23.9,23.9,0,0,1,.188-7.463" transform="translate(-14.264 -13.872)" fill="#f88272"/>
            </g>
          </g>
        </g>
        <path id="Tracciato_109305" data-name="Tracciato 109305" d="M12.087,13.959s.6,6.476.6,8.035.958,3.839,3.478,6.237,6.769,3.838,9.528,3.478,7.043-5.41,7.163-10.448-.021-10.78-.021-10.78S31.877,2.206,27.2,1.965,11.559,7.493,12.087,13.959" transform="translate(5.016 0.814)" fill="#f88272"/>
        <path id="Tracciato_109306" data-name="Tracciato 109306" d="M28.761,1.939s-.36,8.416-8.876,14.222a17.223,17.223,0,0,1-8.155,4.008s-1.8.241-1.679-6.237S14.129.5,22.764.021c0,0,5.037-.361,6,1.918" transform="translate(4.175 0)" fill="#592c32"/>
        <path id="Tracciato_109307" data-name="Tracciato 109307" d="M22.165,3.5A7.407,7.407,0,0,1,25.4,8.9c.6,3.957,4.318,16.128,4.318,16.128A100.509,100.509,0,0,0,28.7,6.742S24.683-2.613,22.165,3.5" transform="translate(9.212 0.594)" fill="#592c32"/>
        <path id="Tracciato_109308" data-name="Tracciato 109308" d="M13.6,14.713s-1.195-1.8-2.514-1.56-.48,6.956,1.5,6.236S13.6,14.713,13.6,14.713" transform="translate(4.342 5.457)" fill="#f88272"/>
        <path id="Tracciato_109309" data-name="Tracciato 109309" d="M16.193,28.822S18.344,35.945,28.424,35c0,0,4.446.048,9.01-5.015l6.311,1.968L40.789,64.8l4.032,42.492,1.747,17.492-4.3,44.89s-15.9,3.092-29.858.94L5.173,129.756,10.817,85.4,11.9,43.068s-1.754-13.038,4.293-14.246" transform="translate(2.15 11.978)" fill="#d1cdeb"/>
        <path id="Tracciato_109310" data-name="Tracciato 109310" d="M21.6,128.431s6.808,37.632,5.89,41.126-1.062,12.5.085,16.4,2.76,9.946,5.18,9.677,4.166-14.515,1.345-23.386-.134-46.771-.134-46.771Z" transform="translate(8.976 52.146)" fill="#f88272"/>
        <path id="Tracciato_109311" data-name="Tracciato 109311" d="M33.779,164.574c-.416,2.687-1.461,5.4-3.872,6.473-2.023.9-3.337-.185-4.189-1.9.047.193.091.387.142.559,1.148,3.9,2.76,9.945,5.18,9.677,1.72-.191,3.1-7.443,2.739-14.807" transform="translate(10.689 68.395)" fill="#74414e"/>
        <path id="Tracciato_109312" data-name="Tracciato 109312" d="M11.507,127.809s3.739,38.06,2.538,41.468-2.071,12.372-1.243,16.35,1.946,10.137,4.381,10.065,5.328-14.13,3.232-23.2,3.655-46.628,3.655-46.628Z" transform="translate(4.782 52.308)" fill="#f88272"/>
        <path id="Tracciato_109313" data-name="Tracciato 109313" d="M20.758,164.923c-.633,2.644-1.894,5.265-4.384,6.139-2.089.733-3.31-.456-4.02-2.237.031.2.059.392.1.569.828,3.978,1.946,10.137,4.38,10.065,1.728-.052,3.689-7.169,3.928-14.537" transform="translate(5.134 68.54)" fill="#74414e"/>
        <path id="Tracciato_109314" data-name="Tracciato 109314" d="M10.817,71.426,5.172,115.778l7.238,40.858c13.956,2.15,29.858-.941,29.858-.941l4.3-44.89L44.821,93.313,41.892,62.457l-30.86.566Z" transform="translate(2.149 25.956)" fill="#e7b995"/>
        <path id="Tracciato_109315" data-name="Tracciato 109315" d="M9.481,31.156S5.6,32.5,4.791,34.113s5.624,28.493,4.69,36.422S2.1,105.21,5.455,128.865c0,0,11.867-30.509,10.165-66.393S9.481,31.156,9.481,31.156" transform="translate(1.868 12.87)" fill="#9393ac"/>
        <path id="Tracciato_109316" data-name="Tracciato 109316" d="M7.921,41.434a67.469,67.469,0,0,1,1.2,9.415,56.13,56.13,0,0,1-.088,9.494c-.481-3.145-.763-6.278-.973-9.428a85.006,85.006,0,0,1-.137-9.482" transform="translate(3.258 17.22)" fill="#787a8c"/>
        <path id="Tracciato_109317" data-name="Tracciato 109317" d="M33.481,30.247l4.165,2.285s-5.778,23.445-3.628,33.428,6.721,37.267,2.69,58.233c0,0-6.587-14.646-7.527-42.4s.8-42.943.8-42.943Z" transform="translate(12.011 12.57)" fill="#9393ac"/>
        <path id="Tracciato_109318" data-name="Tracciato 109318" d="M14.63,28.822a13.4,13.4,0,0,0-7.748,2.957s8.237,17.875,7.748,31.583c0,0,1.969-22.713,0-34.54" transform="translate(2.86 11.978)" fill="#787a8c"/>
        <path id="Tracciato_109319" data-name="Tracciato 109319" d="M28.272,28.822s-.941,27.457,0,31.872h.749s4.09-23.271,6.24-30.26a18.533,18.533,0,0,0-6.989-1.612" transform="translate(11.576 11.978)" fill="#787a8c"/>
        <path id="Tracciato_109320" data-name="Tracciato 109320" d="M8.263,32.573s-5.035-.251-6.784,6.758S1.748,51.721.808,59.782-1.207,73.848,3.631,75.147s21.835,1.174,29.9-5.279l1.316-2.523-23.5-.3L12.009,43.2Z" transform="translate(0 13.537)" fill="#9393ac"/>
        <path id="Tracciato_109321" data-name="Tracciato 109321" d="M24.4,53.63s1.806-3.8,8.7-3.647v4.588Z" transform="translate(10.138 20.771)" fill="#f88272"/>
        <path id="Tracciato_109322" data-name="Tracciato 109322" d="M14.433,53.313S9.509,52.07,8.215,55.064s.545,3.465.545,3.465H16.2Z" transform="translate(3.223 22.05)" fill="#f88272"/>
        <path id="Tracciato_109323" data-name="Tracciato 109323" d="M11.385,67.641V61.494s21.259-2.238,28.408-1.42c0,0,.968-26.331,5.134-28.213,0,0,6.585,1.074,5.78,12.97S53.07,68.215,48.6,71.139s-19.76-4.1-37.21-3.5" transform="translate(4.731 13.241)" fill="#9393ac"/>
        <path id="Tracciato_109324" data-name="Tracciato 109324" d="M30.561,56.265a31.586,31.586,0,0,1-.246-7.689,30.858,30.858,0,0,1,1.471-7.554c-.016,2.585-.232,5.1-.413,7.637-.215,2.53-.419,5.054-.811,7.606" transform="translate(12.548 17.048)" fill="#787a8c"/>
        <path id="Tracciato_109325" data-name="Tracciato 109325" d="M18.326,12.885c-.081-.521-.447-.895-.82-.838s-.606.527-.525,1.048.449.9.82.838.606-.527.525-1.048" transform="translate(7.051 5.004)" fill="#4e332b"/>
        <path id="Tracciato_109326" data-name="Tracciato 109326" d="M24.405,12.277c-.081-.521-.447-.895-.82-.838s-.606.527-.525,1.048.449.9.82.838.606-.527.525-1.048" transform="translate(9.577 4.751)" fill="#4e332b"/>
        <path id="Tracciato_109327" data-name="Tracciato 109327" d="M21.609,14a11.746,11.746,0,0,0,.735,1.049,8.419,8.419,0,0,1,.742,1.069,1.173,1.173,0,0,1,.123.907,1.129,1.129,0,0,1-.167.319.275.275,0,0,0-.052.1.714.714,0,0,1-.119.235,2.27,2.27,0,0,1-1.216.7,5.623,5.623,0,0,0,.723-.99,1.319,1.319,0,0,1,.03-.276c.035-.151.081-.238.078-.28a.9.9,0,0,0-.129-.33,6.393,6.393,0,0,1-.647-1.114,2.292,2.292,0,0,1-.1-1.387" transform="translate(8.951 5.82)" fill="#c83121"/>
        <path id="Tracciato_109328" data-name="Tracciato 109328" d="M23.58,9.443a1.057,1.057,0,0,0-1.042,1.35,5.666,5.666,0,0,1,3.79.2s.116-1.547-2.748-1.549" transform="translate(9.345 3.924)" fill="#7b414b"/>
        <path id="Tracciato_109329" data-name="Tracciato 109329" d="M18.382,10.009a1.056,1.056,0,0,1,1.288,1.117A5.677,5.677,0,0,0,16,12.071s-.42-1.493,2.387-2.063" transform="translate(6.638 4.15)" fill="#7b414b"/>
        <path id="Tracciato_109330" data-name="Tracciato 109330" d="M25.281,18.277a3.54,3.54,0,0,1-1.149,1.442,3.025,3.025,0,0,1-1.845.651,4.009,4.009,0,0,1-1.823-.565,5.11,5.11,0,0,1-1.411-1.157c.583.185,1.127.394,1.672.562a6.411,6.411,0,0,0,1.578.317,3.635,3.635,0,0,0,1.495-.36,9.585,9.585,0,0,0,1.484-.892" transform="translate(7.918 7.596)" fill="#b50707"/>
      </g>
    </g>
  </g>
</svg>
