<svg xmlns="http://www.w3.org/2000/svg" width="48" height="48" viewBox="0 0 48 48"><defs><style>.a{fill:none;}.b{fill:#73d7ff;}.c{fill:#003575;}</style></defs><g transform="translate(-1072 -3087)"><rect class="a" width="48" height="48" transform="translate(1072 3087)"/><g transform="translate(1075.013 3090.78)"><path class="b" d="M3.3,12.911,5.27,32.927H37L39.7,12.6Z" transform="translate(0.049 0.245)"/><g transform="translate(1.987 6)"><path class="c" d="M37.675,12.43H36.12V10.978a.709.709,0,0,0-.726-.726H19.63a2.287,2.287,0,0,1-1.556-.622L16,7.556a.792.792,0,0,0-.519-.207H6.874c-.415,0-.622.311-.622.726v4.252H4.8V8.178A2.1,2.1,0,0,1,6.874,6h8.711a2.287,2.287,0,0,1,1.556.622L19.215,8.7a.792.792,0,0,0,.519.207H35.6a2.191,2.191,0,0,1,2.178,2.178l-.1,1.348Z" transform="translate(-1.883 -6)"/><path class="c" d="M37.261,34.419H5.423a1.454,1.454,0,0,1-1.452-1.244L2,13.056A1.392,1.392,0,0,1,3.245,11.5H39.128a1.418,1.418,0,0,1,1.452,1.452v.1l-1.97,20.016A1.37,1.37,0,0,1,37.261,34.419ZM3.349,12.952l1.97,20.016H37.054l1.97-20.016Z" transform="translate(-1.987 -5.796)"/></g></g></g></svg>