<svg id="Livello_1" data-name="Livello 1" xmlns="http://www.w3.org/2000/svg" viewBox="0 0 85.04 85.04"><defs><style>.cls-1{fill:#005ca9;}</style></defs><title>ICO_calendario</title><path class="cls-1" d="M80.3,8.15H70.19V2.81H67.33V8.15H18.13V2.81H15.27V8.15H5.16V81.82H80.3ZM77.44,79H8V25.15H77.44Zm0-56.68H8V11h7.25v4.71h2.86V11h49.2v4.71h2.86V11h7.25Z"/><path class="cls-1" d="M24.87,32.55h-10v10h10ZM22,39.69H17.73V35.41H22Z"/><path class="cls-1" d="M40.11,32.55h-10v10h10Zm-2.86,7.14H33V35.41h4.28Z"/><path class="cls-1" d="M55.35,32.55h-10v10h10Zm-2.86,7.14H48.2V35.41h4.29Z"/><path class="cls-1" d="M70.58,32.55h-10v10h10Zm-2.86,7.14H63.44V35.41h4.28Z"/><path class="cls-1" d="M24.87,46.17h-10v10h10ZM22,53.32H17.73V49H22Z"/><rect class="cls-1" x="30.11" y="46.17" width="10" height="10"/><path class="cls-1" d="M55.35,46.17h-10v10h10Zm-2.86,7.15H48.2V49h4.29Z"/><path class="cls-1" d="M70.58,46.17h-10v10h10Zm-2.86,7.15H63.44V49h4.28Z"/><path class="cls-1" d="M24.87,59.8h-10v10h10ZM22,66.94H17.73V62.66H22Z"/><path class="cls-1" d="M40.11,59.8h-10v10h10Zm-2.86,7.14H33V62.66h4.28Z"/><path class="cls-1" d="M55.35,59.8h-10v10h10Zm-2.86,7.14H48.2V62.66h4.29Z"/></svg>