<svg xmlns="http://www.w3.org/2000/svg" width="48" height="48" viewBox="0 0 48 48"><defs><style>.a{fill:#1e3a6d;}.b{fill:#7ecef5;}.c{fill:none;}</style></defs><g transform="translate(13113 1165)"><g transform="translate(-13106 -1164.483)"><path class="a" d="M29.721,37.775,21.76,35V30.721a10.832,10.832,0,0,0,5.719-7.054c2.018-3.354,3.364-6.361,3.364-10.177C30.843,5.973,25.236,1,16.825,1,8.752,1,3.257,6.088,3.257,13.605c0,3.469,1.346,6.592,3.364,10.061a11.164,11.164,0,0,0,5.719,7.054V35L4.266,37.775A6.3,6.3,0,0,0,0,43.9a.538.538,0,0,0,.561.578H33.422a.656.656,0,0,0,.673-.694h0A6.515,6.515,0,0,0,29.721,37.775ZM7.182,10.83h0l-.112.116v.116a17.479,17.479,0,0,0-.785,5.32V20.2A15.1,15.1,0,0,1,4.6,13.605C4.6,6.782,9.537,2.272,17.05,2.272c6.392,0,12.784,3.469,12.784,11.333a15.684,15.684,0,0,1-1.682,6.823V16.5a16.149,16.149,0,0,0-1.009-5.551c-.112-.231-.224-.347-.449-.347h-.561c-2.018,1.272-4.934.925-9.419-1.156h-.561l-.112.116-.112.116v.116h0v.463h0l1.682,3.469a16.677,16.677,0,0,1-9.532-3.007l-.224.116H7.182Zm.224,9.83V16.381a17.7,17.7,0,0,1,.561-4.163,17.1,17.1,0,0,0,9.419,2.891H18.62c.112,0,.112,0,.224-.116h0c.112,0,.112-.116.224-.116v-.116a.112.112,0,0,1,.112-.116v-.231h0v-.231l-1.458-2.891a15.251,15.251,0,0,0,5.495,1.272,7.6,7.6,0,0,0,2.8-.578,14.38,14.38,0,0,1,.673,4.395V20.66a9.8,9.8,0,0,1-9.644,9.946A9.726,9.726,0,0,1,7.406,20.66ZM20.526,31.3v4.163h0c0,1.156-1.794,1.735-3.476,1.735s-3.476-.578-3.476-1.735h0V31.3a11.545,11.545,0,0,0,3.476.578h0A7.361,7.361,0,0,0,20.526,31.3ZM2.238,43.326a5.055,5.055,0,0,1,3.476-4.279l6.85-1.66a2.39,2.39,0,0,0,1.458,1.5,7.332,7.332,0,0,0,3.14.694c1.906,0,4.037-.694,4.6-2.2l6.737,1.66a5.2,5.2,0,0,1,3.476,4.279Z"/><path class="b" d="M3,80.926a5.032,5.032,0,0,1,3.428-4.271L14.169,74a2.373,2.373,0,0,0,1.438,1.5,7.158,7.158,0,0,0,3.1.693c1.88,0,3.981-.693,4.534-2.193l7.63,2.655a5.178,5.178,0,0,1,3.428,4.271Z" transform="translate(-1.496 -37.39)"/></g><rect class="c" width="48" height="48" transform="translate(-13113 -1165)"/></g></svg>