<svg xmlns="http://www.w3.org/2000/svg" width="48" height="48" viewBox="0 0 48 48"><defs><style>.a,.d{fill:none;}.b{fill:#7ecef5;stroke:#1e3a6d;stroke-linejoin:round;stroke-width:1.5px;}.b,.d{stroke-linecap:round;}.c{fill:#003575;}.d{stroke:#003575;stroke-width:3px;}.e{fill:#fff;}</style></defs><g transform="translate(-24 -32)"><rect class="a" width="48" height="48" transform="translate(24 32)"/><g transform="translate(-469.804 -3164.542)"><path class="b" d="M20.929,39.344s14.929-7.269,14.929-18.172V8.452L20.929,3,6,8.452v12.72C6,32.075,20.929,39.344,20.929,39.344Z" transform="translate(496.805 3199.542)"/><path class="c" d="M4,0A4,4,0,1,1,0,4,4,4,0,0,1,4,0Z" transform="translate(513.432 3214.31)"/><path class="d" d="M0,0V4.63" transform="translate(517.498 3221.041)"/><path class="e" d="M2.681,0A2.681,2.681,0,1,1,0,2.681,2.681,2.681,0,0,1,2.681,0Z" transform="translate(514.716 3215.607)"/></g></g></svg>