<svg version="1.2" xmlns="http://www.w3.org/2000/svg" viewBox="0 0 922 221" width="922" height="221">
	<title>Logo_UE_vector-ai</title>
	<style>
		tspan { white-space:pre } 
		.s0 { fill: #ffffff } 
		.s1 { fill: #003399 } 
		.s2 { fill: #ffcc00 } 
		.t3 { font-size: 51px;line-height: 70px;fill: #ffffff;font-family: "Arial" } 
	</style>
	<g id="visuals">
		<path id="&lt;Path&gt;" class="s0" d="m10.2 210.9h295v-200.3h-295z"/>
		<path id="&lt;Path&gt;" class="s0" d=""/>
		<path id="&lt;Path&gt;" class="s1" d="m15.9 205.2h283.6v-189.1h-283.6z"/>
		<path id="&lt;Path&gt;" class="s1" d=""/>
		<path id="&lt;Path&gt;" class="s2" d="m151.7 57.3l5.9-4.4 6 4.4-2.2-7.1 6-4.3h-7.5l-2.3-7.2-2.2 7.2h-7.5l6 4.3z"/>
		<path id="&lt;Path&gt;" class="s2" d="m120.7 65.6l6-4.3 6 4.3-2.3-7 6.1-4.4h-7.5l-2.3-7.2-2.3 7.2h-7.5l6.1 4.4z"/>
		<path id="&lt;Path&gt;" class="s2" d="m104 69.7l-2.3 7.2h-7.5l6.1 4.4-2.3 7 6-4.3 6 4.3-2.3-7 6.1-4.4h-7.5z"/>
		<path id="&lt;Path&gt;" class="s2" d="m95.7 114.9l6 4.4-2.3-7.1 6.1-4.4h-7.5l-2.3-7.1-2.3 7.1h-7.5l6.1 4.4-2.3 7.1z"/>
		<path id="&lt;Path&gt;" class="s2" d="m106.3 138.9l-2.3-7.2-2.3 7.2h-7.5l6.1 4.3-2.3 7.1 6-4.4 6 4.4-2.3-7.1 6.1-4.3z"/>
		<path id="&lt;Path&gt;" class="s2" d="m129 161.6l-2.3-7.2-2.3 7.2h-7.5l6.1 4.3-2.3 7.1 6-4.4 6 4.4-2.3-7.1 6.1-4.3z"/>
		<path id="&lt;Path&gt;" class="s2" d="m159.9 169.8l-2.2-7.2-2.3 7.2h-7.5l6 4.3-2.2 7.1 6-4.4 5.9 4.4-2.2-7.1 6-4.3z"/>
		<path id="&lt;Path&gt;" class="s2" d="m190.9 161.6l-2.3-7.2-2.3 7.2h-7.5l6.1 4.3-2.3 7.1 6-4.4 6 4.4-2.3-7.1 6.1-4.3z"/>
		<path id="&lt;Path&gt;" class="s2" d="m213.6 138.9l-2.3-7.2-2.3 7.2h-7.5l6.1 4.3-2.3 7.1 6-4.4 6 4.4-2.3-7.1 6.1-4.3z"/>
		<path id="&lt;Path&gt;" class="s2" d="m229.3 107.7h-7.5l-2.3-7.1-2.3 7.2-7.5-0.1 6.1 4.4-2.3 7.1 6-4.4 6 4.4-2.3-7.1z"/>
		<path id="&lt;Path&gt;" class="s2" d="m205.3 88.2l6-4.3 6 4.3-2.3-7 6.1-4.4h-7.5l-2.3-7.1-2.3 7.1h-7.5l6.1 4.4z"/>
		<path id="&lt;Path&gt;" class="s2" d="m188.7 47l-2.3 7.2h-7.5l6.1 4.4-2.3 7 6-4.3 6 4.3-2.3-7 6.1-4.4h-7.5z"/>
		<text id="NextGenerationEU
" style="transform: matrix(1,0,0,1,330.686,205.106)" >
			<tspan x="0" y="0" class="t3">NextGenerationEU
</tspan>
		</text>
		<g id="&lt;Group&gt;">
			<path id="&lt;Compound Path&gt;" class="s0" d="m334.7 58.2v-42.3h29v7.2h-20.4v10h17.6v7.1h-17.6v18z"/>
			<path id="&lt;Compound Path&gt;" class="s0" d="m370.7 23.4v-7.5h8.1v7.5zm0 34.8v-30.6h8.1v30.6z"/>
			<path id="&lt;Compound Path&gt;" class="s0" d="m414.9 58.2h-8.1v-15.7q0-4.9-0.5-6.4-0.5-1.4-1.7-2.2-1.2-0.8-2.8-0.8-2.1 0-3.8 1.1-1.7 1.2-2.3 3.1-0.6 1.9-0.6 7v13.9h-8.1v-30.6h7.5v4.5q4-5.2 10.1-5.2 2.7 0 4.9 0.9 2.2 1 3.4 2.5 1.1 1.5 1.5 3.4 0.5 1.9 0.5 5.4z"/>
			<path id="&lt;Compound Path&gt;" fill-rule="evenodd" class="s0" d="m429.1 36.9l-7.3-1.3q1.2-4.5 4.3-6.6 3-2.1 8.9-2.1 5.5 0 8.1 1.2 2.7 1.3 3.7 3.3 1.1 2 1.1 7.2l-0.1 9.5q0 4 0.4 5.9 0.4 2 1.5 4.2h-8q-0.3-0.9-0.8-2.4-0.2-0.8-0.3-1-2.1 2-4.4 3-2.4 1-5.1 1-4.7 0-7.4-2.5-2.7-2.6-2.7-6.5 0-2.6 1.2-4.6 1.2-2.1 3.5-3.1 2.2-1.1 6.4-1.9 5.7-1.1 7.9-2v-0.8q0-2.4-1.2-3.3-1.1-1-4.3-1-2.2 0-3.4 0.8-1.2 0.9-2 3zm10.9 6.6q-1.6 0.5-5 1.2-3.3 0.7-4.4 1.4-1.5 1.1-1.5 2.9 0 1.7 1.2 2.9 1.3 1.2 3.3 1.2 2.1 0 4.1-1.4 1.5-1.1 2-2.7 0.3-1 0.3-3.9z"/>
			<path id="&lt;Compound Path&gt;" class="s0" d="m483.7 58.2h-8.1v-15.7q0-4.9-0.5-6.4-0.5-1.4-1.7-2.2-1.1-0.8-2.8-0.8-2.1 0-3.7 1.1-1.7 1.2-2.3 3.1-0.7 1.9-0.7 7v13.9h-8.1v-30.6h7.6v4.5q4-5.2 10.1-5.2 2.6 0 4.8 0.9 2.3 1 3.4 2.5 1.1 1.5 1.6 3.4 0.4 1.9 0.4 5.4z"/>
			<path id="&lt;Compound Path&gt;" class="s0" d="m488.7 58.2v-6.4l11.5-13.1q2.8-3.2 4.1-4.6-1.4 0.1-3.7 0.1l-10.8 0.1v-6.7h25.3v5.7l-11.7 13.5-4.1 4.4q3.4-0.2 4.2-0.2h12.5v7.2z"/>
			<path id="&lt;Compound Path&gt;" class="s0" d="m521.4 23.4v-7.5h8.1v7.5zm0 34.8v-30.6h8.1v30.6z"/>
			<path id="&lt;Compound Path&gt;" fill-rule="evenodd" class="s0" d="m543.9 36.9l-7.4-1.3q1.3-4.5 4.3-6.6 3-2.1 9-2.1 5.4 0 8.1 1.2 2.6 1.3 3.7 3.3 1.1 2 1.1 7.2l-0.1 9.5q0 4 0.4 5.9 0.4 2 1.4 4.2h-8q-0.3-0.9-0.8-2.4-0.2-0.8-0.2-1-2.1 2-4.5 3-2.3 1-5 1-4.7 0-7.5-2.5-2.7-2.6-2.7-6.5 0-2.6 1.2-4.6 1.3-2.1 3.5-3.1 2.2-1.1 6.5-1.9 5.6-1.1 7.8-2v-0.8q0-2.4-1.1-3.3-1.2-1-4.4-1-2.1 0-3.4 0.8-1.2 0.9-1.9 3zm10.8 6.6q-1.5 0.5-4.9 1.2-3.4 0.7-4.4 1.4-1.6 1.1-1.6 2.9 0 1.7 1.3 2.9 1.2 1.2 3.2 1.2 2.2 0 4.2-1.4 1.4-1.1 1.9-2.7 0.3-1 0.3-3.9z"/>
			<path id="&lt;Compound Path&gt;" class="s0" d="m584.7 27.6v6.4h-5.5v12.3q0 3.8 0.1 4.4 0.2 0.6 0.7 1 0.6 0.4 1.4 0.4 1.1 0 3.3-0.7l0.6 6.2q-2.8 1.2-6.4 1.2-2.1 0-3.9-0.7-1.8-0.7-2.6-1.9-0.8-1.2-1.1-3.1-0.3-1.5-0.3-5.8v-13.3h-3.7v-6.4h3.7v-6.1l8.2-4.7v10.8z"/>
			<path id="&lt;Compound Path&gt;" fill-rule="evenodd" class="s0" d="m588.4 42.4q0-4 2-7.8 2-3.8 5.6-5.7 3.7-2 8.2-2 6.9 0 11.4 4.5 4.4 4.5 4.4 11.4 0 6.9-4.5 11.5-4.5 4.5-11.3 4.5-4.2 0-8-1.9-3.8-1.9-5.8-5.5-2-3.7-2-9zm8.3 0.5q0 4.5 2.2 6.9 2.1 2.4 5.3 2.4 3.2 0 5.3-2.4 2.2-2.4 2.2-7 0-4.5-2.2-6.9-2.1-2.4-5.3-2.4-3.2 0-5.3 2.4-2.2 2.4-2.2 7z"/>
			<path id="&lt;Compound Path&gt;" fill-rule="evenodd" class="s0" d="m362.7 129h-7.5v-4.5q-1.9 2.6-4.5 3.9-2.5 1.2-5.1 1.2-5.3 0-9-4.2-3.8-4.3-3.8-11.9 0-7.7 3.7-11.8 3.6-4 9.2-4 5.1 0 8.9 4.2v-15.2h8.1zm-21.6-15.9q0 4.9 1.3 7 2 3.2 5.5 3.2 2.8 0 4.8-2.4 1.9-2.3 1.9-7.1 0-5.2-1.9-7.6-1.9-2.3-4.9-2.3-2.8 0-4.8 2.3-1.9 2.3-1.9 6.9z"/>
			<path id="&lt;Compound Path&gt;" fill-rule="evenodd" class="s0" d="m376.7 107.7l-7.3-1.3q1.2-4.5 4.2-6.6 3.1-2.1 9-2.1 5.4 0 8.1 1.2 2.6 1.3 3.7 3.3 1.1 2 1.1 7.2l-0.1 9.5q0 4 0.4 5.9 0.4 2 1.5 4.2h-8.1q-0.3-0.9-0.7-2.4-0.2-0.8-0.3-1-2.1 2-4.5 3-2.3 1-5 1-4.7 0-7.4-2.5-2.8-2.6-2.8-6.5 0-2.6 1.3-4.6 1.2-2.1 3.4-3.1 2.3-1.1 6.5-1.9 5.7-1.1 7.8-2v-0.8q0-2.4-1.1-3.3-1.2-1-4.4-1-2.1 0-3.3 0.8-1.2 0.9-2 3zm10.8 6.6q-1.5 0.5-4.9 1.2-3.4 0.7-4.4 1.4-1.6 1.1-1.6 2.9 0 1.7 1.3 2.9 1.3 1.2 3.2 1.2 2.2 0 4.2-1.4 1.5-1.1 1.9-2.7 0.3-1 0.3-3.9z"/>
			<path id="&lt;Compound Path&gt;" class="s0" d="m403.5 129v-42.3h8.1v42.3z"/>
			<path id="&lt;Compound Path&gt;" class="s0" d="m419.9 129v-42.3h8.1v42.3z"/>
			<path id="&lt;Compound Path&gt;" class="s0" d="m436.2 101.7l-1.5-7.8v-7.2h8.8v7.2l-1.3 7.8z"/>
			<path id="&lt;Compound Path&gt;" class="s0" d="m450.3 86.7h8.5v22.9q0 5.4 0.3 7.1 0.6 2.5 2.6 4.1 2.1 1.6 5.7 1.6 3.6 0 5.4-1.5 1.9-1.5 2.3-3.6 0.3-2.2 0.3-7.2v-23.4h8.6v22.2q0 7.6-0.7 10.7-0.7 3.2-2.6 5.3-1.8 2.2-4.9 3.5-3.2 1.3-8.2 1.3-6 0-9.1-1.4-3.2-1.4-5-3.7-1.8-2.2-2.4-4.6-0.8-3.7-0.8-10.8z"/>
			<path id="&lt;Compound Path&gt;" class="s0" d="m520.7 129h-8.1v-15.7q0-4.9-0.5-6.4-0.5-1.4-1.7-2.2-1.1-0.8-2.8-0.8-2.1 0-3.8 1.1-1.6 1.2-2.2 3.1-0.7 1.9-0.7 7v13.9h-8.1v-30.6h7.6v4.5q4-5.2 10-5.2 2.7 0 4.9 0.9 2.3 1 3.4 2.5 1.1 1.5 1.6 3.4 0.4 1.9 0.4 5.4z"/>
			<path id="&lt;Compound Path&gt;" class="s0" d="m528.9 94.2v-7.5h8.1v7.5zm0 34.8v-30.6h8.1v30.6z"/>
			<path id="&lt;Compound Path&gt;" fill-rule="evenodd" class="s0" d="m543.5 113.2q0-4 1.9-7.8 2-3.8 5.7-5.7 3.6-2 8.1-2 7 0 11.4 4.5 4.4 4.5 4.4 11.4 0 6.9-4.4 11.5-4.5 4.5-11.3 4.5-4.2 0-8.1-1.9-3.8-1.9-5.8-5.5-1.9-3.7-1.9-9zm8.3 0.5q0 4.5 2.1 6.9 2.2 2.4 5.3 2.4 3.2 0 5.4-2.4 2.1-2.4 2.1-7 0-4.5-2.1-6.9-2.2-2.4-5.4-2.4-3.1 0-5.3 2.4-2.1 2.4-2.1 7z"/>
			<path id="&lt;Compound Path&gt;" class="s0" d="m609.2 129h-8.1v-15.7q0-4.9-0.5-6.4-0.5-1.4-1.7-2.2-1.2-0.8-2.8-0.8-2.1 0-3.8 1.1-1.7 1.2-2.3 3.1-0.6 1.9-0.6 7v13.9h-8.1v-30.6h7.5v4.5q4-5.2 10.1-5.2 2.7 0 4.9 0.9 2.2 1 3.4 2.5 1.1 1.5 1.6 3.4 0.4 1.9 0.4 5.4z"/>
			<path id="&lt;Compound Path&gt;" fill-rule="evenodd" class="s0" d="m635.1 119.2l8.1 1.4q-1.6 4.4-4.9 6.7-3.4 2.3-8.4 2.3-8 0-11.8-5.2-3.1-4.1-3.1-10.5 0-7.6 4-11.9 4-4.3 10.1-4.3 6.8 0 10.7 4.5 4 4.5 3.8 13.8h-20.3q0.1 3.6 2 5.6 1.9 2 4.7 2 1.9 0 3.2-1 1.3-1.1 1.9-3.4zm0.5-8.2q-0.1-3.5-1.8-5.3-1.8-1.8-4.2-1.8-2.7 0-4.4 1.9-1.7 1.9-1.7 5.2z"/>
			<path id="&lt;Compound Path&gt;" fill-rule="evenodd" class="s0" d="m684.3 119.2l8.1 1.4q-1.6 4.4-4.9 6.7-3.4 2.3-8.4 2.3-8 0-11.8-5.2-3-4.1-3-10.5 0-7.6 3.9-11.9 4-4.3 10.1-4.3 6.8 0 10.8 4.5 3.9 4.5 3.7 13.8h-20.3q0.1 3.6 2 5.6 1.9 2 4.7 2 1.9 0 3.2-1 1.3-1.1 1.9-3.4zm0.5-8.2q-0.1-3.5-1.8-5.3-1.8-1.8-4.2-1.8-2.7 0-4.4 1.9-1.7 1.9-1.7 5.2z"/>
			<path id="&lt;Compound Path&gt;" class="s0" d="m719.6 129v-4.6q-1.7 2.4-4.4 3.8-2.8 1.4-5.8 1.4-3.1 0-5.5-1.3-2.5-1.4-3.6-3.8-1-2.5-1-6.8v-19.3h8v14q0 6.5 0.5 7.9 0.4 1.5 1.6 2.3 1.2 0.9 3 0.9 2.1 0 3.7-1.2 1.7-1.1 2.3-2.8 0.6-1.7 0.6-8.2v-12.9h8.1v30.6z"/>
			<path id="&lt;Compound Path&gt;" class="s0" d="m743.2 129h-8.1v-30.6h7.5v4.3q2-3.1 3.5-4.1 1.6-0.9 3.5-0.9 2.8 0 5.3 1.5l-2.5 7.1q-2-1.4-3.8-1.4-1.7 0-2.8 1-1.2 0.9-1.9 3.3-0.7 2.5-0.7 10.3z"/>
			<path id="&lt;Compound Path&gt;" fill-rule="evenodd" class="s0" d="m756.6 113.2q0-4 1.9-7.8 2-3.8 5.7-5.7 3.6-2 8.1-2 7 0 11.4 4.5 4.4 4.5 4.4 11.4 0 6.9-4.5 11.5-4.4 4.5-11.2 4.5-4.2 0-8.1-1.9-3.8-1.9-5.8-5.5-1.9-3.7-1.9-9zm8.2 0.5q0 4.5 2.2 6.9 2.2 2.4 5.3 2.4 3.2 0 5.4-2.4 2.1-2.4 2.1-7 0-4.5-2.1-6.9-2.2-2.4-5.4-2.4-3.1 0-5.3 2.4-2.2 2.4-2.2 7z"/>
			<path id="&lt;Compound Path&gt;" fill-rule="evenodd" class="s0" d="m794.2 98.4h7.6v4.5q1.5-2.4 4-3.8 2.5-1.4 5.5-1.4 5.3 0 9.1 4.1 3.7 4.2 3.7 11.7 0 7.6-3.8 11.9-3.7 4.2-9 4.2-2.6 0-4.6-1-2.1-1-4.4-3.4v15.4h-8.1zm8 14.8q0 5.1 2.1 7.6 2 2.5 5 2.5 2.8 0 4.7-2.3 1.8-2.3 1.8-7.4 0-4.8-1.9-7.2-1.9-2.3-4.8-2.3-2.9 0-4.9 2.3-2 2.3-2 6.8z"/>
			<path id="&lt;Compound Path&gt;" fill-rule="evenodd" class="s0" d="m848.2 119.2l8.1 1.4q-1.6 4.4-4.9 6.7-3.4 2.3-8.4 2.3-8 0-11.8-5.2-3.1-4.1-3.1-10.5 0-7.6 4-11.9 4-4.3 10.1-4.3 6.8 0 10.7 4.5 4 4.5 3.8 13.8h-20.3q0.1 3.6 2 5.6 1.9 2 4.7 2 1.9 0 3.2-1 1.3-1.1 1.9-3.4zm0.5-8.2q-0.1-3.5-1.8-5.3-1.8-1.8-4.2-1.8-2.7 0-4.4 1.9-1.7 1.9-1.7 5.2z"/>
			<path id="&lt;Compound Path&gt;" fill-rule="evenodd" class="s0" d="m869.4 107.7l-7.4-1.3q1.3-4.5 4.3-6.6 3-2.1 9-2.1 5.4 0 8 1.2 2.7 1.3 3.8 3.3 1.1 2 1.1 7.2l-0.1 9.5q0 4 0.4 5.9 0.3 2 1.4 4.2h-8q-0.3-0.9-0.8-2.4-0.2-0.8-0.3-1-2 2-4.4 3-2.4 1-5 1-4.8 0-7.5-2.5-2.7-2.6-2.7-6.5 0-2.6 1.2-4.6 1.3-2.1 3.5-3.1 2.2-1.1 6.4-1.9 5.7-1.1 7.9-2v-0.8q0-2.4-1.2-3.3-1.1-1-4.3-1-2.2 0-3.4 0.8-1.2 0.9-1.9 3zm10.8 6.6q-1.6 0.5-4.9 1.2-3.4 0.7-4.4 1.4-1.6 1.1-1.6 2.9 0 1.7 1.2 2.9 1.3 1.2 3.3 1.2 2.2 0 4.2-1.4 1.4-1.1 1.9-2.7 0.3-1 0.3-3.9z"/>
		</g>
	</g>
</svg>