<svg xmlns="http://www.w3.org/2000/svg" width="18.005" height="22.159" viewBox="0 0 18.005 22.159"><defs><style>.a,.b,.d{fill:none;}.a,.b{stroke:#000;}.a{stroke-linejoin:round;}.a,.d{stroke-width:2px;}.b{stroke-width:2.5px;}.c{fill:#fff;}.d{stroke:#fff;stroke-linecap:round;}</style></defs><g transform="translate(-1281.996 -3101.756)"><g transform="translate(1283 3103.006)"><path class="a" d="M-.023,9.623s-.073,4.054,0,7.609,3.981,5.885,7.95,5.885,7.748-2.519,7.928-6.036,0-7.457,0-7.457H-.023Z" transform="translate(0.056 -3.207)"/><path class="b" d="M-5828.431,3212.294s.013-5.511,4.706-5.511,4.71,5.511,4.71,5.511" transform="translate(5831.605 -3206.783)"/><path d="M1266.39,3120.848l-.381-5.528.381-4.458h15.178l.441,5.142-.441,4.045-.921,2.11-3.248,2.237-2.8.785-2.85-.262-2.747-1.068-1.984-1.693Z" transform="translate(-1266.009 -3105.181)"/><g transform="translate(5.674 8.566)"><path class="c" d="M2.341,0A2.341,2.341,0,1,1,0,2.341,2.341,2.341,0,0,1,2.341,0Z"/><path class="d" d="M0,0V2.794" transform="translate(2.341 3.783)"/></g></g></g></svg>