<svg id="Raggruppa_31681" data-name="Raggruppa 31681" xmlns="http://www.w3.org/2000/svg" xmlns:xlink="http://www.w3.org/1999/xlink" width="87.864" height="250.252" viewBox="0 0 87.864 250.252">
  <defs>
    <clipPath id="clip-path">
      <rect id="Rettangolo_165816" data-name="Rettangolo 165816" width="87.864" height="250.252" fill="none"/>
    </clipPath>
  </defs>
  <g id="Raggruppa_31680" data-name="Raggruppa 31680" clip-path="url(#clip-path)">
    <g id="Raggruppa_31679" data-name="Raggruppa 31679">
      <g id="Raggruppa_31678" data-name="Raggruppa 31678" clip-path="url(#clip-path)">
        <path id="Tracciato_109681" data-name="Tracciato 109681" d="M19.053,160.881a6.82,6.82,0,0,1-4.484,6.533c-4.841,2.037-10.9,1.309-11.857,3.814s2.279,3.376,7.643,3.313,12.659.529,15.729-1.4,1.372-5.589,2.195-11.009-9.226-1.249-9.226-1.249" transform="translate(1.026 64.241)" fill="#74414e"/>
        <path id="Tracciato_109682" data-name="Tracciato 109682" d="M61.513,81.725l1.66,1.63s2.2,10.117.578,26.16a343.124,343.124,0,0,0-.428,54.211c1.253,14.676-.915,32.122-.915,32.122s-6.06,1.41-9.885.219c0,0-5.088-30.12-6.114-37.8-1.723-12.9-2.965-21.855-5.224-35.789l-1.093-12.677s-4.587,27.948-6.254,36.093c-1.465,7.159-.025,26.263-9.25,49.795,0,0-6.721.278-10.476-1.611,0,0,1.74-33.6,2.385-46.378S20.03,104.8,20.03,104.8l2.813-26.2Z" transform="translate(5.69 31.686)" fill="#3b3564"/>
        <path id="Tracciato_109683" data-name="Tracciato 109683" d="M60.167,78.261l.73,6.756s-20.891,4.9-41.135-3.168l1.577-7.371Z" transform="translate(7.967 30.025)" fill="#8b3e45"/>
        <path id="Tracciato_109684" data-name="Tracciato 109684" d="M37.649,80,37.2,86.129l-10.48-1.813-.14-6.383Z" transform="translate(10.717 31.419)" fill="#9292ab"/>
        <path id="Tracciato_109685" data-name="Tracciato 109685" d="M43.934,79.709l.386,5.983-1.278.028-.132-5.989Z" transform="translate(17.299 32.134)" fill="#3b3564"/>
        <path id="Tracciato_109686" data-name="Tracciato 109686" d="M22.524,76.766l-.991,6.292-1.748-.386,1.65-6.567Z" transform="translate(7.976 30.681)" fill="#3b3564"/>
        <path id="Tracciato_109687" data-name="Tracciato 109687" d="M35.44,4.923a16.954,16.954,0,0,0-2.665,9.067c-.083,5.523-2.927,5.51-2,6.9.979,1.454,1.6,2.726,1.222,4.372s-2.043,4.751.838,5.506,6.658.365,6.812,2.715.14,6.339-2.376,8.236S46.1,42.952,46.1,42.952l5.13-4.02s-2.731-7.2.083-12.366c2.792-5.131,2.792-12.123,2.792-12.123L45.889,7.052Z" transform="translate(12.333 1.985)" fill="#f88272"/>
        <path id="Tracciato_109688" data-name="Tracciato 109688" d="M45.628,16.195S43.2,27.189,40.684,28.783s-9.64,1.7-9.64,1.7-.79,1.935,2.3,2.416,5.62,1.044,6.164,2.566c0,0,5.178-1.859,6.432-5.311S46.4,20,50.879,18.98c0,0,2.693-.537.331,4.63s-2.634,3.974-2.085,6.47,5.7-5.057,7.379-12.475-1.03-4.962-3.1-10.543S44.235,4.093,42.548,1.828s-6.607-2.667-8.18.181S29.621,4.865,31.73,7.672s3.8.459,5.476,2.467,2.613,2.427,5.131.695,3.528,4.347,3.29,5.361" transform="translate(12.479 0)" fill="#7b414b"/>
        <path id="Tracciato_109689" data-name="Tracciato 109689" d="M61.106,35.417l3.2,18.815s-3.7,29.894-3.285,34.061S63.316,98.8,54.855,99.1s-8.9,1.413-14.624-.344-19.89-2.141-20.04-6.431.925-24.041.925-24.041L34.681,36.905l2.931-4.312L47.1,31.412Z" transform="translate(8.135 12.664)" fill="#e2e1f1"/>
        <path id="Tracciato_109690" data-name="Tracciato 109690" d="M44.414,14.158s1.81-1.462,2.761-.06-1.041,6.8-2.638,5.657-.123-5.6-.123-5.6" transform="translate(17.656 5.438)" fill="#f88272"/>
        <path id="Tracciato_109691" data-name="Tracciato 109691" d="M41.747,31.768l2.7.772L43.684,34.4l-4.237,4.684-2.517.056-.408-6.123,2.91-1.608Z" transform="translate(14.723 12.661)" fill="#3e3868"/>
        <path id="Tracciato_109692" data-name="Tracciato 109692" d="M41.423,36.534l.049,34.318L33.84,80.581l-2.4-12.426,8.137-32.989Z" transform="translate(12.676 14.177)" fill="#3e3868"/>
        <path id="Tracciato_109693" data-name="Tracciato 109693" d="M50.486,27.478s-.554,3.491-8.413,4.824c0,0-3.629.742-4.622-2.231L32.6,34.179s2.763,4.3,6.414,1.555S42.088,33,42.088,33s1.507,5.186,5.889,4.045A22.482,22.482,0,0,0,56,32.691Z" transform="translate(13.144 11.078)" fill="#e2e1f1"/>
        <path id="Tracciato_109694" data-name="Tracciato 109694" d="M57.019,30.477l1.275,1s5.562,4.981,9.177,5.83,5.589,6.14,4.839,14.277-4.762,19.477-6.686,27.523S51,85.118,44.441,82.016,26.913,65.467,26.913,65.467L32.537,63.2a45.352,45.352,0,0,1,7.587,2.559c3.032,1.3,11.827,4.146,11.827,4.146s2.618-14.789,5.478-20.884S52.4,32.585,52.4,32.585Z" transform="translate(10.85 12.287)" fill="#e2e1f1"/>
        <path id="Tracciato_109695" data-name="Tracciato 109695" d="M38.462,32.253a18.837,18.837,0,0,1-6.419,3.484c-3.918,1.225-6.954.248-9.306,9.348s-8.253,25.47-1.611,26.832,24.427,3.171,24.427,3.171L43.738,67.24,31.58,60.317a96.885,96.885,0,0,0,4.16-14.243c1.58-7.691,2.722-13.821,2.722-13.821" transform="translate(7.284 13.003)" fill="#e2e1f1"/>
        <path id="Tracciato_109696" data-name="Tracciato 109696" d="M41.113,57.363s4.191-1.4,5.67-.838l-.557,2.928Z" transform="translate(16.575 22.734)" fill="#f88272"/>
        <path id="Tracciato_109697" data-name="Tracciato 109697" d="M41.214,35.122a3.409,3.409,0,0,0,3.066,1.034,9.5,9.5,0,0,0,3.173-.957,16.009,16.009,0,0,0,2.74-1.768,17.115,17.115,0,0,0,2.338-2.238c-1.883,1.068-3.629,2.245-5.489,3.17a13.444,13.444,0,0,1-2.865,1.076,3.891,3.891,0,0,1-2.962-.317" transform="translate(16.615 12.575)" fill="#babacf"/>
        <path id="Tracciato_109698" data-name="Tracciato 109698" d="M38.209,34.3a2.612,2.612,0,0,1-1.52.473,3.021,3.021,0,0,1-1.348-.484c-.891-.537-1.7-1.344-2.739-2.04a5.192,5.192,0,0,0,2.179,2.977,2.8,2.8,0,0,0,2.012.39A1.934,1.934,0,0,0,38.209,34.3" transform="translate(13.143 13.003)" fill="#babacf"/>
        <path id="Tracciato_109699" data-name="Tracciato 109699" d="M44.758,64.25c.876-3.3,1.6-6.591,2.39-9.874L49.481,44.5a42.707,42.707,0,0,0-3.4,9.631A47.052,47.052,0,0,0,44.758,64.25" transform="translate(18.044 17.938)" fill="#babacf"/>
        <path id="Tracciato_109700" data-name="Tracciato 109700" d="M57.979,75.861a20.507,20.507,0,0,1-10.128-1.176,26.57,26.57,0,0,1-8.583-5.439,42.529,42.529,0,0,1-6.575-7.872c-.911-1.447-1.724-2.989-2.537-4.52l-2.457-4.6a81.462,81.462,0,0,0,4.273,9.553A39.475,39.475,0,0,0,38.53,70.05a25.893,25.893,0,0,0,9.046,5.425,22.8,22.8,0,0,0,5.2.961,15.9,15.9,0,0,0,5.2-.575" transform="translate(11.167 21.066)" fill="#babacf"/>
        <path id="Tracciato_109701" data-name="Tracciato 109701" d="M28.889,42.066a52.6,52.6,0,0,0-1.375,7.1,64.659,64.659,0,0,0-.6,7.2A31.345,31.345,0,0,0,28.6,49.308a35.849,35.849,0,0,0,.292-7.242" transform="translate(10.85 16.959)" fill="#babacf"/>
        <path id="Tracciato_109702" data-name="Tracciato 109702" d="M38.289,62.547c-2.983-.2-5.909-.351-8.833-.633-1.462-.118-2.917-.3-4.375-.481s-2.912-.418-4.4-.629A26.178,26.178,0,0,0,29.356,63a29.361,29.361,0,0,0,8.932-.453" transform="translate(8.339 24.513)" fill="#babacf"/>
        <path id="Tracciato_109703" data-name="Tracciato 109703" d="M29.875,55.634s-1.186-.519-3.412-1.579,1.692-3.224,4.609-2.477a7.1,7.1,0,0,1,4.23,3.728Z" transform="translate(10.404 20.732)" fill="#f88272"/>
        <path id="Tracciato_109704" data-name="Tracciato 109704" d="M41.862,162.3s.083,4.5,0,5.51.993,3.539,2.482,5.366,2.486,5.51,6.457,8.816,7.2.261,6.286-4.35S50.207,162.3,50.207,162.3Z" transform="translate(16.875 65.433)" fill="#74414e"/>
        <path id="Tracciato_109705" data-name="Tracciato 109705" d="M34.416,12.838c.108-.55.512-.934.905-.857s.624.584.516,1.134-.512.934-.905.859-.623-.585-.516-1.135" transform="translate(13.864 4.826)" fill="#4e332b"/>
        <path id="Tracciato_109706" data-name="Tracciato 109706" d="M35.048,9.842a1.125,1.125,0,0,0-1.239,1.327,6.039,6.039,0,0,1,4,.588s.278-1.628-2.757-1.915" transform="translate(13.618 3.965)" fill="#7b414b"/>
        <path id="Tracciato_109707" data-name="Tracciato 109707" d="M31.875,18.66a9.811,9.811,0,0,0,3.918-.065s-1.731,3.254-3.932,2.651c-.081-.022-.477-.118-.551-.147.007-.808.512-1.7.565-2.439" transform="translate(12.622 7.496)" fill="#a4293b"/>
        <path id="Tracciato_109708" data-name="Tracciato 109708" d="M31.737,18.6a10.794,10.794,0,0,0,3.967,0,7.984,7.984,0,0,1-.95,1.341,20.914,20.914,0,0,1-3.224-.219c.021-.375.185-.807.208-1.123" transform="translate(12.711 7.496)" fill="#fff"/>
      </g>
    </g>
  </g>
</svg>
