<svg xmlns="http://www.w3.org/2000/svg" width="48" height="48" viewBox="0 0 48 48"><defs><style>.a,.b,.c{fill:none;}.b{stroke-linejoin:round;}.c,.d{stroke:#1e3a6d;stroke-width:1.5px;}.d{fill:#73d7ff;}.e,.f{stroke:none;}.f{fill:#1e3a6d;}</style></defs><g transform="translate(-112 -990)"><rect class="a" width="48" height="48" transform="translate(112 990)"/><g transform="translate(0 1)"><g class="b" transform="translate(121.362 1015)"><path class="e" d="M-1.308,0H29.285l5.992,17.983H-6.708Z"/><path class="f" d="M -0.1919136047363281 1.499998092651367 L -4.691387176513672 16.48327827453613 L 33.1955451965332 16.48327827453613 L 28.20348167419434 1.499998092651367 L -0.1919136047363281 1.499998092651367 M -1.307640075683594 -1.9073486328125e-06 L 29.28478050231934 -1.9073486328125e-06 L 35.27637100219727 17.98327827453613 L -6.708011627197266 17.98327827453613 L -1.307640075683594 -1.9073486328125e-06 Z"/></g><line class="c" x1="4" y2="16.983" transform="translate(122.707 1015.5)"/><line class="c" x2="36.196" transform="translate(117.5 1026.561)"/><g transform="translate(119.279 991.192)"><path class="d" d="M14.541,2A9.534,9.534,0,0,0,5,11.541c0,7.156,9.541,17.72,9.541,17.72s9.541-10.564,9.541-17.72A9.534,9.534,0,0,0,14.541,2Zm0,12.949a3.408,3.408,0,1,1,3.408-3.408A3.409,3.409,0,0,1,14.541,14.949Z" transform="translate(1.815 0.726)"/><path class="a" d="M0,0H32.713V32.713H0Z"/></g></g></g></svg>