<svg xmlns="http://www.w3.org/2000/svg" width="64" height="64" viewBox="0 0 64 64"><defs><style>.a{fill:#fff;}.b,.d{fill:#1844a8;}.c,.d{stroke:none;}</style></defs><g transform="translate(-1248 -3087.5)"><g class="a" transform="translate(1248 3087.5)"><path class="c" d="M 32 63 C 27.81459045410156 63 23.7548999786377 62.18050003051758 19.9337100982666 60.56428146362305 C 16.24237060546875 59.00297164916992 12.92700004577637 56.76762008666992 10.07968997955322 53.92031097412109 C 7.232379913330078 51.07300186157227 4.997029781341553 47.75762939453125 3.435719966888428 44.06629180908203 C 1.819499969482422 40.24509811401367 1 36.18540954589844 1 32 C 1 27.81459045410156 1.819499969482422 23.7548999786377 3.435719966888428 19.9337100982666 C 4.997029781341553 16.24237060546875 7.232379913330078 12.92700004577637 10.07968997955322 10.07968997955322 C 12.92700004577637 7.232379913330078 16.24237060546875 4.997029781341553 19.9337100982666 3.435719966888428 C 23.7548999786377 1.819499969482422 27.81459045410156 1 32 1 C 36.18540954589844 1 40.24509811401367 1.819499969482422 44.06629180908203 3.435719966888428 C 47.75762939453125 4.997029781341553 51.07300186157227 7.232379913330078 53.92031097412109 10.07968997955322 C 56.76762008666992 12.92700004577637 59.00297164916992 16.24237060546875 60.56428146362305 19.9337100982666 C 62.18050003051758 23.7548999786377 63 27.81459045410156 63 32 C 63 36.18540954589844 62.18050003051758 40.24509811401367 60.56428146362305 44.06629180908203 C 59.00297164916992 47.75762939453125 56.76762008666992 51.07300186157227 53.92031097412109 53.92031097412109 C 51.07300186157227 56.76762008666992 47.75762939453125 59.00297164916992 44.06629180908203 60.56428146362305 C 40.24509811401367 62.18050003051758 36.18540954589844 63 32 63 Z"/><path class="d" d="M 32 2 C 27.94915008544922 2 24.0205192565918 2.792919158935547 20.32326126098633 4.356731414794922 C 16.75112152099609 5.867618560791016 13.5425910949707 8.030998229980469 10.78680038452148 10.78680038452148 C 8.030998229980469 13.5425910949707 5.867618560791016 16.75112152099609 4.356731414794922 20.32326126098633 C 2.792919158935547 24.0205192565918 2 27.94915008544922 2 32 C 2 36.05084991455078 2.792919158935547 39.9794807434082 4.356731414794922 43.67674255371094 C 5.867618560791016 47.24887847900391 8.030998229980469 50.4574089050293 10.78680038452148 53.21319961547852 C 13.5425910949707 55.96900177001953 16.75112152099609 58.13238143920898 20.32326126098633 59.64326858520508 C 24.0205192565918 61.20708084106445 27.94915008544922 62 32 62 C 36.05084991455078 62 39.9794807434082 61.20708084106445 43.67674255371094 59.64326858520508 C 47.24887847900391 58.13238143920898 50.4574089050293 55.96900177001953 53.21319961547852 53.21319961547852 C 55.96900177001953 50.4574089050293 58.13238143920898 47.24887847900391 59.64326858520508 43.67674255371094 C 61.20708084106445 39.9794807434082 62 36.05084991455078 62 32 C 62 27.94915008544922 61.20708084106445 24.0205192565918 59.64326858520508 20.32326126098633 C 58.13238143920898 16.75112152099609 55.96900177001953 13.5425910949707 53.21319961547852 10.78680038452148 C 50.4574089050293 8.030998229980469 47.24887847900391 5.867618560791016 43.67674255371094 4.356731414794922 C 39.9794807434082 2.792919158935547 36.05084991455078 2 32 2 M 32 0 C 49.67311096191406 0 64 14.32688903808594 64 32 C 64 49.67311096191406 49.67311096191406 64 32 64 C 14.32688903808594 64 0 49.67311096191406 0 32 C 0 14.32688903808594 14.32688903808594 0 32 0 Z"/></g><g transform="translate(929.144 2906.19)"><g transform="translate(340.357 195.606)"><g transform="translate(0 0)"><path class="b" d="M365.938,207.781a9.128,9.128,0,0,0-2.42-7.026,10.864,10.864,0,0,0-7.939-2.853h-.257a10.856,10.856,0,0,0-7.937,2.853,9.079,9.079,0,0,0-2.422,7.025v.974a.968.968,0,0,0,.984.95H351.8a.967.967,0,0,0,.983-.95v-1.2c0-1.392.8-2.1,2.389-2.1h.559c1.585,0,2.389.711,2.389,2.109l.014,1.19c0,.623-.639,1.345-1.7,2.465-1.758,1.851-4.165,4.386-4.165,8.847v1.415a.969.969,0,0,0,.983.95H359.1a.969.969,0,0,0,.983-.95v-1.415c0-1.955,1.045-2.95,2.369-4.209,1.554-1.477,3.489-3.316,3.5-7.119l-.013-.936Zm-4.863,6.726c-1.453,1.384-2.956,2.814-2.956,5.565a.472.472,0,0,1-.48.464h-2.926a.472.472,0,0,1-.48-.464c0-3.719,1.936-5.758,3.648-7.563,1.194-1.259,2.226-2.346,2.218-3.765l-.014-1.185c0-2.466-1.669-4-4.355-4h-.559c-2.593,0-4.261,1.455-4.351,3.8a.473.473,0,0,1-.479.447H347.4a.472.472,0,0,1-.479-.46,7.069,7.069,0,0,1,1.886-5.274,8.932,8.932,0,0,1,6.517-2.268h.257a8.93,8.93,0,0,1,6.517,2.268,7.24,7.24,0,0,1,1.876,5.671c0,.018,0,.036,0,.049l.013.961C363.978,211.751,362.568,213.09,361.075,214.508Z" transform="translate(-344.951 -197.903)"/><path class="b" d="M356.133,224.575a4.163,4.163,0,1,0,4.162,4.162A4.167,4.167,0,0,0,356.133,224.575Zm0,6.232a2.069,2.069,0,1,1,2.069-2.07A2.072,2.072,0,0,1,356.133,230.807Z" transform="translate(-344.935 -197.46)"/></g></g></g></g></svg>