<svg xmlns="http://www.w3.org/2000/svg" width="48" height="48" viewBox="0 0 48 48"><defs><style>.a{fill:none;}.b{fill:#73d7ff;}.c{fill:#fff;}.d{fill:#003575;}</style></defs><g transform="translate(13113 1165)"><rect class="a" width="48" height="48" transform="translate(-13113 -1165)"/><g transform="translate(-13108 -1160.417)"><path class="b" d="M34.69,21.768,32.132,15.1l-3.41-1.633L31.135,7l-4.97.838-1.117,2.35s-3.06-.588-4,1.452a4.043,4.043,0,0,1-1.023,1.149l-5.251,1.218-2.762-2.515a13.141,13.141,0,0,0-6.666,3.75A3.319,3.319,0,0,1,4,15.97L1,22.018l2.779,8.857L8.263,34.66l1.91,5.185h4.007l1.492-3.508h1.841V36.6h3.274l1.031,3.24h4.834l1.219-4.969,3.981-2.7,1.492-3.344,3.9-.432.247-6.585Z" transform="translate(-0.392 -2.742)"/><circle class="c" cx="4.866" cy="4.866" r="4.866" transform="translate(10.948 1.216)"/><rect class="d" width="1.825" height="1.825" transform="translate(26.154 15.814)"/><path class="d" d="M22.082,12.165a6.082,6.082,0,1,1,6.082-6.082A6.082,6.082,0,0,1,22.082,12.165Zm0-10.581a4.5,4.5,0,1,0,4.5,4.5A4.5,4.5,0,0,0,22.082,1.583Z" transform="translate(-6.268)"/><path class="d" d="M21.264,40.061a.805.805,0,0,1-.763-.547l-.934-2.786a.394.394,0,0,0-.377-.265H16.113a.394.394,0,0,0-.377.265l-.926,2.777a.805.805,0,0,1-.763.547H9.231a.805.805,0,0,1-.78-.615L7.379,35.165a.393.393,0,0,0-.2-.256A13.59,13.59,0,0,1,0,23.065,13.339,13.339,0,0,1,6.4,11.657a.807.807,0,1,1,.857,1.367A11.734,11.734,0,0,0,1.62,23.065,11.884,11.884,0,0,0,8.339,33.712h.051L8.5,33.8l.069.06.069.06h0v.068a.853.853,0,0,1,.086.171v.068l.968,3.845a.394.394,0,0,0,.386.3h3.008a.394.394,0,0,0,.377-.265l.926-2.777a.805.805,0,0,1,.763-.547h4.9a.805.805,0,0,1,.763.547l.926,2.777a.394.394,0,0,0,.377.265h3.008a.394.394,0,0,0,.386-.3l.968-3.871.086-.034a.6.6,0,0,1,.18-.273h0l.069-.06a.789.789,0,0,1,.171-.085l.1-.051a6.39,6.39,0,0,0,4.757-5.281.8.8,0,0,1,.806-.735h3.034a.394.394,0,0,0,.394-.393V22.458a.394.394,0,0,0-.394-.393H33.76a.856.856,0,0,1-.8-.692c-.609-4.187-2.048-6.52-4.817-7.785h0l-.086-.068-.069-.043h-.06l-.043-.068v-.06l-.043-.068v-.06a.7.7,0,0,1,0-.077V12.99a.57.57,0,0,1,0-.068.715.715,0,0,1,0-.077v-.188h0L29.6,8.282a.4.4,0,1,0-.463-.649h0c-1.886.128-3.085.812-3.514,1.923a.857.857,0,0,1-.754.521.791.791,0,0,1-.283-.051.8.8,0,0,1-.471-1.043C25.1,6.419,28.069,6,29.757,6a9.475,9.475,0,0,1,1.251.077.8.8,0,0,1,.634,1.094l-2.014,5.016a.392.392,0,0,0,.163.487c2.468,1.487,3.934,3.862,4.6,7.469a.394.394,0,0,0,.386.325h2.126a.8.8,0,0,1,.806.795v7.2a.8.8,0,0,1-.806.8H33.648a.394.394,0,0,0-.377.291,7.82,7.82,0,0,1-5.142,5.443.394.394,0,0,0-.257.273l-1.046,4.179a.805.805,0,0,1-.78.615Z" transform="translate(0 -2.35)"/></g></g></svg>