<svg id="Raggruppa_31476" data-name="Raggruppa 31476" xmlns="http://www.w3.org/2000/svg" xmlns:xlink="http://www.w3.org/1999/xlink" width="230.84" height="169.779" viewBox="0 0 230.84 169.779">
  <defs>
    <clipPath id="clip-path">
      <rect id="Rettangolo_165693" data-name="Rettangolo 165693" width="230.84" height="169.779" fill="none"/>
    </clipPath>
    <clipPath id="clip-path-2">
      <rect id="Rettangolo_165692" data-name="Rettangolo 165692" width="230.839" height="169.779" fill="none"/>
    </clipPath>
    <clipPath id="clip-path-3">
      <rect id="Rettangolo_165563" data-name="Rettangolo 165563" width="6.324" height="33.181" fill="none"/>
    </clipPath>
    <clipPath id="clip-path-7">
      <rect id="Rettangolo_165587" data-name="Rettangolo 165587" width="6.812" height="26.664" fill="none"/>
    </clipPath>
    <clipPath id="clip-path-8">
      <rect id="Rettangolo_165588" data-name="Rettangolo 165588" width="4.335" height="7.595" fill="none"/>
    </clipPath>
    <clipPath id="clip-path-13">
      <rect id="Rettangolo_165631" data-name="Rettangolo 165631" width="6.323" height="33.181" fill="none"/>
    </clipPath>
    <clipPath id="clip-path-17">
      <rect id="Rettangolo_165655" data-name="Rettangolo 165655" width="95.757" height="4.938" fill="none"/>
    </clipPath>
    <clipPath id="clip-path-18">
      <rect id="Rettangolo_165657" data-name="Rettangolo 165657" width="95.757" height="7.054" fill="none"/>
    </clipPath>
    <clipPath id="clip-path-19">
      <rect id="Rettangolo_165670" data-name="Rettangolo 165670" width="101.928" height="154.437" fill="none"/>
    </clipPath>
  </defs>
  <g id="Raggruppa_31475" data-name="Raggruppa 31475" clip-path="url(#clip-path)">
    <g id="Raggruppa_31474" data-name="Raggruppa 31474">
      <g id="Raggruppa_31473" data-name="Raggruppa 31473" clip-path="url(#clip-path-2)">
        <path id="Tracciato_109400" data-name="Tracciato 109400" d="M27.03,620.874a7.143,7.143,0,0,0-4.642-10.646c0-.111.008-.222.008-.333a8.641,8.641,0,1,0-16.34,3.921,8.643,8.643,0,0,0,.816,16.706,7.141,7.141,0,0,0,12.392,2.236,7.142,7.142,0,0,0,7.766-11.883" transform="translate(0 -485.909)" fill="#7f9c42"/>
        <path id="Tracciato_109401" data-name="Tracciato 109401" d="M24.777,688.792a7.111,7.111,0,0,1-3.221-.768,7.141,7.141,0,0,1-12.392-2.236,8.642,8.642,0,0,1-5.38-13.312,8.641,8.641,0,0,0,3.087,15.6,7.14,7.14,0,0,0,12.392,2.236,7.14,7.14,0,0,0,9.285-2.6,7.107,7.107,0,0,1-3.772,1.078" transform="translate(-0.001 -543.469)" fill="#667d35"/>
        <path id="Tracciato_109402" data-name="Tracciato 109402" d="M74,748.466s2.028,13.932.088,23.807h4.232s.16-19.168-.8-22.281S74,748.466,74,748.466" transform="translate(-59.802 -604.553)" fill="#754c24"/>
        <path id="Tracciato_109403" data-name="Tracciato 109403" d="M92.843,749.63s1.763-4.056,2.645-4.056-2.645,6.7-2.645,6.7Z" transform="translate(-75.032 -602.543)" fill="#754c24"/>
        <path id="Tracciato_109404" data-name="Tracciato 109404" d="M62.352,728.8s-1.94-5.29-2.645-5.29.353,3.174.353,3.174-2.822-1.058-3.174-.529,3.05,1.411,3.465,4.056,2-1.411,2-1.411" transform="translate(-45.952 -584.713)" fill="#754c24"/>
        <path id="Tracciato_109405" data-name="Tracciato 109405" d="M82.731,736.948s1.058-3.527,1.94-3.351-1.058,2.645,0,4.761a2.843,2.843,0,0,1-.851,3.527Z" transform="translate(-66.86 -592.858)" fill="#754c24"/>
        <path id="Tracciato_109406" data-name="Tracciato 109406" d="M528,58.267H367.7V20H485.5Z" transform="translate(-297.161 -16.163)" fill="#736357"/>
        <path id="Tracciato_109407" data-name="Tracciato 109407" d="M600.662,73.967c-1.376,0-3.385-1.115-3.385-2.491h4.982c0,1.376-.221,2.491-1.6,2.491" transform="translate(-482.695 -57.764)" fill="#8c796a"/>
        <path id="Tracciato_109408" data-name="Tracciato 109408" d="M641.109,73.967c-1.376,0-3.385-1.115-3.385-2.491h4.982c0,1.376-.221,2.491-1.6,2.491" transform="translate(-515.383 -57.764)" fill="#8c796a"/>
        <path id="Tracciato_109409" data-name="Tracciato 109409" d="M681.555,73.967c-1.376,0-3.385-1.115-3.385-2.491h4.982c0,1.376-.221,2.491-1.6,2.491" transform="translate(-548.069 -57.764)" fill="#8c796a"/>
        <path id="Tracciato_109410" data-name="Tracciato 109410" d="M804.732,148.426c-1.376,0-3.385-1.115-3.385-2.491h4.982c0,1.375-.221,2.491-1.6,2.491" transform="translate(-647.616 -117.939)" fill="#8c796a"/>
        <path id="Tracciato_109411" data-name="Tracciato 109411" d="M843.34,148.426c-1.376,0-3.385-1.115-3.385-2.491h4.982c0,1.375-.221,2.491-1.6,2.491" transform="translate(-678.818 -117.939)" fill="#8c796a"/>
        <path id="Tracciato_109412" data-name="Tracciato 109412" d="M881.948,148.426c-1.376,0-3.385-1.115-3.385-2.491h4.981c0,1.375-.221,2.491-1.6,2.491" transform="translate(-710.019 -117.939)" fill="#8c796a"/>
        <path id="Tracciato_109413" data-name="Tracciato 109413" d="M881.948,61.1c-1.376,0-3.385-1.115-3.385-2.491h4.981c0,1.376-.221,2.491-1.6,2.491" transform="translate(-710.019 -47.364)" fill="#8c796a"/>
        <path id="Tracciato_109414" data-name="Tracciato 109414" d="M920.556,61.1c-1.376,0-3.385-1.115-3.385-2.491h4.981c0,1.376-.221,2.491-1.6,2.491" transform="translate(-741.22 -47.364)" fill="#8c796a"/>
        <path id="Tracciato_109415" data-name="Tracciato 109415" d="M801.975,183.356c-1.376,0-3.385-1.115-3.385-2.491h4.982c0,1.376-.221,2.491-1.6,2.491" transform="translate(-645.388 -146.168)" fill="#8c796a"/>
        <path id="Tracciato_109416" data-name="Tracciato 109416" d="M1040.976,170.488c-1.376,0-3.385-1.115-3.385-2.491h4.982c0,1.375-.221,2.491-1.6,2.491" transform="translate(-838.539 -135.768)" fill="#8c796a"/>
        <path id="Tracciato_109417" data-name="Tracciato 109417" d="M213.163,58.267V176.948H111.235V58.267L160.355,20Z" transform="translate(-89.896 -16.163)" fill="#faba00"/>
        <path id="Tracciato_109418" data-name="Tracciato 109418" d="M346.3,181.405H327.256V34.332l9.409-8.817,9.636,8.817Z" transform="translate(-264.475 -20.62)" fill="#dbdbdb"/>
        <rect id="Rettangolo_165560" data-name="Rettangolo 165560" width="95.756" height="118.681" transform="translate(123.268 42.104)" fill="#e3aa04"/>
        <rect id="Rettangolo_165561" data-name="Rettangolo 165561" width="95.756" height="57.313" transform="translate(123.268 103.473)" fill="#e3aa04"/>
        <rect id="Rettangolo_165562" data-name="Rettangolo 165562" width="16.739" height="33.181" transform="translate(38.452 114.846)" fill="#5797b3"/>
        <g id="Raggruppa_31424" data-name="Raggruppa 31424" transform="translate(40.44 114.846)" opacity="0.35" style="mix-blend-mode: screen;isolation: isolate">
          <g id="Raggruppa_31423" data-name="Raggruppa 31423">
            <g id="Raggruppa_31422" data-name="Raggruppa 31422" clip-path="url(#clip-path-3)">
              <path id="Tracciato_109419" data-name="Tracciato 109419" d="M217.124,598.652l-3.493,33.181H210.8l3.493-33.181Z" transform="translate(-210.8 -598.652)" fill="#999"/>
            </g>
          </g>
        </g>
        <g id="Raggruppa_31427" data-name="Raggruppa 31427" transform="translate(45.921 114.846)" opacity="0.35" style="mix-blend-mode: screen;isolation: isolate">
          <g id="Raggruppa_31426" data-name="Raggruppa 31426">
            <g id="Raggruppa_31425" data-name="Raggruppa 31425" clip-path="url(#clip-path-3)">
              <path id="Tracciato_109420" data-name="Tracciato 109420" d="M245.694,598.652,242.2,631.833H239.37l3.493-33.181Z" transform="translate(-239.37 -598.652)" fill="#999"/>
            </g>
          </g>
        </g>
        <rect id="Rettangolo_165565" data-name="Rettangolo 165565" width="1.778" height="33.181" transform="translate(38.452 114.846)" fill="#e0e0e0"/>
        <rect id="Rettangolo_165566" data-name="Rettangolo 165566" width="0.889" height="33.181" transform="translate(46.451 114.846)" fill="#e0e0e0"/>
        <rect id="Rettangolo_165567" data-name="Rettangolo 165567" width="15.998" height="0.889" transform="translate(38.748 120.697)" fill="#e0e0e0"/>
        <rect id="Rettangolo_165568" data-name="Rettangolo 165568" width="15.998" height="0.889" transform="translate(38.748 127.56)" fill="#e0e0e0"/>
        <rect id="Rettangolo_165569" data-name="Rettangolo 165569" width="15.998" height="0.889" transform="translate(38.748 134.424)" fill="#e0e0e0"/>
        <rect id="Rettangolo_165570" data-name="Rettangolo 165570" width="15.998" height="0.889" transform="translate(38.748 141.287)" fill="#e0e0e0"/>
        <rect id="Rettangolo_165571" data-name="Rettangolo 165571" width="16.739" height="1.778" transform="translate(38.452 114.846)" fill="#e0e0e0"/>
        <rect id="Rettangolo_165572" data-name="Rettangolo 165572" width="16.739" height="1.778" transform="translate(38.452 146.249)" fill="#e0e0e0"/>
        <rect id="Rettangolo_165573" data-name="Rettangolo 165573" width="1.778" height="33.181" transform="translate(53.413 114.846)" fill="#e0e0e0"/>
        <rect id="Rettangolo_165574" data-name="Rettangolo 165574" width="16.739" height="33.181" transform="translate(89.416 114.846)" fill="#5797b3"/>
        <g id="Raggruppa_31430" data-name="Raggruppa 31430" transform="translate(91.404 114.846)" opacity="0.35" style="mix-blend-mode: screen;isolation: isolate">
          <g id="Raggruppa_31429" data-name="Raggruppa 31429">
            <g id="Raggruppa_31428" data-name="Raggruppa 31428" clip-path="url(#clip-path-3)">
              <path id="Tracciato_109421" data-name="Tracciato 109421" d="M482.783,598.652l-3.493,33.181h-2.831l3.493-33.181Z" transform="translate(-476.459 -598.652)" fill="#999"/>
            </g>
          </g>
        </g>
        <g id="Raggruppa_31433" data-name="Raggruppa 31433" transform="translate(96.885 114.846)" opacity="0.35" style="mix-blend-mode: screen;isolation: isolate">
          <g id="Raggruppa_31432" data-name="Raggruppa 31432">
            <g id="Raggruppa_31431" data-name="Raggruppa 31431" clip-path="url(#clip-path-3)">
              <path id="Tracciato_109422" data-name="Tracciato 109422" d="M511.353,598.652l-3.493,33.181h-2.831l3.493-33.181Z" transform="translate(-505.029 -598.652)" fill="#999"/>
            </g>
          </g>
        </g>
        <rect id="Rettangolo_165577" data-name="Rettangolo 165577" width="1.778" height="33.181" transform="translate(89.416 114.846)" fill="#e0e0e0"/>
        <rect id="Rettangolo_165578" data-name="Rettangolo 165578" width="0.889" height="33.181" transform="translate(97.415 114.846)" fill="#e0e0e0"/>
        <rect id="Rettangolo_165579" data-name="Rettangolo 165579" width="15.998" height="0.889" transform="translate(89.713 120.697)" fill="#e0e0e0"/>
        <rect id="Rettangolo_165580" data-name="Rettangolo 165580" width="15.998" height="0.889" transform="translate(89.713 127.56)" fill="#e0e0e0"/>
        <rect id="Rettangolo_165581" data-name="Rettangolo 165581" width="15.998" height="0.889" transform="translate(89.713 134.424)" fill="#e0e0e0"/>
        <rect id="Rettangolo_165582" data-name="Rettangolo 165582" width="15.998" height="0.889" transform="translate(89.713 141.287)" fill="#e0e0e0"/>
        <rect id="Rettangolo_165583" data-name="Rettangolo 165583" width="16.739" height="1.778" transform="translate(89.416 114.846)" fill="#e0e0e0"/>
        <rect id="Rettangolo_165584" data-name="Rettangolo 165584" width="16.739" height="1.778" transform="translate(89.416 146.249)" fill="#e0e0e0"/>
        <rect id="Rettangolo_165585" data-name="Rettangolo 165585" width="1.778" height="33.181" transform="translate(104.377 114.846)" fill="#e0e0e0"/>
        <path id="Tracciato_109423" data-name="Tracciato 109423" d="M736.6,362.971H718.086V332.405a8.689,8.689,0,0,1,8.689-8.689h1.139a8.689,8.689,0,0,1,8.689,8.689Z" transform="translate(-580.328 -261.614)" fill="#ccc"/>
        <rect id="Rettangolo_165586" data-name="Rettangolo 165586" width="16.217" height="26.664" transform="translate(138.908 73.063)" fill="#5797b3"/>
        <g id="Raggruppa_31436" data-name="Raggruppa 31436" transform="translate(145.509 73.063)" opacity="0.35" style="mix-blend-mode: screen;isolation: isolate">
          <g id="Raggruppa_31435" data-name="Raggruppa 31435">
            <g id="Raggruppa_31434" data-name="Raggruppa 31434" clip-path="url(#clip-path-7)">
              <path id="Tracciato_109424" data-name="Tracciato 109424" d="M761.572,380.855H765.3l-3.084,26.664h-3.728Z" transform="translate(-758.487 -380.855)" fill="#999"/>
            </g>
          </g>
        </g>
        <path id="Tracciato_109425" data-name="Tracciato 109425" d="M740.346,339.288H724.163c.247-4.384,3.388-7.851,7.228-7.851h1.728a6.292,6.292,0,0,1,1.779.256,7.087,7.087,0,0,1,3.456,2.342,9.045,9.045,0,0,1,1.991,5.253" transform="translate(-585.239 -267.854)" fill="#5797b3"/>
        <g id="Raggruppa_31439" data-name="Raggruppa 31439" transform="translate(148.782 63.839)" opacity="0.35" style="mix-blend-mode: screen;isolation: isolate">
          <g id="Raggruppa_31438" data-name="Raggruppa 31438">
            <g id="Raggruppa_31437" data-name="Raggruppa 31437" clip-path="url(#clip-path-8)">
              <path id="Tracciato_109426" data-name="Tracciato 109426" d="M779.883,335.111l-.607,5.253h-3.728l.878-7.6a7.087,7.087,0,0,1,3.456,2.342" transform="translate(-775.548 -332.769)" fill="#999"/>
            </g>
          </g>
        </g>
        <rect id="Rettangolo_165589" data-name="Rettangolo 165589" width="0.638" height="8.888" transform="translate(146.697 62.991)" fill="#ccc"/>
        <path id="Tracciato_109427" data-name="Tracciato 109427" d="M740.277,346.23l-.451.524-5.418-6.285.451-.524Z" transform="translate(-593.518 -274.73)" fill="#ccc"/>
        <path id="Tracciato_109428" data-name="Tracciato 109428" d="M767.69,346.23l.451.524,5.418-6.285-.452-.524Z" transform="translate(-620.416 -274.73)" fill="#ccc"/>
        <rect id="Rettangolo_165590" data-name="Rettangolo 165590" width="1.234" height="27.863" transform="translate(146.399 72.612)" fill="#c2c2c2"/>
        <rect id="Rettangolo_165591" data-name="Rettangolo 165591" width="0.705" height="2.645" transform="translate(148.956 83.193)" fill="#c2c2c2"/>
        <rect id="Rettangolo_165592" data-name="Rettangolo 165592" width="0.705" height="2.645" transform="translate(144.371 83.193)" fill="#c2c2c2"/>
        <rect id="Rettangolo_165593" data-name="Rettangolo 165593" width="16.739" height="33.181" transform="translate(38.452 52.948)" fill="#5797b3"/>
        <g id="Raggruppa_31442" data-name="Raggruppa 31442" transform="translate(40.44 52.948)" opacity="0.35" style="mix-blend-mode: screen;isolation: isolate">
          <g id="Raggruppa_31441" data-name="Raggruppa 31441">
            <g id="Raggruppa_31440" data-name="Raggruppa 31440" clip-path="url(#clip-path-3)">
              <path id="Tracciato_109429" data-name="Tracciato 109429" d="M217.124,276l-3.493,33.181H210.8L214.293,276Z" transform="translate(-210.8 -276)" fill="#999"/>
            </g>
          </g>
        </g>
        <g id="Raggruppa_31445" data-name="Raggruppa 31445" transform="translate(45.921 52.948)" opacity="0.35" style="mix-blend-mode: screen;isolation: isolate">
          <g id="Raggruppa_31444" data-name="Raggruppa 31444">
            <g id="Raggruppa_31443" data-name="Raggruppa 31443" clip-path="url(#clip-path-3)">
              <path id="Tracciato_109430" data-name="Tracciato 109430" d="M245.694,276,242.2,309.182H239.37L242.863,276Z" transform="translate(-239.37 -276)" fill="#999"/>
            </g>
          </g>
        </g>
        <rect id="Rettangolo_165596" data-name="Rettangolo 165596" width="1.778" height="33.181" transform="translate(38.452 52.948)" fill="#e0e0e0"/>
        <rect id="Rettangolo_165597" data-name="Rettangolo 165597" width="0.889" height="33.181" transform="translate(46.451 52.948)" fill="#e0e0e0"/>
        <rect id="Rettangolo_165598" data-name="Rettangolo 165598" width="15.998" height="0.889" transform="translate(38.748 58.799)" fill="#e0e0e0"/>
        <rect id="Rettangolo_165599" data-name="Rettangolo 165599" width="15.998" height="0.889" transform="translate(38.748 65.663)" fill="#e0e0e0"/>
        <rect id="Rettangolo_165600" data-name="Rettangolo 165600" width="15.998" height="0.889" transform="translate(38.748 72.526)" fill="#e0e0e0"/>
        <rect id="Rettangolo_165601" data-name="Rettangolo 165601" width="15.998" height="0.889" transform="translate(38.748 79.389)" fill="#e0e0e0"/>
        <rect id="Rettangolo_165602" data-name="Rettangolo 165602" width="16.739" height="1.778" transform="translate(38.452 52.948)" fill="#e0e0e0"/>
        <rect id="Rettangolo_165603" data-name="Rettangolo 165603" width="16.739" height="1.778" transform="translate(38.452 84.352)" fill="#e0e0e0"/>
        <rect id="Rettangolo_165604" data-name="Rettangolo 165604" width="1.778" height="33.181" transform="translate(53.413 52.948)" fill="#e0e0e0"/>
        <rect id="Rettangolo_165605" data-name="Rettangolo 165605" width="16.739" height="33.181" transform="translate(89.416 52.948)" fill="#5797b3"/>
        <g id="Raggruppa_31448" data-name="Raggruppa 31448" transform="translate(91.404 52.948)" opacity="0.35" style="mix-blend-mode: screen;isolation: isolate">
          <g id="Raggruppa_31447" data-name="Raggruppa 31447">
            <g id="Raggruppa_31446" data-name="Raggruppa 31446" clip-path="url(#clip-path-3)">
              <path id="Tracciato_109431" data-name="Tracciato 109431" d="M482.783,276l-3.493,33.181h-2.831L479.952,276Z" transform="translate(-476.459 -276)" fill="#999"/>
            </g>
          </g>
        </g>
        <g id="Raggruppa_31451" data-name="Raggruppa 31451" transform="translate(96.885 52.948)" opacity="0.35" style="mix-blend-mode: screen;isolation: isolate">
          <g id="Raggruppa_31450" data-name="Raggruppa 31450">
            <g id="Raggruppa_31449" data-name="Raggruppa 31449" clip-path="url(#clip-path-3)">
              <path id="Tracciato_109432" data-name="Tracciato 109432" d="M511.353,276l-3.493,33.181h-2.831L508.522,276Z" transform="translate(-505.029 -276)" fill="#999"/>
            </g>
          </g>
        </g>
        <rect id="Rettangolo_165608" data-name="Rettangolo 165608" width="1.778" height="33.181" transform="translate(89.416 52.948)" fill="#e0e0e0"/>
        <rect id="Rettangolo_165609" data-name="Rettangolo 165609" width="0.889" height="33.181" transform="translate(97.415 52.948)" fill="#e0e0e0"/>
        <rect id="Rettangolo_165610" data-name="Rettangolo 165610" width="15.998" height="0.889" transform="translate(89.713 58.799)" fill="#e0e0e0"/>
        <rect id="Rettangolo_165611" data-name="Rettangolo 165611" width="15.998" height="0.889" transform="translate(89.713 65.663)" fill="#e0e0e0"/>
        <rect id="Rettangolo_165612" data-name="Rettangolo 165612" width="15.998" height="0.889" transform="translate(89.713 72.526)" fill="#e0e0e0"/>
        <rect id="Rettangolo_165613" data-name="Rettangolo 165613" width="15.998" height="0.889" transform="translate(89.713 79.389)" fill="#e0e0e0"/>
        <rect id="Rettangolo_165614" data-name="Rettangolo 165614" width="16.739" height="1.778" transform="translate(89.416 52.948)" fill="#e0e0e0"/>
        <rect id="Rettangolo_165615" data-name="Rettangolo 165615" width="16.739" height="1.778" transform="translate(89.416 84.352)" fill="#e0e0e0"/>
        <rect id="Rettangolo_165616" data-name="Rettangolo 165616" width="1.778" height="33.181" transform="translate(104.377 52.948)" fill="#e0e0e0"/>
        <rect id="Rettangolo_165617" data-name="Rettangolo 165617" width="95.756" height="4.232" transform="translate(123.268 99.24)" fill="#e6e6e6"/>
        <rect id="Rettangolo_165618" data-name="Rettangolo 165618" width="95.756" height="4.232" transform="translate(123.268 92.539)" fill="#e6e6e6"/>
        <rect id="Rettangolo_165619" data-name="Rettangolo 165619" width="95.756" height="4.232" transform="translate(123.268 85.838)" fill="#e6e6e6"/>
        <path id="Tracciato_109433" data-name="Tracciato 109433" d="M736.6,672.753H718.086V642.187a8.689,8.689,0,0,1,8.689-8.689h1.139a8.689,8.689,0,0,1,8.689,8.689Z" transform="translate(-580.328 -511.967)" fill="#ccc"/>
        <rect id="Rettangolo_165620" data-name="Rettangolo 165620" width="16.218" height="26.664" transform="translate(138.907 132.492)" fill="#d9d9d9"/>
        <path id="Tracciato_109434" data-name="Tracciato 109434" d="M740.35,649.071c-.246-4.383-3.387-7.851-7.228-7.851h-1.728c-3.841,0-6.982,3.468-7.228,7.851Z" transform="translate(-585.242 -518.208)" fill="#5797b3"/>
        <rect id="Rettangolo_165621" data-name="Rettangolo 165621" width="14.302" height="9.925" transform="translate(139.801 133.529)" fill="#ededed"/>
        <rect id="Rettangolo_165622" data-name="Rettangolo 165622" width="14.302" height="13.036" transform="translate(139.801 144.787)" fill="#ededed"/>
        <rect id="Rettangolo_165623" data-name="Rettangolo 165623" width="0.894" height="3.703" transform="translate(140.823 142.121)" fill="#c2c2c2"/>
        <rect id="Rettangolo_165624" data-name="Rettangolo 165624" width="0.638" height="8.888" transform="translate(146.697 122.419)" fill="#ccc"/>
        <path id="Tracciato_109435" data-name="Tracciato 109435" d="M740.277,656.013l-.451.524-5.418-6.285.451-.524Z" transform="translate(-593.518 -525.084)" fill="#ccc"/>
        <path id="Tracciato_109436" data-name="Tracciato 109436" d="M767.69,656.013l.451.524,5.418-6.285-.452-.524Z" transform="translate(-620.416 -525.084)" fill="#ccc"/>
        <rect id="Rettangolo_165625" data-name="Rettangolo 165625" width="3.174" height="57.313" transform="translate(170.529 103.473)" fill="#ccc"/>
        <rect id="Rettangolo_165626" data-name="Rettangolo 165626" width="3.174" height="57.313" transform="translate(123.268 103.473)" fill="#ccc"/>
        <rect id="Rettangolo_165627" data-name="Rettangolo 165627" width="3.174" height="57.313" transform="translate(215.85 103.473)" fill="#ccc"/>
        <rect id="Rettangolo_165628" data-name="Rettangolo 165628" width="48.495" height="4.232" transform="translate(170.529 156.553)" fill="#e6e6e6"/>
        <rect id="Rettangolo_165629" data-name="Rettangolo 165629" width="48.495" height="4.232" transform="translate(170.529 149.852)" fill="#e6e6e6"/>
        <rect id="Rettangolo_165630" data-name="Rettangolo 165630" width="16.739" height="33.181" transform="translate(185.878 52.948)" fill="#5797b3"/>
        <g id="Raggruppa_31454" data-name="Raggruppa 31454" transform="translate(187.866 52.948)" opacity="0.35" style="mix-blend-mode: screen;isolation: isolate">
          <g id="Raggruppa_31453" data-name="Raggruppa 31453">
            <g id="Raggruppa_31452" data-name="Raggruppa 31452" clip-path="url(#clip-path-13)">
              <path id="Tracciato_109437" data-name="Tracciato 109437" d="M985.6,276l-3.493,33.181h-2.831L982.774,276Z" transform="translate(-979.281 -276)" fill="#999"/>
            </g>
          </g>
        </g>
        <g id="Raggruppa_31457" data-name="Raggruppa 31457" transform="translate(193.346 52.948)" opacity="0.35" style="mix-blend-mode: screen;isolation: isolate">
          <g id="Raggruppa_31456" data-name="Raggruppa 31456">
            <g id="Raggruppa_31455" data-name="Raggruppa 31455" clip-path="url(#clip-path-13)">
              <path id="Tracciato_109438" data-name="Tracciato 109438" d="M1014.174,276l-3.493,33.181h-2.831L1011.344,276Z" transform="translate(-1007.851 -276)" fill="#999"/>
            </g>
          </g>
        </g>
        <rect id="Rettangolo_165633" data-name="Rettangolo 165633" width="1.778" height="33.181" transform="translate(185.878 52.948)" fill="#e0e0e0"/>
        <rect id="Rettangolo_165634" data-name="Rettangolo 165634" width="0.889" height="33.181" transform="translate(193.877 52.948)" fill="#e0e0e0"/>
        <rect id="Rettangolo_165635" data-name="Rettangolo 165635" width="15.998" height="0.889" transform="translate(186.174 58.799)" fill="#e0e0e0"/>
        <rect id="Rettangolo_165636" data-name="Rettangolo 165636" width="15.998" height="0.889" transform="translate(186.174 65.663)" fill="#e0e0e0"/>
        <rect id="Rettangolo_165637" data-name="Rettangolo 165637" width="15.998" height="0.889" transform="translate(186.174 72.526)" fill="#e0e0e0"/>
        <rect id="Rettangolo_165638" data-name="Rettangolo 165638" width="15.998" height="0.889" transform="translate(186.174 79.389)" fill="#e0e0e0"/>
        <rect id="Rettangolo_165639" data-name="Rettangolo 165639" width="16.739" height="1.778" transform="translate(185.878 52.948)" fill="#e0e0e0"/>
        <rect id="Rettangolo_165640" data-name="Rettangolo 165640" width="16.739" height="1.778" transform="translate(185.878 84.352)" fill="#e0e0e0"/>
        <rect id="Rettangolo_165641" data-name="Rettangolo 165641" width="1.778" height="33.181" transform="translate(200.839 52.948)" fill="#e0e0e0"/>
        <rect id="Rettangolo_165642" data-name="Rettangolo 165642" width="16.739" height="33.181" transform="translate(185.878 114.846)" fill="#5797b3"/>
        <g id="Raggruppa_31460" data-name="Raggruppa 31460" transform="translate(187.866 114.846)" opacity="0.35" style="mix-blend-mode: screen;isolation: isolate">
          <g id="Raggruppa_31459" data-name="Raggruppa 31459">
            <g id="Raggruppa_31458" data-name="Raggruppa 31458" clip-path="url(#clip-path-13)">
              <path id="Tracciato_109439" data-name="Tracciato 109439" d="M985.6,598.652l-3.493,33.181h-2.831l3.493-33.181Z" transform="translate(-979.281 -598.652)" fill="#999"/>
            </g>
          </g>
        </g>
        <g id="Raggruppa_31463" data-name="Raggruppa 31463" transform="translate(193.346 114.846)" opacity="0.35" style="mix-blend-mode: screen;isolation: isolate">
          <g id="Raggruppa_31462" data-name="Raggruppa 31462">
            <g id="Raggruppa_31461" data-name="Raggruppa 31461" clip-path="url(#clip-path-13)">
              <path id="Tracciato_109440" data-name="Tracciato 109440" d="M1014.174,598.652l-3.493,33.181h-2.831l3.493-33.181Z" transform="translate(-1007.851 -598.652)" fill="#999"/>
            </g>
          </g>
        </g>
        <rect id="Rettangolo_165645" data-name="Rettangolo 165645" width="1.778" height="33.181" transform="translate(185.878 114.846)" fill="#e0e0e0"/>
        <rect id="Rettangolo_165646" data-name="Rettangolo 165646" width="0.889" height="33.181" transform="translate(193.877 114.846)" fill="#e0e0e0"/>
        <rect id="Rettangolo_165647" data-name="Rettangolo 165647" width="15.998" height="0.889" transform="translate(186.174 120.697)" fill="#e0e0e0"/>
        <rect id="Rettangolo_165648" data-name="Rettangolo 165648" width="15.998" height="0.889" transform="translate(186.174 127.56)" fill="#e0e0e0"/>
        <rect id="Rettangolo_165649" data-name="Rettangolo 165649" width="15.998" height="0.889" transform="translate(186.174 134.424)" fill="#e0e0e0"/>
        <rect id="Rettangolo_165650" data-name="Rettangolo 165650" width="15.998" height="0.889" transform="translate(186.174 141.287)" fill="#e0e0e0"/>
        <rect id="Rettangolo_165651" data-name="Rettangolo 165651" width="16.739" height="1.778" transform="translate(185.878 114.846)" fill="#e0e0e0"/>
        <rect id="Rettangolo_165652" data-name="Rettangolo 165652" width="16.739" height="1.778" transform="translate(185.878 146.249)" fill="#e0e0e0"/>
        <rect id="Rettangolo_165653" data-name="Rettangolo 165653" width="1.778" height="33.181" transform="translate(200.839 114.846)" fill="#e0e0e0"/>
        <g id="Raggruppa_31466" data-name="Raggruppa 31466" transform="translate(123.268 103.473)" opacity="0.47" style="mix-blend-mode: multiply;isolation: isolate">
          <g id="Raggruppa_31465" data-name="Raggruppa 31465">
            <g id="Raggruppa_31464" data-name="Raggruppa 31464" clip-path="url(#clip-path-17)">
              <rect id="Rettangolo_165654" data-name="Rettangolo 165654" width="95.756" height="4.938" transform="translate(0 0)" fill="gray"/>
            </g>
          </g>
        </g>
        <g id="Raggruppa_31469" data-name="Raggruppa 31469" transform="translate(123.268 45.102)" opacity="0.47" style="mix-blend-mode: multiply;isolation: isolate">
          <g id="Raggruppa_31468" data-name="Raggruppa 31468">
            <g id="Raggruppa_31467" data-name="Raggruppa 31467" clip-path="url(#clip-path-18)">
              <rect id="Rettangolo_165656" data-name="Rettangolo 165656" width="95.756" height="7.054" fill="gray"/>
            </g>
          </g>
        </g>
        <rect id="Rettangolo_165658" data-name="Rettangolo 165658" width="48.495" height="4.232" transform="translate(170.529 143.15)" fill="#e6e6e6"/>
        <rect id="Rettangolo_165659" data-name="Rettangolo 165659" width="104.397" height="5.996" transform="translate(126.442 42.104)" fill="#63564b"/>
        <rect id="Rettangolo_165660" data-name="Rettangolo 165660" width="7.407" height="3.174" transform="translate(64.897 35.932)" fill="#c9c9c9"/>
        <rect id="Rettangolo_165661" data-name="Rettangolo 165661" width="7.407" height="3.174" transform="translate(68.6 31.876)" fill="#c9c9c9"/>
        <rect id="Rettangolo_165662" data-name="Rettangolo 165662" width="7.407" height="3.174" transform="translate(68.6 47.042)" fill="#c9c9c9"/>
        <rect id="Rettangolo_165663" data-name="Rettangolo 165663" width="7.407" height="3.174" transform="translate(66.837 61.326)" fill="#c9c9c9"/>
        <rect id="Rettangolo_165664" data-name="Rettangolo 165664" width="7.407" height="3.174" transform="translate(72.304 65.911)" fill="#c9c9c9"/>
        <rect id="Rettangolo_165665" data-name="Rettangolo 165665" width="7.407" height="3.174" transform="translate(64.897 83.722)" fill="#c9c9c9"/>
        <rect id="Rettangolo_165666" data-name="Rettangolo 165666" width="7.407" height="3.174" transform="translate(72.304 96.948)" fill="#c9c9c9"/>
        <rect id="Rettangolo_165667" data-name="Rettangolo 165667" width="7.407" height="3.174" transform="translate(68.159 101.092)" fill="#c9c9c9"/>
        <rect id="Rettangolo_165668" data-name="Rettangolo 165668" width="7.407" height="3.174" transform="translate(66.837 135.391)" fill="#c9c9c9"/>
        <rect id="Rettangolo_165669" data-name="Rettangolo 165669" width="7.407" height="3.174" transform="translate(72.304 148.265)" fill="#c9c9c9"/>
        <g id="Raggruppa_31472" data-name="Raggruppa 31472" transform="translate(21.339 6.348)" opacity="0.47" style="mix-blend-mode: multiply;isolation: isolate">
          <g id="Raggruppa_31471" data-name="Raggruppa 31471">
            <g id="Raggruppa_31470" data-name="Raggruppa 31470" clip-path="url(#clip-path-19)">
              <path id="Tracciato_109441" data-name="Tracciato 109441" d="M213.163,71.438,174.015,43.046V40.454h-2.293v.93l-11.436-8.294L111.235,71.223v7.593l49.174-38.228,11.313,8.2V187.527h2.293V50.453l39.149,28.389Z" transform="translate(-111.235 -33.09)" fill="gray"/>
            </g>
          </g>
        </g>
        <path id="Tracciato_109442" data-name="Tracciato 109442" d="M188.532,48.058,132.6,7.5,80.5,48l-3.68-4.734L132.476,0l59.576,43.2Z" transform="translate(-62.087 0)" fill="#e6e6e6"/>
        <rect id="Rettangolo_165671" data-name="Rettangolo 165671" width="101.928" height="8.994" transform="translate(21.339 160.785)" fill="gray"/>
        <rect id="Rettangolo_165672" data-name="Rettangolo 165672" width="95.756" height="8.994" transform="translate(123.268 160.785)" fill="#666"/>
        <rect id="Rettangolo_165673" data-name="Rettangolo 165673" width="7.407" height="3.174" transform="translate(24.866 162.549)" fill="#949494"/>
        <rect id="Rettangolo_165674" data-name="Rettangolo 165674" width="7.407" height="3.174" transform="translate(35.623 165.37)" fill="#949494"/>
        <rect id="Rettangolo_165675" data-name="Rettangolo 165675" width="7.407" height="3.174" transform="translate(47.262 162.02)" fill="#949494"/>
        <rect id="Rettangolo_165676" data-name="Rettangolo 165676" width="7.407" height="3.174" transform="translate(75.654 162.02)" fill="#949494"/>
        <rect id="Rettangolo_165677" data-name="Rettangolo 165677" width="7.407" height="3.174" transform="translate(78.123 166.428)" fill="#949494"/>
        <rect id="Rettangolo_165678" data-name="Rettangolo 165678" width="7.407" height="3.174" transform="translate(131.027 161.843)" fill="gray"/>
        <rect id="Rettangolo_165679" data-name="Rettangolo 165679" width="7.407" height="3.174" transform="translate(148.662 161.843)" fill="gray"/>
        <rect id="Rettangolo_165680" data-name="Rettangolo 165680" width="7.407" height="3.174" transform="translate(159.948 163.431)" fill="gray"/>
        <rect id="Rettangolo_165681" data-name="Rettangolo 165681" width="7.407" height="3.174" transform="translate(186.4 161.843)" fill="gray"/>
        <rect id="Rettangolo_165682" data-name="Rettangolo 165682" width="7.407" height="3.174" transform="translate(195.923 164.136)" fill="gray"/>
        <rect id="Rettangolo_165683" data-name="Rettangolo 165683" width="7.407" height="3.174" transform="translate(210.03 161.843)" fill="gray"/>
        <rect id="Rettangolo_165684" data-name="Rettangolo 165684" width="7.407" height="3.174" transform="translate(133.496 166.252)" fill="gray"/>
        <rect id="Rettangolo_165685" data-name="Rettangolo 165685" width="27.863" height="2.248" transform="translate(133.085 160.785)" fill="#d9d9d9"/>
        <rect id="Rettangolo_165686" data-name="Rettangolo 165686" width="27.863" height="0.75" transform="translate(133.085 162.284)" fill="#b8b8b8"/>
        <rect id="Rettangolo_165687" data-name="Rettangolo 165687" width="28.921" height="2.248" transform="translate(132.556 163.034)" fill="#d9d9d9"/>
        <rect id="Rettangolo_165688" data-name="Rettangolo 165688" width="28.921" height="0.75" transform="translate(132.556 164.532)" fill="#b8b8b8"/>
        <rect id="Rettangolo_165689" data-name="Rettangolo 165689" width="29.979" height="2.248" transform="translate(132.027 165.282)" fill="#d9d9d9"/>
        <rect id="Rettangolo_165690" data-name="Rettangolo 165690" width="29.979" height="0.75" transform="translate(132.027 166.781)" fill="#b8b8b8"/>
        <rect id="Rettangolo_165691" data-name="Rettangolo 165691" width="31.742" height="2.248" transform="translate(131.145 167.531)" fill="#d9d9d9"/>
        <path id="Tracciato_109443" data-name="Tracciato 109443" d="M933.292,731.488a2.1,2.1,0,0,0-2.1,2.1c-.025,0-.05,0-.075,0a5.2,5.2,0,0,1-6.005-1,2.1,2.1,0,0,1-3.206,0,2.1,2.1,0,0,1-3.317,0,2.094,2.094,0,0,1-2.874-1.105,2.094,2.094,0,0,1-2.653,1.658,3.31,3.31,0,1,0,5.48,3.646l.047,0a2.1,2.1,0,0,1,3.317.995,2.095,2.095,0,0,1,3.206-.995,2.1,2.1,0,0,0,.445-.048c0,.016,0,.032,0,.048a9.8,9.8,0,0,1,5.638.995,3.321,3.321,0,0,0,2.1-6.3" transform="translate(-736.203 -591.159)" fill="#7f9c42"/>
        <path id="Tracciato_109444" data-name="Tracciato 109444" d="M917.484,745.165a2.1,2.1,0,0,0-3.427-1.105,2.1,2.1,0,0,1-1.613-3.445,3.69,3.69,0,0,0,5.658,4.456,2.092,2.092,0,0,1-.618.094" transform="translate(-736.203 -598.535)" fill="#667d35"/>
        <path id="Tracciato_109445" data-name="Tracciato 109445" d="M964.484,737.73l-.076.026.028.034c.016-.02.032-.04.049-.059" transform="translate(-779.395 -596.203)" fill="#667d35"/>
        <path id="Tracciato_109446" data-name="Tracciato 109446" d="M958.24,754.727a2.1,2.1,0,0,0-3.316-.995l-.047,0a2.078,2.078,0,0,1-.187.521,1.53,1.53,0,0,1,2.555,1.139,2.09,2.09,0,0,0,1.61-.756,2.094,2.094,0,0,1-.615.093" transform="translate(-771.542 -608.76)" fill="#667d35"/>
        <path id="Tracciato_109447" data-name="Tracciato 109447" d="M1013.24,758.325a2.1,2.1,0,1,0,.618-.093,2.1,2.1,0,0,1-.618.093" transform="translate(-817.255 -612.359)" fill="#667d35"/>
        <path id="Tracciato_109448" data-name="Tracciato 109448" d="M984.71,756.105a2.1,2.1,0,0,1-2.1-2.1c0-.016,0-.032,0-.048a1.269,1.269,0,0,0-2.282.533,2.079,2.079,0,0,0,.842.179,2.11,2.11,0,0,0,.445-.048c0,.016,0,.032,0,.048a2.1,2.1,0,0,0,3.714,1.343,2.094,2.094,0,0,1-.618.094" transform="translate(-792.263 -609.033)" fill="#667d35"/>
        <path id="Tracciato_109449" data-name="Tracciato 109449" d="M933.343,737.88a1.616,1.616,0,0,1,1.412,1.148v-.014a1.615,1.615,0,1,0-3.157.325,1.615,1.615,0,0,1,1.744-1.46" transform="translate(-752.827 -595.827)" fill="#667d35"/>
        <path id="Tracciato_109450" data-name="Tracciato 109450" d="M990.391,742.49a1.615,1.615,0,0,1,1.412,1.148v-.014a1.615,1.615,0,1,0-3.157.325,1.615,1.615,0,0,1,1.744-1.46" transform="translate(-798.93 -599.552)" fill="#667d35"/>
        <path id="Tracciato_109451" data-name="Tracciato 109451" d="M940.327,750.779a.276.276,0,1,1-.276-.276.276.276,0,0,1,.276.276" transform="translate(-759.487 -606.526)" fill="#fbb03b"/>
        <path id="Tracciato_109452" data-name="Tracciato 109452" d="M957.614,742.712a.276.276,0,1,1-.276-.276.276.276,0,0,1,.276.276" transform="translate(-773.458 -600.007)" fill="#fbb03b"/>
        <path id="Tracciato_109453" data-name="Tracciato 109453" d="M979.511,744.441a.276.276,0,1,1-.276-.276.276.276,0,0,1,.276.276" transform="translate(-791.154 -601.404)" fill="#fbb03b"/>
        <path id="Tracciato_109454" data-name="Tracciato 109454" d="M1008.9,742.712a.276.276,0,1,1-.276-.276.276.276,0,0,1,.276.276" transform="translate(-814.904 -600.007)" fill="#fbb03b"/>
        <path id="Tracciato_109455" data-name="Tracciato 109455" d="M1031.372,746.746a.276.276,0,1,1-.277-.276.276.276,0,0,1,.277.276" transform="translate(-833.066 -603.267)" fill="#fbb03b"/>
        <path id="Tracciato_109456" data-name="Tracciato 109456" d="M1018.781,731.488a2.1,2.1,0,0,0-2.1,2.1c-.025,0-.05,0-.075,0a5.2,5.2,0,0,1-6.005-1,2.1,2.1,0,0,1-3.206,0,2.1,2.1,0,0,1-3.317,0,2.094,2.094,0,0,1-2.874-1.105,2.094,2.094,0,0,1-2.653,1.658,3.31,3.31,0,1,0,5.48,3.646l.047,0a2.1,2.1,0,0,1,3.317.995,2.1,2.1,0,0,1,3.206-.995,2.1,2.1,0,0,0,.444-.048c0,.016,0,.032,0,.048a9.8,9.8,0,0,1,5.638.995,102218.03,102218.03,0,0,1,4.2-4.2,2.1,2.1,0,0,0-2.1-2.1" transform="translate(-805.291 -591.159)" fill="#7f9c42"/>
        <path id="Tracciato_109457" data-name="Tracciato 109457" d="M1002.973,745.165a2.1,2.1,0,0,0-3.427-1.105,2.1,2.1,0,0,1-1.613-3.445,3.69,3.69,0,0,0,5.658,4.456,2.091,2.091,0,0,1-.618.094" transform="translate(-805.291 -598.535)" fill="#667d35"/>
        <path id="Tracciato_109458" data-name="Tracciato 109458" d="M1049.973,737.73l-.076.026.028.034c.015-.02.032-.04.049-.059" transform="translate(-848.484 -596.203)" fill="#667d35"/>
        <path id="Tracciato_109459" data-name="Tracciato 109459" d="M1043.728,754.727a2.1,2.1,0,0,0-3.317-.995l-.047,0a2.082,2.082,0,0,1-.187.521,1.53,1.53,0,0,1,2.556,1.139,2.09,2.09,0,0,0,1.61-.756,2.1,2.1,0,0,1-.615.093" transform="translate(-840.63 -608.76)" fill="#667d35"/>
        <path id="Tracciato_109460" data-name="Tracciato 109460" d="M1098.729,758.325a2.1,2.1,0,1,0,.618-.093,2.1,2.1,0,0,1-.618.093" transform="translate(-886.344 -612.359)" fill="#667d35"/>
        <path id="Tracciato_109461" data-name="Tracciato 109461" d="M1070.2,756.105a2.1,2.1,0,0,1-2.1-2.1c0-.016,0-.032,0-.048a2.108,2.108,0,0,1-.444.048,2.087,2.087,0,0,1-1.229-.4,2.108,2.108,0,0,1-.608.885,2.079,2.079,0,0,0,.842.179,2.11,2.11,0,0,0,.445-.048c0,.016,0,.032,0,.048a2.1,2.1,0,0,0,3.713,1.343,2.094,2.094,0,0,1-.618.094" transform="translate(-861.352 -609.033)" fill="#667d35"/>
        <path id="Tracciato_109462" data-name="Tracciato 109462" d="M1018.832,737.88a1.616,1.616,0,0,1,1.412,1.148s0-.009,0-.014a1.615,1.615,0,1,0-3.157.325,1.615,1.615,0,0,1,1.744-1.46" transform="translate(-821.915 -595.827)" fill="#667d35"/>
        <path id="Tracciato_109463" data-name="Tracciato 109463" d="M1075.879,742.49a1.615,1.615,0,0,1,1.412,1.148s0-.009,0-.014a1.615,1.615,0,1,0-3.157.325,1.615,1.615,0,0,1,1.744-1.46" transform="translate(-868.018 -599.552)" fill="#667d35"/>
        <path id="Tracciato_109464" data-name="Tracciato 109464" d="M1025.816,750.779a.276.276,0,1,1-.276-.276.276.276,0,0,1,.276.276" transform="translate(-828.576 -606.526)" fill="#fbb03b"/>
        <path id="Tracciato_109465" data-name="Tracciato 109465" d="M1043.1,742.712a.276.276,0,1,1-.276-.276.276.276,0,0,1,.276.276" transform="translate(-842.547 -600.007)" fill="#fbb03b"/>
        <path id="Tracciato_109466" data-name="Tracciato 109466" d="M1065,744.441a.276.276,0,1,1-.276-.276.276.276,0,0,1,.276.276" transform="translate(-860.243 -601.404)" fill="#fbb03b"/>
        <path id="Tracciato_109467" data-name="Tracciato 109467" d="M1094.388,742.712a.276.276,0,1,1-.276-.276.276.276,0,0,1,.276.276" transform="translate(-883.993 -600.007)" fill="#fbb03b"/>
        <path id="Tracciato_109468" data-name="Tracciato 109468" d="M1116.861,746.746a.276.276,0,1,1-.276-.276.276.276,0,0,1,.276.276" transform="translate(-902.155 -603.267)" fill="#fbb03b"/>
      </g>
    </g>
  </g>
</svg>
