<?xml version="1.0" encoding="UTF-8"?>
<!DOCTYPE svg PUBLIC "-//W3C//DTD SVG 1.1//EN" "http://www.w3.org/Graphics/SVG/1.1/DTD/svg11.dtd">
<svg xmlns="http://www.w3.org/2000/svg" version="1.1" width="512px" height="512px" style="shape-rendering:geometricPrecision; text-rendering:geometricPrecision; image-rendering:optimizeQuality; fill-rule:evenodd; clip-rule:evenodd" xmlns:xlink="http://www.w3.org/1999/xlink">
<g><path style="opacity:0.828" fill="#fff" d="M 511.5,217.5 C 511.5,243.5 511.5,269.5 511.5,295.5C 502.494,347.319 480.327,392.653 445,431.5C 439.903,437.105 434.403,442.105 428.5,446.5C 428.54,443.119 428.207,439.786 427.5,436.5C 483.7,382.79 509.867,316.79 506,238.5C 495.3,143.527 447.467,74.6933 362.5,32C 275.318,-5.41346 191.984,1.58654 112.5,53C 43.7249,103.242 7.72494,171.242 4.5,257C 6.99578,331.465 35.6624,393.298 90.5,442.5C 89.7929,445.786 89.4595,449.119 89.5,452.5C 39.1717,409.848 9.17175,355.848 -0.5,290.5C -0.5,268.167 -0.5,245.833 -0.5,223.5C 16.1541,124.014 71.1541,55.1806 164.5,17C 247.623,-11.024 326.289,-2.02395 400.5,44C 461.333,86.4792 498.333,144.313 511.5,217.5 Z M 427.5,436.5 C 425.027,415.607 420.193,395.273 413,375.5C 408.949,363.682 401.116,355.682 389.5,351.5C 380.05,349.343 370.55,349.343 361,351.5C 356.043,350.98 351.209,349.98 346.5,348.5C 342.072,345.923 337.739,343.09 333.5,340C 328.833,334 324.167,328 319.5,322C 318.207,321.51 316.873,321.343 315.5,321.5C 314.778,321.082 314.278,320.416 314,319.5C 313.292,320.381 312.458,321.047 311.5,321.5C 308.357,321.969 306.023,323.636 304.5,326.5C 272.352,349.661 240.685,348.828 209.5,324C 208.251,323.26 207.251,323.427 206.5,324.5C 203.206,324.259 200.206,325.092 197.5,327C 191.21,337.324 182.876,345.658 172.5,352C 169.526,352.993 166.526,353.826 163.5,354.5C 154.005,353.465 144.671,353.465 135.5,354.5C 123.276,355.564 114.443,361.564 109,372.5C 99.3979,394.907 93.2313,418.241 90.5,442.5C 35.6624,393.298 6.99578,331.465 4.5,257C 7.72494,171.242 43.7249,103.242 112.5,53C 191.984,1.58654 275.318,-5.41346 362.5,32C 447.467,74.6933 495.3,143.527 506,238.5C 509.867,316.79 483.7,382.79 427.5,436.5 Z M 252.5,131.5 C 281.376,130.679 302.876,142.679 317,167.5C 323.267,202.901 317.934,236.568 301,268.5C 283.109,296.93 259.276,303.43 229.5,288C 213.866,273.913 204.033,256.413 200,235.5C 194.691,215.061 193.357,194.394 196,173.5C 203.272,154.23 216.772,141.397 236.5,135C 241.954,133.745 247.287,132.578 252.5,131.5 Z"/></g>
<g><path style="opacity:0.936" fill="#003475" d="M 248.5,113.5 C 274.581,111.89 297.581,119.39 317.5,136C 336.337,155.822 343.17,179.322 338,206.5C 335.748,238.27 325.415,266.936 307,292.5C 281.577,317.065 253.077,321.231 221.5,305C 212.004,299.004 204.338,291.17 198.5,281.5C 178.491,243.932 172.324,204.266 180,162.5C 189.946,139.224 207.113,124.057 231.5,117C 237.265,115.614 242.931,114.448 248.5,113.5 Z M 252.5,131.5 C 247.287,132.578 241.954,133.745 236.5,135C 216.772,141.397 203.272,154.23 196,173.5C 193.357,194.394 194.691,215.061 200,235.5C 204.033,256.413 213.866,273.913 229.5,288C 259.276,303.43 283.109,296.93 301,268.5C 317.934,236.568 323.267,202.901 317,167.5C 302.876,142.679 281.376,130.679 252.5,131.5 Z"/></g>
<g><path style="opacity:1" fill="#55abda" d="M 315.5,321.5 C 314.167,322.833 312.833,322.833 311.5,321.5C 312.458,321.047 313.292,320.381 314,319.5C 314.278,320.416 314.778,321.082 315.5,321.5 Z"/></g>
<g><path style="opacity:0.949" fill="#013676" d="M 311.5,321.5 C 312.833,322.833 314.167,322.833 315.5,321.5C 316.873,321.343 318.207,321.51 319.5,322C 324.167,328 328.833,334 333.5,340C 337.739,343.09 342.072,345.923 346.5,348.5C 345.761,348.369 345.094,348.536 344.5,349C 349.585,351.25 354.918,352.417 360.5,352.5C 370.349,351.523 380.016,351.189 389.5,351.5C 401.116,355.682 408.949,363.682 413,375.5C 420.193,395.273 425.027,415.607 427.5,436.5C 428.207,439.786 428.54,443.119 428.5,446.5C 428.676,453.988 425.01,457.322 417.5,456.5C 415.833,455.5 414.5,454.167 413.5,452.5C 409.802,434.008 405.468,415.674 400.5,397.5C 400.59,394.848 399.924,392.515 398.5,390.5C 397.038,382.741 393.371,376.241 387.5,371C 384.246,369.158 380.746,368.325 377,368.5C 345.84,373.919 322.507,362.919 307,335.5C 307.07,332.008 306.237,329.008 304.5,326.5C 306.023,323.636 308.357,321.969 311.5,321.5 Z"/></g>
<g><path style="opacity:0.97" fill="#003675" d="M 206.5,324.5 C 206.5,324.833 206.5,325.167 206.5,325.5C 208.111,327.641 209.611,329.974 211,332.5C 211.49,333.793 211.657,335.127 211.5,336.5C 200.014,359.172 181.514,371.505 156,373.5C 149.2,372.241 142.367,371.741 135.5,372C 128.618,374.584 124.118,379.417 122,386.5C 114.455,409.015 108.955,432.015 105.5,455.5C 102.968,456.596 100.635,457.929 98.5,459.5C 93.7917,459.317 90.7917,456.984 89.5,452.5C 89.4595,449.119 89.7929,445.786 90.5,442.5C 93.2313,418.241 99.3979,394.907 109,372.5C 114.443,361.564 123.276,355.564 135.5,354.5C 145.001,355.354 154.334,355.354 163.5,354.5C 166.526,353.826 169.526,352.993 172.5,352C 182.876,345.658 191.21,337.324 197.5,327C 200.206,325.092 203.206,324.259 206.5,324.5 Z"/></g>
<g><path style="opacity:0.998" fill="#72d6fe" d="M 304.5,326.5 C 306.237,329.008 307.07,332.008 307,335.5C 322.507,362.919 345.84,373.919 377,368.5C 380.746,368.325 384.246,369.158 387.5,371C 393.371,376.241 397.038,382.741 398.5,390.5C 398.41,393.152 399.076,395.485 400.5,397.5C 405.468,415.674 409.802,434.008 413.5,452.5C 412.432,454.74 410.766,456.574 408.5,458C 340.788,504.202 267.121,516.869 187.5,496C 157.796,486.981 130.463,473.481 105.5,455.5C 108.955,432.015 114.455,409.015 122,386.5C 124.118,379.417 128.618,374.584 135.5,372C 142.367,371.741 149.2,372.241 156,373.5C 181.514,371.505 200.014,359.172 211.5,336.5C 213.007,332.896 212.34,329.562 209.5,326.5C 208.583,325.873 207.583,325.539 206.5,325.5C 206.5,325.167 206.5,324.833 206.5,324.5C 207.251,323.427 208.251,323.26 209.5,324C 240.685,348.828 272.352,349.661 304.5,326.5 Z"/></g>
<g><path style="opacity:1" fill="#195692" d="M 206.5,325.5 C 207.583,325.539 208.583,325.873 209.5,326.5C 212.34,329.562 213.007,332.896 211.5,336.5C 211.657,335.127 211.49,333.793 211,332.5C 209.611,329.974 208.111,327.641 206.5,325.5 Z"/></g>
<g><path style="opacity:1" fill="#66c4ef" d="M 346.5,348.5 C 351.209,349.98 356.043,350.98 361,351.5C 370.55,349.343 380.05,349.343 389.5,351.5C 380.016,351.189 370.349,351.523 360.5,352.5C 354.918,352.417 349.585,351.25 344.5,349C 345.094,348.536 345.761,348.369 346.5,348.5 Z"/></g>
<g><path style="opacity:0.76" fill="#6ed0f9" d="M 135.5,354.5 C 144.671,353.465 154.005,353.465 163.5,354.5C 154.334,355.354 145.001,355.354 135.5,354.5 Z"/></g>
<g><path style="opacity:1" fill="#4a9bcc" d="M 398.5,390.5 C 399.924,392.515 400.59,394.848 400.5,397.5C 399.076,395.485 398.41,393.152 398.5,390.5 Z"/></g>
<g><path style="opacity:0.877" fill="#2e87c3" d="M 413.5,452.5 C 414.5,454.167 415.833,455.5 417.5,456.5C 377.917,487.781 332.917,506.114 282.5,511.5C 264.833,511.5 247.167,511.5 229.5,511.5C 180.894,506.305 137.228,488.971 98.5,459.5C 100.635,457.929 102.968,456.596 105.5,455.5C 130.463,473.481 157.796,486.981 187.5,496C 267.121,516.869 340.788,504.202 408.5,458C 410.766,456.574 412.432,454.74 413.5,452.5 Z"/></g>
</svg>
